<svg version="1.2" xmlns="http://www.w3.org/2000/svg" viewBox="0 0 1828 1830" width="1828" height="1830"><style>.a{fill:#fff}</style><path class="a" d="m697.1 385.2h-622.6c-17.8 0-32.4-14.5-32.4-32.4v-218.9c0-17.9 14.6-32.4 32.4-32.4h622.6c17.9 0 32.4 14.5 32.4 32.4v218.9c0 17.9-14.5 32.4-32.4 32.4z"/><path fill-rule="evenodd" d="m697.1 387.5h-622.6c-19.1 0-34.6-15.5-34.6-34.7v-218.9c0-19.1 15.5-34.7 34.6-34.7h622.6c19.1 0 34.7 15.6 34.7 34.7v218.9c0 19.2-15.6 34.7-34.7 34.7zm-622.6-283.7c-16.6 0-30.1 13.5-30.1 30.1v218.9c0 16.6 13.5 30.2 30.1 30.2h622.6c16.6 0 30.1-13.6 30.1-30.2v-218.9c0-16.6-13.5-30.1-30.1-30.1z"/><path fill-rule="evenodd" d="m674.9 196.3h-577.2c-1.3 0-2.3-1-2.3-2.2v-46.2c0-1.3 1-2.3 2.3-2.3h577.2c1.3 0 2.3 1 2.3 2.3v46.2c0 1.2-1 2.2-2.3 2.2zm-575-4.5h572.7v-41.6h-572.7z"/><path fill-rule="evenodd" d="m675.8 269.2h-577.2c-1.3 0-2.3-1-2.3-2.3v-46.2c0-1.2 1-2.3 2.3-2.3h577.2c1.3 0 2.3 1.1 2.3 2.3v46.2c0 1.3-1 2.3-2.3 2.3zm-574.9-4.6h572.7v-41.6h-572.7z"/><path fill-rule="evenodd" d="m674 340.2h-577.2c-1.3 0-2.3-1-2.3-2.3v-46.1c0-1.3 1-2.3 2.3-2.3h577.2c1.3 0 2.3 1 2.3 2.3v46.1c0 1.3-1 2.3-2.3 2.3zm-575-4.5h572.7v-41.7h-572.7z"/><path class="a" d="m586.9 1259.5l-79-499.8c-0.7-8.6-3.9-16.8-9.4-23.4l-103.9-126c-12.1-14.7-35.6-10.7-42.2 7.1l-55.2 148.8c-2.1 5.7-2.9 11.8-2.4 17.9l46.3 532.3z"/><path fill-rule="evenodd" d="m341.1 1318.7c-0.5 0-1-0.1-1.4-0.4-0.5-0.4-0.9-1-0.9-1.7l-46.3-532.3c-0.5-6.4 0.4-12.9 2.6-18.9l55.2-148.8c3.4-9.1 11.1-15.6 20.8-17.2 9.6-1.6 19 1.9 25.2 9.4l103.9 126.1c5.8 7 9.3 15.6 9.9 24.7l79 499.5c0.2 1.2-0.5 2.3-1.7 2.6l-245.8 57q-0.3 0-0.5 0zm34.5-715.1q-1.9 0-3.8 0.3c-8 1.3-14.5 6.7-17.3 14.3l-55.1 148.8c-2 5.4-2.8 11.2-2.3 16.9l46 529.7 241.2-55.9-78.7-497.6c-0.6-8.4-3.7-16-8.9-22.4l-103.9-126c-4.3-5.2-10.5-8.1-17.2-8.1z"/><path  d="m390.9 1297.5c-1.2 0-2.2-0.9-2.3-2.1l-32-531.5q0-0.1 0-0.3l6.2-137.9c0.3-6.6 5.3-10.3 10-11 4.7-0.7 10.5 1.4 12.7 7.7l50.2 144q0 0.1 0 0.3l80.3 490.6c0.2 1.3-0.6 2.4-1.9 2.6-1.2 0.2-2.4-0.6-2.6-1.9l-80.2-490.3-50.1-143.8c-1.4-4.1-5.1-5.1-7.7-4.7-2.7 0.4-5.9 2.4-6.1 6.7l-6.2 137.8 32 531.4c0.1 1.2-0.9 2.3-2.1 2.4q-0.1 0-0.2 0z"/><path class="a" d="m770.8 1188.5l-102.7-500.5c-1.8-8.5-6.1-16.2-12.4-22.1l-119.4-111.4c-13.9-13-36.7-6-40.9 12.6l-35.3 154.7c-1.4 5.9-1.4 12.1-0.1 18l115.2 521.8z"/><path fill-rule="evenodd" d="m575.2 1263.9q-0.6 0-1.1-0.3c-0.6-0.3-1-0.8-1.2-1.5l-115.1-521.8c-1.4-6.2-1.4-12.8 0.1-19l35.3-154.7c2.2-9.6 9-16.9 18.4-19.8 9.3-2.9 19.1-0.6 26.3 6.1l119.4 111.4c6.7 6.2 11.2 14.2 13 23.2l102.8 500.5c0.2 1.1-0.4 2.2-1.5 2.6l-195.6 73.2q-0.4 0.1-0.8 0.1zm-55.6-713.8q-3.4 0-6.7 1c-7.8 2.4-13.5 8.6-15.3 16.5l-35.3 154.7c-1.3 5.6-1.3 11.5-0.1 17l114.6 519.3 191.4-71.6-102.4-498.6c-1.6-8-5.6-15.2-11.6-20.8l-119.4-111.4c-4.3-4-9.7-6.1-15.2-6.1z"/><path class="a" d="m526.8 568.8l68.5 136.1 122.8 501.8-94.4 36.9-102.8-532.3-11.8-137.5c-0.9-10.3 13.1-14.3 17.7-5z"/><path fill-rule="evenodd" d="m623.7 1245.8q-0.6 0-1.1-0.2c-0.6-0.4-1-0.9-1.2-1.6l-102.7-532.3q-0.1-0.1-0.1-0.2l-11.8-137.5c-0.5-6.6 3.9-10.9 8.5-12.2 4.6-1.4 10.6 0 13.6 5.9l68.5 136.2q0.1 0.3 0.1 0.5l122.8 501.8c0.3 1.1-0.3 2.2-1.4 2.6l-94.4 36.9q-0.4 0.1-0.8 0.1zm-100.6-534.8l102.3 529.5 90-35.2-122.2-499.6-68.4-135.9c-1.9-3.9-5.7-4.4-8.3-3.7-2.6 0.8-5.5 3.2-5.1 7.5z"/><path class="a" d="m1124.5 1230.7l73.6-431.7c1.3-7.3-0.2-14.6-4.1-20.9l-73.9-119.1c-8.6-13.9-32.3-13.7-42.5 0.4l-85.5 117.4c-3.3 4.5-5.4 9.5-6.2 14.7l-69.2 452z"/><path fill-rule="evenodd" d="m916.7 1245.8c-0.7 0-1.3-0.3-1.7-0.7-0.5-0.6-0.7-1.2-0.6-1.9l69.2-452c0.9-5.5 3.2-10.9 6.6-15.7l85.5-117.4c5.5-7.6 15.2-12 25.2-11.7 9.1 0.4 17 4.6 21.2 11.4l73.9 119.1c4.2 6.8 5.7 14.6 4.4 22.5l-73.6 431.7c-0.2 1-1.1 1.8-2.1 1.9l-207.9 12.8q0 0-0.1 0zm183.1-594.8c-8.2 0-15.9 3.6-20.4 9.7l-85.5 117.5c-3 4.2-5 8.9-5.8 13.6l-68.7 449.3 203.2-12.6 73.3-429.9c1.1-6.8-0.2-13.4-3.8-19.3l-73.9-119.1c-3.5-5.6-9.8-8.9-17.4-9.2q-0.5 0-1 0zm24.7 579.7h0.1z"/><path class="a" d="m1106.4 668.3l17.9 127.1-55.3 437.5-100.8 7.5 84.3-457.6 35.6-114.7c2.7-8.6 17.1-8.4 18.3 0.2z"/><path fill-rule="evenodd" d="m968.2 1242.7c-0.7 0-1.3-0.3-1.7-0.8-0.5-0.5-0.7-1.2-0.6-1.9l84.4-457.6q0-0.1 0-0.2l35.7-114.7c1.8-6.1 7.9-8.4 12.8-8 5.3 0.5 9.2 3.8 9.9 8.5l17.9 127.1q0 0.3 0 0.6l-55.3 437.5c-0.2 1.1-1 1.9-2.1 2l-100.8 7.5q-0.1 0-0.2 0zm86.5-459.3l-83.7 454.5 96-7.1 55-435.4-17.8-126.8c-0.5-3-3.3-4.3-5.7-4.5-3.2-0.3-7.1 1.1-8.2 4.7z"/><path class="a" d="m945.9 1197.7l92.7-639c1.6-10.8-0.2-21.8-5.2-31.5l-94.1-183.7c-11-21.4-41-22.9-54-2.6l-108.4 168.7c-4.2 6.5-6.9 13.8-7.8 21.4l-87.2 669.7z"/><path fill-rule="evenodd" d="m681.9 1203c-0.6 0-1.2-0.3-1.7-0.8-0.4-0.5-0.6-1.1-0.5-1.8l87.1-669.7c1-7.9 3.8-15.6 8.2-22.3l108.4-168.7c6.5-10.2 17.7-16 29.8-15.4 12.1 0.6 22.6 7.4 28.1 18.2l94.1 183.7c5.2 10.2 7.1 21.5 5.5 32.8l-92.7 639.1c-0.2 1.1-1.1 1.9-2.3 1.9l-263.9 3q-0.1 0-0.1 0zm229.6-874.2c-9.9 0-18.9 4.9-24.3 13.3l-108.4 168.8c-4 6.1-6.6 13.2-7.5 20.4l-86.8 667.1 259.4-2.9 92.5-637.1c1.5-10.4-0.2-20.8-5-30.1l-94.1-183.7c-4.8-9.4-13.9-15.2-24.3-15.7q-0.8-0.1-1.5-0.1zm34.4 868.9z"/><path class="a" d="m921.9 356.4l23 191.3-69.5 649.1-128.1 3.3 106.4-676.8 45-168.6c3.4-12.6 21.7-11.3 23.2 1.7z"/><path fill-rule="evenodd" d="m747.3 1202.3c-0.6 0-1.2-0.2-1.7-0.7-0.4-0.5-0.6-1.2-0.5-1.9l106.3-676.8q0-0.1 0.1-0.2l45-168.5c2.1-7.8 8.9-10.9 14.7-10.5 5.7 0.4 12 4.4 13 12.4l22.9 191.3q0.1 0.2 0 0.5l-69.4 649.1c-0.2 1.1-1.1 2-2.2 2l-128.1 3.3q0 0-0.1 0zm108.6-678.5l-105.9 673.9 123.4-3.2 69.2-646.8-22.9-191c-0.7-5.8-5.2-8.2-8.9-8.5-3.6-0.2-8.4 1.5-9.9 7.1z"/><path class="a" d="m1151.6 1308.8l136.5-299.7c2.7-4.9 3.9-10.5 3.3-16.1l-11.2-105.7c-1.3-12.3-15.4-18.6-25.4-11.3l-83.4 61c-3.2 2.4-5.8 5.4-7.7 8.9l-166 305.6z"/><path fill-rule="evenodd" d="m1151.6 1311.1q-0.4 0-0.8-0.2l-153.9-57.3c-0.6-0.2-1.1-0.7-1.3-1.3-0.3-0.6-0.2-1.3 0.1-1.9l166-305.6c2-3.8 4.9-7.1 8.4-9.6l83.3-61c5.4-3.9 12.2-4.6 18.3-2 6.1 2.7 10.1 8.3 10.8 14.9l11.2 105.7c0.6 6.1-0.6 12.1-3.6 17.4l-136.4 299.5c-0.4 0.9-1.2 1.4-2.1 1.4zm-150.7-60.8l149.5 55.6 135.6-297.7c2.6-4.7 3.7-9.8 3.1-14.9l-11.1-105.7c-0.6-5-3.6-9.2-8.2-11.2-4.5-2-9.7-1.5-13.7 1.5l-83.4 61c-2.9 2.1-5.3 4.9-7 8z"/><path  d="m1113.4 1281.9q-0.5 0-0.9-0.2c-1.2-0.5-1.7-1.8-1.2-3l131.6-293 24.4-96c0.6-2.2-0.7-3.7-2.1-4.4-1.4-0.6-3.3-0.7-4.7 1.2l-52.8 72.6-169.3 292.9c-0.6 1.1-2 1.4-3.1 0.8-1.1-0.6-1.5-2-0.8-3.1l169.3-293q0.1-0.1 0.1-0.2l52.9-72.7c2.4-3.3 6.6-4.4 10.3-2.6 3.8 1.8 5.6 5.6 4.6 9.6l-24.4 96.2q-0.1 0.2-0.2 0.4l-131.6 293.2c-0.4 0.8-1.2 1.3-2.1 1.3z"/><path class="a" d="m1109.1 1316.5l-154.9-127.7-105.2 1-42.2-32.8-40.6-256.6c-0.4-5.9-2.6-11.4-6.4-16l-70.7-85.8c-8.3-10.1-24.3-7.4-28.8 4.8l-37.6 101.4c-1.4 3.9-2 8.1-1.7 12.2l18.2 208.7-18.1 5.1-32.6 139-267-54.6-61.7 92.8 163.3 89.5 100.9 62.5 67.5-10.7 45.8-7.9 41.9 5.6 99-36.6 59.7 9 29.8-64.7 129.9-6.7 149.2 68.6 26.2-41z"/><path fill-rule="evenodd" d="m524 1462.2q-0.6 0-1.2-0.3l-100.9-62.5-163.2-89.4c-0.6-0.3-1-0.8-1.2-1.5-0.1-0.6 0-1.2 0.4-1.8l61.7-92.8c0.5-0.8 1.4-1.2 2.3-1l264.9 54.2 32.1-136.8c0.2-0.8 0.8-1.5 1.6-1.7l16.3-4.6-18-206.8c-0.4-4.4 0.2-9 1.8-13.2l37.6-101.4c2.4-6.5 7.9-11 14.7-12.2 6.8-1.1 13.5 1.4 17.9 6.7l70.8 85.9c4.1 4.9 6.4 10.9 6.9 17.2l40.4 255.5 40.9 31.8 104.4-1c0.5-0.1 1 0.2 1.4 0.5l154.9 127.7q0.1 0.1 0.1 0.1l64 59.1c0.8 0.7 0.9 2 0.4 2.9l-26.3 41.1c-0.6 0.9-1.8 1.3-2.9 0.8l-148.6-68.4-128 6.6-29.3 63.5c-0.4 0.9-1.4 1.4-2.4 1.3l-59-9-98.5 36.4q-0.5 0.2-1.1 0.2l-41.5-5.6-45.5 7.8-67.5 10.7q-0.2 0-0.4 0zm-261-155l161.2 88.3 100.3 62.1 66.6-10.6 45.8-7.8q0.4-0.1 0.7 0l41.4 5.5 98.4-36.4q0.6-0.2 1.2-0.1l57.9 8.7 29.1-63.1c0.4-0.8 1.1-1.3 1.9-1.4l130-6.7q0.6 0 1.1 0.2l147.3 67.8 24.2-37.8-62.5-57.7-154.2-127.2-104.4 1q0 0 0 0c-0.5 0-1-0.1-1.4-0.4l-42.2-32.8c-0.4-0.4-0.7-0.9-0.8-1.5l-40.6-256.5c-0.4-5.6-2.5-10.7-5.9-14.9l-70.8-85.9c-3.4-4.1-8.5-6-13.7-5.1-5.2 0.9-9.3 4.4-11.2 9.3l-37.6 101.4c-1.3 3.6-1.8 7.4-1.5 11.2l18.1 208.7c0.1 1.1-0.6 2.1-1.6 2.4l-16.8 4.7-32.3 137.7c-0.2 1.2-1.4 1.9-2.6 1.7l-265.6-54.3z"/><path class="a" d="m770.3 1239.7l-54.7-334.3-34.2-98.1c-2.3-6.6-12.1-5.2-12.4 1.9l-4.3 93.9 48 351.2 37.8 26.5z"/><path fill-rule="evenodd" d="m750.5 1283.1c-0.5 0-1-0.2-1.4-0.4l-37.7-26.6c-0.5-0.3-0.8-0.9-0.9-1.5l-48-351.2q-0.1-0.2-0.1-0.4l4.3-93.9c0.2-4.3 3.2-7.6 7.4-8.2 4.2-0.7 8 1.6 9.4 5.7l34.2 98.1q0.1 0.2 0.1 0.4l54.7 334.3c0.1 0.4 0 0.9-0.2 1.3l-19.8 41.1c-0.3 0.6-0.8 1-1.5 1.2q-0.3 0.1-0.5 0.1zm-35.6-30.1l34.7 24.4 18.3-38-54.5-333.4-34.2-97.9c-0.8-2.4-2.8-3-4.5-2.7-1.6 0.2-3.4 1.4-3.5 3.9l-4.2 93.7z"/><path class="a" d="m82.4 908.3l125.8 472.1h45.7l-80-410.2z"/><path fill-rule="evenodd" d="m253.9 1382.7h-45.7c-1 0-1.9-0.7-2.2-1.7l-125.8-472.1c-0.2-0.9 0.1-1.9 0.9-2.4 0.8-0.6 1.8-0.6 2.6-0.1l91.5 62c0.5 0.3 0.8 0.8 0.9 1.4l80.1 410.2c0.1 0.6-0.1 1.3-0.5 1.8-0.5 0.6-1.1 0.9-1.8 0.9zm-44-4.6h41.3l-79.4-406.5-85.6-58z"/><path class="a" d="m168.2 976.5l162.9-16.3 77.2 399.3-154.4 22.9z"/><path fill-rule="evenodd" d="m253.9 1384.7c-1 0-2-0.8-2.2-1.8l-85.8-405.9c-0.1-0.7 0-1.3 0.4-1.8 0.4-0.6 1-0.9 1.6-1l163-16.3c1.1-0.1 2.2 0.7 2.4 1.9l77.2 399.3c0.1 0.6 0 1.2-0.4 1.7-0.3 0.5-0.9 0.9-1.5 1l-154.3 22.8q-0.2 0.1-0.4 0.1zm-83-406.2l84.8 401.3 149.9-22.2-76.3-394.9z"/><path class="a" d="m331.1 960.2l77.2 399.3 45.7-17.1-82.9-445.3z"/><path fill-rule="evenodd" d="m408.3 1361.8q-0.6 0-1.1-0.3c-0.6-0.3-1-0.9-1.2-1.5l-77.1-399.4c-0.1-0.5 0-1.1 0.3-1.6l40-63.1c0.5-0.8 1.4-1.2 2.3-1 1 0.1 1.7 0.9 1.8 1.8l82.9 445.3c0.2 1-0.4 2.1-1.4 2.5l-45.7 17.2q-0.4 0.1-0.8 0.1zm-74.8-401.1l76.5 395.7 41.4-15.5-81.5-437.7z"/><path class="a" d="m136.7 834l-54.3 75.3 85.8 67.2 162.9-16.3 40-63.1-88.6-69.2z"/><path fill-rule="evenodd" d="m168.2 978.8c-0.5 0-1-0.2-1.4-0.5l-85.8-67.2c-0.9-0.8-1.1-2.1-0.4-3.1l54.3-75.4c0.4-0.5 1-0.9 1.7-0.9l145.8-6.1q0.9 0 1.5 0.5l88.6 69.2c0.9 0.7 1.2 2 0.5 3l-40 63.1c-0.4 0.6-1 1-1.7 1.1l-162.9 16.3q-0.1 0-0.2 0zm-82.7-69.9l83.3 65.2 161-16 38.3-60.5-86.3-67.4-143.9 6z"/><path class="a" d="m404.8 942.8l-26.9 439.1 39 13 48.2-372.9z"/><path fill-rule="evenodd" d="m416.9 1397.1q-0.4 0-0.7-0.1l-39-13c-1-0.3-1.6-1.2-1.6-2.3l27-439c0-1 0.7-1.8 1.6-2.1 0.9-0.2 1.9 0.1 2.4 0.8l60.3 79.2c0.4 0.5 0.6 1.1 0.5 1.7l-48.2 372.8c-0.1 0.7-0.5 1.3-1.1 1.7q-0.6 0.3-1.2 0.3zm-36.6-16.8l34.7 11.5 47.7-369.2-56-73.5z"/><path class="a" d="m458.9 1024.4l143.5 32.3-47.4 362.4-138.1-24.2z"/><path class="a" d="m472.5 894l-67.7 48.8 54.1 81.6 143.5 32.3 52.1-42.4-56-84.2z"/><path fill-rule="evenodd" d="m602.4 1059q-0.2 0-0.5 0l-143.5-32.4c-0.6-0.1-1.1-0.4-1.4-0.9l-54.1-81.6c-0.6-1.1-0.4-2.4 0.6-3.1l67.7-48.9c0.5-0.4 1.3-0.5 1.9-0.3l126.1 36.1c0.5 0.2 0.9 0.5 1.2 0.9l56 84.2c0.6 1 0.4 2.3-0.5 3l-52 42.5c-0.4 0.3-0.9 0.5-1.5 0.5zm-142.1-36.6l141.6 31.9 49.5-40.5-54.3-81.7-124.2-35.6-65 46.9z"/><path class="a" d="m674.2 1356c-39.2 0.4-53 49-74.8 57.3l55.1-399-52.1 42.4-41.5 317c-9.5-22.7-22.3-50.8-51.4-72.9-11.4-8.7-23.9-13.4-49-23-56.1-21.5-77.7-14-97.9-36.9-16.9-19-9.4-32.8-26.7-46-5.5-4.1-22-14.7-71.3-4.6-69.8 14.4-83 45.3-111.3 36.8-39.2-11.7-40.9-79.3-62.3-78.2-18.2 0.9-32.3 50.5-35.6 87.4-1.6 17-6.3 92.3 40 151.9 35.6 45.8 87.8 65.1 178.1 78.3 188.6 27.4 454.3 14.6 463-50.7 3.5-25.5-32.4-60.1-62.3-59.8z"/><path fill-rule="evenodd" d="m470.7 1482.3c-66.6 0-136.3-4.7-197.5-13.6-97-14.1-145.7-35.5-179.6-79.1-45.2-58.2-42.4-132.2-40.5-153.5 3.3-36.5 17.2-88.4 37.8-89.5 11.1-0.5 17.1 13.5 24.1 29.8 8.1 18.8 18.2 42.3 39 48.6 13.2 3.9 22.7-1.2 38.4-9.8 15.5-8.4 36.6-19.9 71.8-27.1 34.6-7.1 59.2-5.5 73 5 9.7 7.4 12.2 15 14.7 23.1 2.3 7.1 4.7 14.5 12.4 23.2 11.5 13.1 23.4 15.8 43.1 20.3 13.8 3.2 30.9 7.1 53.9 15.9 25.3 9.7 37.9 14.5 49.6 23.4 25.8 19.5 38.7 43.1 48.9 66.2l40.4-308.8c0.1-0.5 0.4-1.1 0.8-1.4l52-42.5c0.8-0.6 1.8-0.7 2.6-0.2 0.8 0.4 1.3 1.4 1.1 2.3l-54.4 394.7c6.4-4 12.4-11.7 18.8-19.8 13-16.7 27.8-35.5 53.1-35.8q0.2 0 0.4 0c16.3 0 35.7 10.1 49.6 25.8 10.8 12.2 16.1 25.6 14.6 36.6-1.2 8.8-6.6 16.8-16.1 24-38.5 29.1-140.8 42.2-252 42.2zm-379.2-331.1q-0.2 0-0.4 0c-15.2 0.8-29.9 45.6-33.5 85.3-1.8 20.9-4.6 93.4 39.6 150.3 33.1 42.5 80.9 63.5 176.7 77.4 162.3 23.6 385.4 18 446-27.7 8.5-6.4 13.4-13.5 14.4-21 1.3-9.7-3.6-21.8-13.5-33-13.1-14.7-31.1-24.2-46.2-24.2q-0.2 0-0.4 0c-23 0.2-37.1 18.2-49.5 34-8 10.1-15.5 19.7-24.4 23.1-0.8 0.3-1.6 0.2-2.3-0.3-0.6-0.5-0.9-1.3-0.8-2.1l54.2-393.3-46.8 38.2-41.4 316.1c-0.1 1.1-0.9 1.9-2 2-1 0.1-2-0.4-2.4-1.4-10.4-24.9-22.9-51-50.7-72-11.1-8.4-23.6-13.2-48.4-22.7-22.7-8.7-39.7-12.6-53.3-15.7-19.9-4.6-33.1-7.6-45.5-21.7-8.3-9.5-11-17.7-13.3-25-2.5-7.6-4.6-14.3-13.1-20.8-15.9-12-46.5-8.9-69.4-4.2-34.5 7.2-55.3 18.5-70.5 26.7-15.6 8.5-26.9 14.6-41.9 10.1-22.8-6.8-33.4-31.4-41.9-51.2-6.2-14.4-11.6-26.9-19.3-26.9zm582.7 204.8z"/><path class="a" d="m1403 1302.5l61.5 27.5-83.8 141.8-41.2 4.2z"/><path class="a" d="m1339.5 1476l80.3-140.4-16.8-33.1-56.5-12.4 69.2-120.1-106.9-132.5-132 66.3-62.9 87-50.3 4.1-62.8-99.4-43.8 66.3-31.1 37.3v44.4l-87.6 17.7-31.9 49.7 68.9 111.8 131.9 16.6-31.5 29 119.4 53.8z"/><path fill-rule="evenodd" d="m1095.1 1524.4q-0.5 0-0.9-0.2l-119.5-53.8c-0.7-0.4-1.2-1-1.3-1.8-0.1-0.7 0.2-1.5 0.7-2l27.9-25.7-127-15.9c-0.7-0.1-1.3-0.5-1.7-1.1l-68.9-111.8c-0.4-0.8-0.4-1.7 0-2.4l32-49.7c0.3-0.6 0.9-0.9 1.5-1l85.7-17.3v-42.6c0-0.6 0.2-1.1 0.5-1.5l31.1-37.2 43.7-66.1c0.4-0.7 1.1-1 1.9-1.1 0.7 0 1.5 0.4 1.9 1.1l62.1 98.2 47.9-3.9 62.3-86.2q0.3-0.4 0.8-0.7l132-66.2c1-0.5 2.1-0.3 2.8 0.6l106.9 132.5c0.5 0.7 0.6 1.7 0.2 2.6l-67.7 117.4 53.5 11.6c0.6 0.2 1.2 0.6 1.5 1.2l16.8 33.1c0.4 0.7 0.4 1.5 0 2.2l-80.3 140.4c-0.3 0.6-0.9 1-1.6 1.2l-244.4 46.1q-0.2 0-0.4 0zm-115.4-56.8l115.7 52.2 242.7-45.8 79.1-138.5-15.8-31-55.4-12.2c-0.7-0.1-1.3-0.6-1.6-1.3-0.3-0.6-0.3-1.4 0.1-2l68.4-118.8-104.7-129.8-129.9 65.2-62.5 86.5c-0.4 0.5-1 0.9-1.7 0.9l-50.3 4.2c-0.8 0-1.6-0.4-2.1-1.1l-61-96.4-41.8 63.3q-0.1 0.1-0.1 0.2l-30.7 36.7v43.6c0 1.1-0.7 2-1.8 2.2l-86.6 17.5-30.7 47.7 67.6 109.7 130.9 16.4c0.8 0.1 1.6 0.8 1.8 1.6 0.3 0.8 0.1 1.8-0.6 2.4zm359.8 8.4z"/><path class="a" d="m805.8 1310.9l74.7 32 41.9 84.7-47.4-4.9z"/><path fill-rule="evenodd" d="m922.4 1429.9q-0.1 0-0.3 0l-47.3-4.9c-0.7-0.1-1.4-0.5-1.7-1.1l-69.2-111.8c-0.5-0.9-0.4-1.9 0.2-2.7 0.7-0.7 1.7-1 2.6-0.6l74.7 32c0.5 0.3 0.9 0.6 1.1 1.1l41.9 84.7c0.4 0.7 0.3 1.6-0.2 2.3-0.4 0.6-1.1 1-1.8 1zm-46.1-9.3l42.2 4.3-39.7-80.2-67.2-28.9z"/><path class="a" d="m923.8 1199.1l37.7 16.8 39.3-120.4z"/><path fill-rule="evenodd" d="m961.5 1218.2q-0.5 0-0.9-0.2l-37.8-16.9c-0.6-0.2-1.1-0.8-1.2-1.5-0.2-0.6-0.1-1.3 0.3-1.9l77-103.6c0.7-0.8 1.9-1.1 2.9-0.6 1 0.5 1.5 1.6 1.1 2.7l-39.2 120.4c-0.2 0.6-0.7 1.1-1.3 1.4q-0.4 0.2-0.9 0.2zm-34.2-20.1l32.8 14.7 34.2-104.8z"/><path class="a" d="m1176.8 1103.8l-28.1 91.8-34.8-4.8z"/><path fill-rule="evenodd" d="m1148.7 1197.9q-0.1 0-0.3 0l-34.8-4.9c-0.8-0.1-1.5-0.6-1.8-1.3-0.3-0.8-0.2-1.6 0.3-2.3l62.9-87c0.6-0.9 1.8-1.2 2.8-0.7 1 0.5 1.5 1.7 1.2 2.7l-28.1 91.9c-0.3 1-1.2 1.6-2.2 1.6zm-30.7-8.9l29.1 4.1 23.5-76.9z"/><path class="a" d="m1308.8 1037.5l-3.6 99.2-53.1 101.3-69.8-3.7 53.1-5.5 53.1-99.4z"/><path fill-rule="evenodd" d="m1252.1 1240.3q0 0-0.1 0l-69.8-3.7c-1.2-0.1-2.2-1-2.2-2.2 0-1.2 0.9-2.2 2-2.4l51.9-5.4 52.4-98 20.3-91.6c0.3-1.1 1.3-1.9 2.5-1.8 1.2 0.2 2 1.2 2 2.4l-3.6 99.2q0 0.5-0.2 1l-53.1 101.2c-0.4 0.8-1.2 1.3-2.1 1.3zm-40.7-6.7l39.4 2 52.2-99.5 2.6-73.8-14.9 67.6q-0.1 0.3-0.2 0.5l-53.1 99.5c-0.4 0.6-1 1.1-1.8 1.1z"/><path class="a" d="m1025.8 1131.2l72.6 116-16.7 84.7 13.4 190.2-52.6-188.4 30.8-92z"/><path fill-rule="evenodd" d="m1095.1 1524.4c-1 0-1.9-0.7-2.2-1.7l-52.5-188.4q-0.2-0.6 0-1.3l30.5-91.2-47.2-109.7c-0.5-1.1 0-2.3 1-2.9 1.1-0.6 2.4-0.2 3 0.8l72.7 116c0.3 0.5 0.4 1.1 0.3 1.6l-16.7 84.4 13.3 190c0.1 1.1-0.7 2.2-1.8 2.4q-0.2 0-0.4 0zm-50.2-190.6l46.3 166.1-11.8-167.9q0-0.3 0-0.6l16.6-83.8-56.4-90.1 35.8 83.3c0.2 0.5 0.2 1.1 0 1.6z"/><path class="a" d="m1143.2 1258.2l47.5 68.2-89.5 185.9 131.4-185.9z"/><path fill-rule="evenodd" d="m1101.2 1514.6q-0.6 0-1.1-0.3c-1-0.6-1.4-1.9-0.9-3l88.8-184.7-46.7-67.1c-0.7-0.9-0.5-2.1 0.3-2.9 0.8-0.8 2-0.8 2.9-0.2l89.5 68.1c0.9 0.8 1.1 2.2 0.4 3.2l-131.3 185.9c-0.5 0.6-1.2 1-1.9 1zm52.1-245.8l39.2 56.3c0.5 0.6 0.6 1.5 0.2 2.2l-77.6 161.5 114.4-162z"/><path class="a" d="m1415.7 1170l-69.2 120.1-88.8 104.4-16.7 101.2-8.4-108.6 100.6-110.4z"/><path fill-rule="evenodd" d="m1241 1498q-0.1 0-0.1 0c-1.2 0-2.1-0.9-2.2-2.1l-8.4-108.6c0-0.6 0.2-1.3 0.6-1.7l100.6-110.5 82.4-106.5c0.7-0.9 2.1-1.1 3.1-0.5 0.9 0.7 1.3 2 0.7 3.1l-69.3 120q-0.1 0.2-0.2 0.4l-88.3 103.9-16.7 100.6c-0.2 1.1-1.1 1.9-2.2 1.9zm-6.1-110.1l6.9 88.9 13.7-82.7q0.1-0.6 0.5-1.1l88.6-104.2 52.4-90.9-62 80.1z"/><path fill-rule="evenodd" d="m939.1 455.3c106.2 0 192.2 86.9 192.2 194.1 0 107.1-86 194-192.2 194-106.2 0-192.2-86.9-192.2-194 0-107.2 86-194.1 192.2-194.1zm0 362.5c92.2 0 166.9-75.4 166.9-168.4 0-93.1-74.7-168.5-166.9-168.5-92.2 0-166.9 75.4-166.9 168.5 0 93 74.7 168.4 166.9 168.4z"/><path  d="m762.2 892.9c5.3 3.9 12.9 2.8 16.8-2.7l56.2-77.3-19.5-14.4-56.1 77.3c-4 5.5-2.8 13.1 2.6 17.1z"/><path class="a" d="m144.8 1671.8l-45.1 35.7-33.6-40.6 46.2-34.5z"/><path fill-rule="evenodd" d="m99.7 1709.8c-0.7 0-1.3-0.3-1.8-0.8l-33.5-40.7c-0.4-0.4-0.6-1.1-0.5-1.7 0-0.6 0.4-1.2 0.9-1.5l46.1-34.5c1-0.7 2.4-0.5 3.1 0.4l32.5 39.3c0.4 0.5 0.6 1.1 0.5 1.7 0 0.6-0.3 1.2-0.8 1.6l-45.1 35.7c-0.4 0.4-0.9 0.5-1.4 0.5zm-30.3-42.5l30.6 37.1 41.5-32.9-29.6-35.9z"/><path class="a" d="m399.9 1721.2l-1.7 31.4h-52.4l3.3-31.4z"/><path fill-rule="evenodd" d="m398.2 1754.8h-52.4c-0.6 0-1.3-0.2-1.7-0.7-0.4-0.5-0.6-1.1-0.6-1.8l3.4-31.3c0.1-1.2 1.1-2.1 2.2-2.1h50.8c0.6 0 1.2 0.3 1.6 0.7 0.5 0.5 0.7 1.1 0.7 1.7l-1.7 31.4c-0.1 1.2-1.1 2.1-2.3 2.1zm-49.9-4.5h47.8l1.4-26.8h-46.3z"/><path class="a" d="m396.2 1751.4h-48.7c-3.5 0-6.6 2.1-7.9 5.4-4.3 10.6-13.1 35.3-11.9 58.8 0.3 6.4 5.6 11.4 12 11.4h142.8c6.6 0 11.5-6 10.2-12.5-1.5-7.8-7-18-22.6-27.2-25.4-14.9-57.3-29.8-67.3-34.4-2.1-1-4.3-1.5-6.6-1.5z"/><path fill-rule="evenodd" d="m482.5 1829.3h-142.8c-7.6 0-13.9-6-14.3-13.6-1.2-24.2 8.1-49.9 12.1-59.8 1.7-4.1 5.6-6.7 10-6.7h48.7c2.6 0 5.1 0.5 7.5 1.6 9.4 4.3 41.9 19.5 67.5 34.5 16.8 9.9 22.2 21.1 23.8 28.7 0.7 3.8-0.2 7.7-2.7 10.6-2.4 3-6 4.7-9.8 4.7zm-135-75.6c-2.5 0-4.8 1.5-5.8 3.9-3.9 9.7-12.9 34.6-11.7 57.9 0.2 5.2 4.5 9.3 9.7 9.3h142.8c2.4 0 4.7-1.1 6.3-3 1.6-2 2.2-4.4 1.7-6.9-1.4-6.7-6.2-16.6-21.6-25.7-25.4-14.9-57.8-30-67.1-34.2q-2.7-1.3-5.6-1.3z"/><path  d="m407.4 1796.3q-0.7 0-1.3-0.4c-1-0.7-1.3-2.1-0.6-3.1l19.4-29.4c0.7-1.1 2.1-1.4 3.1-0.7 1.1 0.7 1.4 2.1 0.7 3.2l-19.4 29.4c-0.5 0.6-1.2 1-1.9 1z"/><path  d="m426.2 1807.5q-0.7 0-1.3-0.4c-1-0.7-1.3-2.1-0.6-3.1l19.4-29.4c0.7-1.1 2.1-1.4 3.1-0.7 1.1 0.7 1.4 2.1 0.7 3.2l-19.4 29.4c-0.5 0.6-1.2 1-1.9 1z"/><path class="a" d="m98.9 1708.5l-30.1-38.6c-2.2-2.8-5.7-3.9-9-3-10.9 3.2-35.7 11.5-53.2 27-4.8 4.3-5.4 11.6-1.5 16.6l88.5 113.2c4 5.2 11.8 5.4 16.1 0.3 5.1-6 9.6-16.7 7.1-34.8-4.1-29.3-12.3-63.8-14.9-74.6-0.6-2.2-1.6-4.3-3-6.1z"/><path fill-rule="evenodd" d="m101.8 1830q-0.1 0-0.2 0c-3.9-0.1-7.4-1.9-9.8-4.9l-88.5-113.2c-4.7-6-3.9-14.7 1.8-19.7 18.1-15.9 43.8-24.5 54-27.5 4.3-1.2 8.7 0.3 11.5 3.8l30.1 38.6c1.6 2 2.8 4.4 3.4 7 2.5 10 10.8 45.2 15 74.8 2.7 19.5-2.7 30.6-7.7 36.6-2.4 2.9-5.9 4.5-9.6 4.5zm-39.7-161.1q-0.9 0-1.7 0.2c-9.9 2.9-34.9 11.2-52.3 26.5-3.9 3.5-4.4 9.4-1.2 13.5l88.5 113.2c1.5 2 3.8 3.1 6.3 3.2 2.4-0.1 4.7-1.1 6.2-2.9 4.4-5.3 9.2-15.3 6.7-33.1-4.2-29.4-12.5-64.3-14.9-74.3q-0.7-3-2.6-5.3l-30.1-38.6c-1.2-1.6-3-2.4-4.9-2.4z"/><path  d="m72.8 1746c-1.2 0-2.2-0.9-2.3-2.1-0.1-1.3 0.8-2.4 2.1-2.5l34.9-2.8c1.2-0.1 2.3 0.9 2.4 2.1 0.1 1.3-0.8 2.4-2.1 2.5l-34.9 2.8q-0.1 0-0.1 0z"/><path  d="m75.7 1767.8c-1.2 0-2.2-0.9-2.3-2.1-0.1-1.2 0.8-2.3 2.1-2.4l34.9-2.9c1.2-0.1 2.3 0.9 2.4 2.1 0.1 1.3-0.8 2.4-2 2.5l-34.9 2.8q-0.1 0-0.2 0z"/><path class="a" d="m284.3 1208.1c0 0-16.7 54.5-22.3 134-5.5 79.5-123.9 169.4-165 290.3l43.6 52.8c0 0 131.7-101.7 156.9-143.8 26.7-44.4 58.8-136.6 58.8-136.6l-22.9-170.3-4-1c-10.5-2.5-20.3-6.4-29.9-11.1-6.4-3.1-11.7-8.1-15.2-14.3z"/><path class="a" d="m297.4 1222.5c0 0-11.5 72 25.1 130.8 36.6 58.8 33.3 119.3 26.6 149.5-6.6 30.2-23.3 121 0 218.4 0 0 23.3 10.1 50.8 0 0 0 70.7-161.3 74-260.4 3.4-99.1-38.2-233.5-38.2-233.5 0 0-83.4 24.9-138.3-4.8z"/><path class="a" d="m743.1 906c-2.3-1.5-3.8-3.9-4.2-6.7-1.4-9.3-3.4-30.9 6.8-43.6 13.2-16.3 35.9-22.8 38.5-18.2 2.6 4.5-30.9 33.9-19.6 51 0 0 10.3 3.3 25.1-9 2-1.7 5.3-0.6 5.7 2.1 0.7 3.7 0.4 9.2-3.7 16.8-5.1 9.6-14.5 16.3-20.4 19.8-3.2 1.8-7.1 1.7-10.2-0.3z"/><path fill-rule="evenodd" d="m766.4 921.8c-2.3 0-4.5-0.7-6.5-2l-18-11.9c-2.8-1.8-4.8-4.9-5.3-8.2-1.4-9.2-3.5-32 7.3-45.4 11.5-14.2 29.4-21.1 37.3-20.5 3 0.2 4.4 1.5 5 2.5 1.6 2.8-1.2 6.6-6.6 14-7.7 10.4-19.2 26.1-13.6 36.2 2.5 0.4 10.8 0.8 22.2-8.7 1.6-1.4 3.8-1.7 5.7-1 2 0.7 3.4 2.4 3.8 4.4 0.6 3.7 0.5 9.9-4 18.3-5.2 9.8-14.5 16.6-21.3 20.6-1.9 1.1-3.9 1.7-6 1.7zm-22-17.7l18 11.9c2.3 1.5 5.3 1.6 7.7 0.2 5.2-3 14.6-9.5 19.6-18.9 3.9-7.2 4-12.3 3.5-15.3-0.1-0.6-0.6-0.9-0.8-0.9-0.2-0.1-0.8-0.3-1.3 0.2-15.5 12.9-26.7 9.5-27.2 9.4-0.5-0.2-0.9-0.5-1.2-1-8.4-12.7 4.6-30.4 13.2-42.1 2.5-3.3 5.5-7.4 6.1-9.1-0.4-0.1-1.3-0.3-3-0.1-7.3 0.6-21.9 6.9-31.5 18.8-9.7 12-7.7 33.2-6.4 41.8 0.3 2.1 1.5 4 3.3 5.1z"/><path class="a" d="m216.6 1163.7c0 0-57.4-5.3-71.8 2.9-14.4 8.2-12.9 18.3-6.7 22.7 4.8 3.4 35 1.2 48.3 0.1 1.1-0.1 1.4 1.3 0.5 1.8-7.7 3.3-20 9.6-18.7 15 2 7.7 50.3-7.7 50.3-7.7z"/><path fill-rule="evenodd" d="m174.3 1210.6c-2.6 0-4.7-0.3-6-1.1-1.5-0.8-2.1-1.9-2.3-2.8-0.4-1.7-1.6-6.7 13.3-14.5-24.5 1.9-38.8 1.5-42.5-1-3.6-2.6-5.6-6.6-5.5-10.8 0.3-5.8 4.7-11.4 12.4-15.8 14.8-8.5 70.7-3.4 73.1-3.2 1.1 0.1 2 1 2 2.2l2 34.7c0 1.1-0.6 2-1.6 2.3-5.9 1.9-31.9 10-44.9 10zm12.2-23.5c1.5 0 2.7 1 3.1 2.4 0.4 1.5-0.4 3.1-1.8 3.8-14.6 6.3-17.7 10.9-17.3 12.4 2.3 2.2 23.1-1.8 45.6-8.9l-1.7-31c-17.1-1.5-57.6-3.4-68.5 2.8-6.3 3.6-9.8 7.9-10 12.1-0.1 2.6 1.1 5.1 3.5 6.7 2.2 1.5 15.7 2.4 46.8-0.3q0.2 0 0.3 0z"/><path  d="m340.8 1113.6c18.9-67.2 48.8-156.8 101-170.2l-0.9-40.8c0 0 93.1 17.3 100.5 70.2 40.9 10.8 85 7.4 124.4-11.8 23.5-11.4 47.7-37.1 71.1-63l38.7 25.2c0 0-80.9 198.2-262.8 143.4 0 0-55.8 41.8-48 146 0 0-73.7 60-174.8 5.4 0 0 31.9-37.2 50.8-104.4z"/><path  d="m207.7 1155.9l4.1 51.2c0 0 142.3 84.6 251-169.7l-93.1-9.5c0 0-32.2 99.7-162 128z"/><path class="a" d="m291.5 1223.6c-1 0-1.9-0.7-2.2-1.8-0.3-1.2 0.5-2.4 1.7-2.7 82.2-19.6 114.6-63.4 140.6-98.6 0.8-1 2.2-1.2 3.2-0.5 1 0.8 1.2 2.2 0.5 3.2-26.5 35.8-59.4 80.4-143.2 100.3q-0.3 0.1-0.6 0.1z"/><path class="a" d="m481.2 1006.2q0 0-0.1 0c-1.2-0.1-2.2-1.1-2.1-2.4 1.9-46.9-20-79.8-20.2-80.2-0.7-1-0.4-2.4 0.6-3.1 1-0.7 2.4-0.5 3.1 0.6 1 1.4 23 34.5 21 82.9 0 1.2-1.1 2.2-2.3 2.2z"/><path class="a" d="m515.5 1065.5c-0.6 0-1.2-0.3-1.6-0.8-0.9-0.9-0.8-2.4 0.1-3.2 23.5-21.1 22.9-43.9 22.9-44.1-0.1-1.3 0.9-2.3 2.1-2.4 1.2 0 2.3 0.9 2.4 2.2 0 1 0.9 25.1-24.3 47.7-0.5 0.4-1 0.6-1.6 0.6z"/><path class="a" d="m556.1 858.9c0 0 25.3-5.3 22.8 11-2.5 16.2-3.4 54.4-16.3 59.1-13 4.7-27.2-13.7-36.2-5.6-8.9 8.2-15.1 20.5-19.5 35.6-2.7 1-8.3 2.5-14.9 0.9-13.4-3.2-18.6-16.5-19.1-17.8 3.3-3.5 6.7-7.7 10.1-12.6 5.4-7.7 11.3-18.1 13.4-28.9z"/><path fill-rule="evenodd" d="m497.8 962.9c-2 0-4.2-0.2-6.4-0.8-14.4-3.5-20.1-17.6-20.7-19.2-0.3-0.8-0.1-1.8 0.5-2.4 3.3-3.5 6.7-7.6 10-12.4 4.7-6.8 10.9-17.1 13-27.9 0.1-0.6 0.5-1.1 0.9-1.4l59.7-41.8q0.4-0.3 0.8-0.4c1.7-0.3 16-3 22.6 3.3 2.7 2.5 3.7 6 3 10.3-0.5 3.2-1 7.4-1.4 11.9-2.1 20-4.8 44.8-16.5 49-7.1 2.6-14.3-0.8-20.7-3.8-6.9-3.3-11.3-5.2-14.6-2.2-8.1 7.4-14.3 18.7-18.9 34.5-0.2 0.7-0.7 1.3-1.4 1.6-2.5 0.8-5.9 1.7-9.9 1.7zm-22.3-20.3c1.6 3.5 6.7 12.6 17 15.1 4.9 1.2 9.4 0.5 12.6-0.5 4.8-16 11.3-27.6 19.8-35.4 5.7-5.3 12.8-1.9 19.7 1.4 5.8 2.7 11.8 5.6 17.2 3.7 9-3.3 11.7-28.6 13.5-45.3 0.4-4.5 0.9-8.8 1.4-12.1 0.4-2.8-0.1-4.9-1.6-6.3-4-3.9-14-3-18.1-2.2l-58.5 41c-2 9-6.5 18.7-13.6 28.8-3.1 4.4-6.2 8.3-9.4 11.8z"/><path  d="m554.1 901.4q-0.4 0-0.8-0.1c-8.8-3.3-11.9-14.3-10.9-23.9 0.8-8.5 4.5-14.5 9.4-15.2 11.1-1.8 14.9 15.3 15.1 16 0.2 1.2-0.6 2.4-1.8 2.7-1.2 0.3-2.4-0.5-2.7-1.7 0-0.2-3.1-13.5-9.9-12.6-2.6 0.4-5 5.3-5.6 11.3-0.7 7.5 1.4 16.7 8 19.1 1.2 0.4 1.8 1.7 1.3 2.9-0.3 0.9-1.2 1.5-2.1 1.5z"/><path  d="m562.1 871.7c0 0 26.1 4.8 25.2-21-0.8-25.7-19.1-51-67.9-40.9 0 0-11.1-33.9-39.4-24.1-28.2 9.8-19.1 54.3 9.2 58.3 0 0-23.7 43.5 6.4 59.4 7.6 4 16.5 4.7 24.9 2.9 8.8-2 20.4-6.4 25-16.4 0 0-4-20.7 3.9-24.9 7.9-4.2 12.7 6.7 12.7 6.7z"/><path  d="m140.6 1687.5c-0.6 0-1.3-0.3-1.7-0.8l-43.6-52.8c-0.5-0.6-0.7-1.4-0.4-2.2 20.1-59.5 59.2-111.9 93.7-158.1 36.7-49.2 68.4-91.7 71.2-131.7 5.5-78.8 22.2-133.9 22.3-134.5 0.3-0.8 1.1-1.5 2-1.6 0.9-0.1 1.8 0.4 2.2 1.2 3.3 5.8 8.2 10.5 14.2 13.4 1.1 0.5 1.6 1.9 1 3-0.5 1.2-1.9 1.6-3 1.1-5.3-2.6-9.8-6.3-13.4-11-4 14.9-16.3 63.6-20.8 128.7-2.9 41.4-34.9 84.3-72 134.1-34.1 45.7-72.7 97.4-92.7 155.7l41.4 50.1c15.6-12.2 131.4-103.2 154.6-141.8 19.1-31.9 41-88.1 52.3-118.8 0.4-1.2 1.8-1.8 2.9-1.4 1.2 0.4 1.8 1.8 1.4 2.9-11.4 30.9-33.4 87.5-52.7 119.6-25.2 41.9-152.1 140.3-157.5 144.4-0.4 0.3-0.9 0.5-1.4 0.5z"/><path fill-rule="evenodd" d="m374.4 1728c-15.1 0-25.5-4.4-26.2-4.7-0.6-0.3-1.1-0.9-1.3-1.6-22.7-94.9-7.6-185 0-219.4 4-18.3 14-83-26.3-147.8-36.7-58.9-25.5-131.6-25.4-132.4 0.1-0.7 0.6-1.3 1.2-1.7 0.7-0.3 1.5-0.3 2.1 0.1 53.4 28.9 135.7 4.8 136.5 4.6 1.2-0.4 2.5 0.3 2.8 1.5 0.5 1.4 41.7 135.9 38.4 234.3-3.3 98.4-73.5 259.6-74.2 261.2-0.3 0.6-0.8 1-1.3 1.2-9.5 3.5-18.5 4.7-26.3 4.7zm-23.3-8.5c4.6 1.7 24.4 7.9 47.1-0.1 5.6-13.1 70.3-164.9 73.5-258.7 3-90.8-32.3-213-37.6-230.6-13.5 3.7-84.2 21.2-134.8-4.1-1.7 14.5-6.3 75.6 25.1 126.1 41.3 66.3 31.1 132.5 26.9 151.2-7.4 33.9-22.3 122.6-0.2 216.2z"/><path class="a" d="m1588.3 583.8h-376.3c-17.9 0-32.4-14.5-32.4-32.4v-117.3c0-17.9 14.5-32.4 32.4-32.4h376.3c17.9 0 32.4 14.5 32.4 32.4v117.3c0 17.9-14.5 32.4-32.4 32.4z"/><path fill-rule="evenodd" d="m1588.3 586.1h-376.3c-19.2 0-34.7-15.6-34.7-34.7v-117.3c0-19.1 15.5-34.7 34.7-34.7h376.3c19.1 0 34.7 15.6 34.7 34.7v117.3c0 19.1-15.6 34.7-34.7 34.7zm-376.3-182.2c-16.7 0-30.2 13.6-30.2 30.2v117.3c0 16.6 13.5 30.1 30.2 30.1h376.3c16.6 0 30.1-13.5 30.1-30.1v-117.3c0-16.6-13.5-30.2-30.1-30.2z"/><path fill-rule="evenodd" d="m1585.7 463.4h-370.5c-1.3 0-2.3-1.1-2.3-2.3v-29.7c0-1.2 1-2.2 2.3-2.2h370.5c1.2 0 2.3 1 2.3 2.2v29.7c0 1.2-1.1 2.3-2.3 2.3zm-368.2-4.6h365.9v-25.1h-365.9z"/><path fill-rule="evenodd" d="m1586.3 510.1h-370.5c-1.3 0-2.3-1-2.3-2.3v-29.6c0-1.3 1-2.3 2.3-2.3h370.5c1.2 0 2.2 1 2.2 2.3v29.6c0 1.3-1 2.3-2.2 2.3zm-368.2-4.5h365.9v-25.1h-365.9z"/><path fill-rule="evenodd" d="m1585.1 555.7h-370.5c-1.2 0-2.3-1-2.3-2.3v-29.6c0-1.3 1.1-2.3 2.3-2.3h370.5c1.3 0 2.3 1 2.3 2.3v29.6c0 1.3-1 2.3-2.3 2.3zm-368.2-4.5h365.9v-25.1h-365.9z"/><path  d="m642.8 1781.4q0 0-0.1 0c-13.6-0.5-27.4-1.1-41-1.9-1.2-0.1-2.2-1.2-2.1-2.4 0.1-1.3 1.2-2.2 2.4-2.2 13.6 0.9 27.3 1.5 40.9 1.9 1.2 0.1 2.2 1.1 2.2 2.4-0.1 1.2-1.1 2.2-2.3 2.2z"/><path  d="m685.9 1782.1q-21.5 0-43.2-0.7c-1.2-0.1-2.2-1.1-2.2-2.4 0.1-1.2 1.1-2.3 2.4-2.2 188.8 6.1 372.4-27.7 517-95 1.1-0.6 2.4-0.1 3 1.1 0.5 1.1 0 2.5-1.1 3-134.2 62.5-301.7 96.2-475.9 96.2z"/><path  d="m678 1729.9c-1.3 0-2.3-1-2.3-2.3 0-1.2 1-2.2 2.2-2.3 136.6-2.1 267.2-26.7 377.9-71.1 1.2-0.5 2.5 0.1 3 1.3 0.4 1.1-0.1 2.5-1.3 2.9-111.2 44.6-242.4 69.3-379.5 71.5q0 0 0 0z"/><path  d="m156 482.1q-0.3 0-0.6-0.1c-1.2-0.3-1.9-1.6-1.6-2.8l4.5-17c0.3-1.2 1.6-2 2.8-1.7 1.2 0.4 1.9 1.6 1.6 2.8l-4.5 17.1c-0.3 1-1.2 1.7-2.2 1.7z"/><path  d="m145.4 521.8q-0.3 0-0.5-0.1c-1.3-0.3-2-1.5-1.7-2.8l4.6-17c0.3-1.2 1.5-1.9 2.7-1.6 1.3 0.3 2 1.5 1.7 2.8l-4.6 17c-0.2 1-1.2 1.7-2.2 1.7z"/><path  d="m141.6 490.4q-0.3 0-0.5-0.1l-17.1-4.5c-1.2-0.3-1.9-1.6-1.6-2.8 0.3-1.2 1.6-1.9 2.8-1.6l17 4.5c1.2 0.3 2 1.6 1.6 2.8-0.2 1-1.2 1.7-2.2 1.7z"/><path  d="m181.4 500.9q-0.3 0-0.6 0l-17.1-4.6c-1.2-0.3-1.9-1.5-1.6-2.7 0.3-1.3 1.6-2 2.8-1.7l17 4.6c1.3 0.3 2 1.5 1.7 2.8-0.3 1-1.2 1.6-2.2 1.6z"/><path fill-rule="evenodd" d="m1254.6 1654.7c-3.1 0-6.3-0.5-9.3-1.7-6.5-2.5-11.6-7.5-14.4-14-5.8-13.4 0.2-28.9 13.2-34.8 6.3-2.8 13.3-3 19.7-0.5 6.5 2.5 11.7 7.5 14.5 14 5.7 13.3-0.2 28.9-13.3 34.8-3.3 1.5-6.9 2.2-10.4 2.2zm0-48.2c-3 0-5.9 0.6-8.6 1.8-10.8 4.9-15.7 17.8-11 28.8 2.4 5.4 6.6 9.6 12 11.7 5.3 2 11 1.8 16.2-0.5 10.8-4.8 15.7-17.7 10.9-28.8-2.3-5.4-6.6-9.5-11.9-11.6-2.5-0.9-5.1-1.4-7.6-1.4zm-9.5-0.2z"/><path  d="m1370.4 254.4c-0.7 0-1.4-0.3-1.8-1-0.4-0.5-37.9-52-122.7-103.5-78.2-47.5-213.8-104.8-415.6-107.6-1.2 0-2.2-1-2.2-2.3 0-1.3 1-2.3 2.3-2.2 202.9 2.8 339.4 60.5 418.1 108.4 85.5 52 123.4 104.1 123.8 104.6 0.7 1 0.5 2.4-0.6 3.2-0.4 0.3-0.8 0.4-1.3 0.4z"/><path  d="m1434.7 260.5c-0.8 0-1.6-0.4-2-1.1-0.3-0.5-31.9-53.9-110.4-111.7-72.5-53.3-200.9-121.4-401.1-143.2-1.3-0.1-2.2-1.2-2-2.5 0.1-1.2 1.2-2.1 2.5-2 201.3 21.9 330.5 90.5 403.5 144.3 79.2 58.3 111.1 112.3 111.4 112.8 0.6 1.1 0.3 2.5-0.8 3.1q-0.6 0.4-1.1 0.3z"/><path  d="m1519.7 297.4c-7.6 0-13-2-16.2-6-4-5-2.9-11-1.8-16.8 1.1-5.4 2.1-10.6-0.9-15.1-3.5-5.4-10.4-6.1-17.6-6.9-8-0.9-16.3-1.7-21-8.9-4.2-6.3-2.7-13.2-1.3-19.4 1.3-5.9 2.4-10.9-1-15-2.9-3.4-7.4-4.1-12.1-4.8-5.6-0.8-11.9-1.7-15.4-7.7-1.9-3.2-2-6-2.2-8.6-0.1-2.5-0.2-4.4-1.8-6.5-2.7-3.2-7.8-4.7-15.1-4.4-1.2 0.1-2.3-0.9-2.4-2.1 0-1.3 0.9-2.4 2.2-2.4 8.8-0.4 15.2 1.6 18.8 6 2.6 3.2 2.8 6.4 2.9 9.2 0.1 2.3 0.2 4.3 1.5 6.4 2.4 4.2 6.9 4.9 12.2 5.6 5.1 0.8 10.9 1.7 14.9 6.4 4.9 5.7 3.4 12.4 1.9 18.9-1.2 5.8-2.5 11.2 0.7 15.9 3.5 5.4 10.4 6.1 17.6 6.9 8.1 0.8 16.3 1.7 21 8.9 4 6 2.7 12.7 1.6 18.5-1 5.2-1.8 9.7 0.9 13.1 3.8 4.7 13.4 5.5 27.7 2.3 1.2-0.3 2.4 0.4 2.7 1.7 0.3 1.2-0.5 2.4-1.7 2.7q-9.3 2.1-16.1 2.1z"/><path class="a" d="m1708.1 1673.4l10.9 76.5h23.6l1.3-75.2z"/><path fill-rule="evenodd" d="m1742.6 1752.2h-23.6c-1.1 0-2.1-0.8-2.2-2l-10.9-76.4c-0.1-0.7 0.1-1.4 0.5-1.9 0.5-0.5 1.1-0.8 1.8-0.7l35.8 1.2c1.2 0.1 2.2 1.1 2.2 2.3l-1.3 75.3c-0.1 1.2-1.1 2.2-2.3 2.2zm-21.6-4.6h19.3l1.3-70.7-30.8-1.1z"/><path class="a" d="m1718.1 1823c11.2 1.2 29.7 2 51.2-1.7 7.1-1.2 11.5-8.2 9.6-15.1-5.4-19.2-17-55.6-31.7-72.1l-3.2 9.3-5.1-8.5c-0.7-1.2-1.9-1.9-3.2-2l-10.7-1c-2.2-0.2-4.2 1.3-4.6 3.5l-1.4 8-4-10.3-7.6 76.8c-0.6 6.5 4.1 12.4 10.7 13.1z"/><path fill-rule="evenodd" d="m1737.3 1826.3c-7.6 0-14.2-0.5-19.5-1-7.7-0.9-13.4-7.9-12.6-15.7l7.5-76.8c0.1-1 0.9-1.9 2-2 1-0.1 2 0.4 2.4 1.4l1.1 2.8c0.6-3.4 3.7-5.7 7.1-5.4l10.6 1c2 0.2 3.9 1.4 5 3.1l2.6 4.4 1.6-4.7c0.2-0.8 0.9-1.4 1.7-1.5 0.8-0.2 1.6 0.1 2.1 0.7 14.9 16.8 26.6 52.9 32.2 73 1.1 3.9 0.5 8-1.7 11.5-2.1 3.4-5.7 5.8-9.7 6.4-11.9 2.1-22.9 2.8-32.4 2.8zm-21-83.5l-6.6 67.3c-0.5 5.3 3.3 10.1 8.6 10.7q0 0 0 0c11.5 1.2 29.6 1.9 50.6-1.7 2.8-0.5 5.2-2.1 6.7-4.5 1.5-2.3 1.9-5.1 1.1-7.8-5.2-18.5-15.6-50.9-28.6-68.1l-1.9 5.5c-0.3 0.8-1 1.4-1.9 1.5-0.9 0.1-1.7-0.3-2.2-1.1l-5.1-8.5c-0.3-0.6-0.9-0.9-1.6-1l-10.6-1c-1-0.1-2 0.7-2.1 1.7l-1.5 8c-0.1 1-1 1.8-2 1.9-1 0.1-1.9-0.5-2.3-1.4z"/><path  d="m1744.8 1813.3c-16.1 0-28.5-3.1-29.3-3.3-1.2-0.3-2-1.5-1.7-2.7 0.4-1.3 1.6-2 2.8-1.7 0.3 0.1 28 6.8 54 0 1.2-0.3 2.5 0.4 2.8 1.6 0.3 1.3-0.4 2.5-1.6 2.8-9.3 2.4-18.6 3.3-27 3.3z"/><path  d="m1754.4 1783.3h-25.3c-1.3 0-2.3-1-2.3-2.2 0-1.3 1-2.3 2.3-2.3h25.3c1.2 0 2.2 1 2.2 2.3 0 1.2-1 2.2-2.2 2.2z"/><path class="a" d="m1508.1 1680.3l-9.8 89.1-37.5 7.8 2.3-104.5z"/><path fill-rule="evenodd" d="m1460.8 1779.5c-0.5 0-1.1-0.2-1.5-0.5-0.5-0.4-0.8-1.1-0.8-1.8l2.3-104.5c0-0.7 0.3-1.3 0.8-1.7 0.5-0.4 1.2-0.6 1.8-0.5l45.1 7.5c1.2 0.2 2 1.3 1.8 2.5l-9.8 89.1c-0.1 1-0.8 1.8-1.8 2l-37.4 7.9q-0.3 0-0.5 0zm4.5-104.1l-2.2 99 33.1-6.9 9.4-85.3z"/><path class="a" d="m1514.1 1816.1c0 0 4.8-42.9-8.6-62.4l-30 10.6v-6.4c0-2-1.5-3.7-3.4-3.8l-16.7-1c-6.2-0.4-12.5 0.9-18.2 3.7-20 9.9-66.1 35.3-64.6 59.6 0 0 36.3 9 141.5-0.3z"/><path fill-rule="evenodd" d="m1429 1822.6c-40.1 0-56-3.7-57-4-1-0.2-1.7-1.1-1.7-2.1-1.5-24.7 40.7-49.3 65.9-61.7 6.1-3 12.8-4.4 19.3-4l16.8 1c3 0.2 5.5 2.9 5.5 6.1v3.2l26.9-9.6c1-0.3 2.1 0 2.6 0.9 13.8 20 9.3 62.2 9.1 64-0.2 1-1 1.9-2.1 2-36.1 3.2-64.1 4.2-85.3 4.2zm-54.2-8c8.3 1.5 47.3 7.2 137.2-0.6 0.7-8.1 2.7-40.7-7.5-57.6l-28.3 10.1c-0.7 0.2-1.4 0.1-2-0.3-0.6-0.4-1-1.1-1-1.9v-6.4c0-0.8-0.5-1.5-1.2-1.6l-16.7-0.9c-5.8-0.4-11.7 0.8-17.1 3.5-14.8 7.3-62.4 32.5-63.4 55.7zm139.3 1.5z"/><path  d="m1463 1809.4c-44.6 0-78.9-6.8-79.3-6.9-1.2-0.2-2-1.4-1.8-2.7 0.3-1.2 1.5-2 2.7-1.7 0.6 0.1 59.1 11.7 122.9 4.3 1.2-0.1 2.3 0.8 2.5 2 0.1 1.3-0.8 2.4-2 2.5-15.6 1.8-30.8 2.5-45 2.5z"/><path  d="m1427.4 1786.8c-0.7 0-1.4-0.3-1.9-1-0.7-1-0.5-2.4 0.5-3.1l28.9-20.8c1-0.7 2.5-0.5 3.2 0.5 0.7 1 0.5 2.5-0.5 3.2l-28.9 20.8c-0.4 0.2-0.9 0.4-1.3 0.4z"/><path class="a" d="m1496.4 1102c0 0-53.8 341.8-42.3 587.9l59.8 1.6c0 0 64.1-347 96.1-409.1 0 0 86.9 316.3 90.3 406.4 0 0 38.7 3.9 54.1-1.7 8.2-86.9 10.7-160.8 11.2-217.3 1.1-161.6-14.3-235-22.8-269.8-7.7-32-16.1-58-22.2-75.6l-20.3-58z"/><path fill-rule="evenodd" d="m1513.9 1693.7q-0.1 0-0.1 0l-59.8-1.5c-1.2-0.1-2.2-1-2.2-2.2-11.3-243.5 41.8-585 42.3-588.4 0.2-0.9 0.9-1.7 1.9-1.9l203.9-35.6c1.1-0.2 2.1 0.5 2.5 1.5l20.4 58.1c8.5 24.7 16 50.2 22.2 75.7 10.4 42.5 24 116.7 22.8 270.4-0.5 71.9-4.3 145.1-11.2 217.6-0.1 0.8-0.6 1.6-1.5 1.9-15.7 5.6-53.5 1.9-55.1 1.8-1.1-0.2-2-1.1-2-2.2-3.1-82-76.7-356-88.6-400-32.2 73.8-92.7 399.6-93.3 403-0.2 1-1.1 1.8-2.2 1.8zm-57.7-6l55.8 1.4c5.7-30.6 65.1-347.8 96-407.8 0.4-0.8 1.3-1.3 2.2-1.2 1 0.1 1.7 0.8 2 1.7 0.8 3.1 85.8 313 90.3 404.9 7.7 0.7 36.3 2.8 49.7-1.3 6.8-71.8 10.6-144.3 11.1-215.6 1.1-153.2-12.4-227.1-22.7-269.3-6.2-25.4-13.6-50.8-22.1-75.4l-19.7-56.2-200.4 35c-4 25.7-52.7 349.5-42.2 583.8z"/><path  d="m1606.8 1277.5c-1 0-1.9-0.7-2.2-1.7l-8.8-34.3-21.5-4.4c-1.2-0.3-2-1.5-1.8-2.7 0.3-1.2 1.5-2 2.7-1.8l22.9 4.8c0.8 0.1 1.5 0.8 1.7 1.6l9.2 35.7c0.3 1.2-0.4 2.4-1.6 2.7q-0.3 0.1-0.6 0.1z"/><path  d="m1501.7 798.7c34.9-3.9 109-10.9 161.1-6.6 16 1.3 31.2 7.6 43.4 17.9 37 31.3 117.2 109.6 118.2 202.2l-82.1-11.9c0 0 29 103.9 27 120.6-2 16.6-52.8 45-116.3 21.8-63.6-23.3-155-20.5-184.7 0l-2.8-128.2h-124.9c0 0 41.3-134.4 121.4-199.3 11.4-9.2 25.1-14.8 39.7-16.5z"/><path class="a" d="m1340.6 1014.5c0 0-9.8 44.7 34.6 58.1 44.5 13.4 86.7-67.4 86.7-67.4l-31-18z"/><path fill-rule="evenodd" d="m1385.5 1076.4c-3.6 0-7.3-0.5-10.9-1.6-45.9-13.9-36.3-60.3-36.2-60.8 0.1-0.8 0.7-1.4 1.5-1.7l90.4-27.2c0.6-0.2 1.2-0.2 1.8 0.2l30.9 17.9c1 0.6 1.4 1.9 0.9 3-1.6 3.1-37.2 70.2-78.4 70.2zm-42.9-60.1c-1.2 7.3-4.9 42.6 33.3 54.1 3.2 1 6.3 1.4 9.5 1.4 34.9 0 67.3-54.8 73.4-65.8l-28.2-16.3z"/><path class="a" d="m1628.7 1116.3h-218.3c-5.6 0-10.4-3.7-11.7-9.1l-44.1-177.7c-1.9-7.6 3.9-15 11.7-15h218.4c5.5 0 10.3 3.8 11.6 9.2l44.1 177.7c1.9 7.6-3.8 14.9-11.7 14.9z"/><path fill-rule="evenodd" d="m1628.7 1118.6h-218.3c-6.6 0-12.3-4.5-13.9-10.9l-44.1-177.7c-1.1-4.3-0.1-8.8 2.6-12.2 2.8-3.5 6.9-5.5 11.3-5.5h218.4c6.5 0 12.3 4.4 13.8 10.8l44.1 177.8c1.1 4.3 0.1 8.7-2.6 12.2-2.7 3.5-6.8 5.5-11.3 5.5zm-262.4-201.8c-3 0-5.8 1.4-7.7 3.8-1.8 2.3-2.5 5.4-1.8 8.3l44.1 177.7c1.1 4.4 5 7.5 9.5 7.5h218.3c3.1 0 5.9-1.4 7.7-3.8 1.9-2.4 2.5-5.4 1.8-8.4l-44.1-177.7c-1-4.3-4.9-7.4-9.4-7.4z"/><path class="a" d="m1370.8 1002.9l6.4 17.8 52.5-25c0 0 28.9 25-41.1 57-29.1 13.3-17.8-49.8-17.8-49.8z"/><path fill-rule="evenodd" d="m1381.3 1056.8q-4 0-7.1-2.4c-12.8-9.9-6.4-47.6-5.6-51.9 0.2-1 1-1.8 2-1.9 1-0.1 2 0.5 2.4 1.5l5.5 15.4 50.3-23.9c0.8-0.4 1.7-0.3 2.4 0.3 0.4 0.3 8.1 7.2 6.5 18.5-2.1 14.4-18.3 28.7-48.1 42.4q-4.5 2-8.3 2zm-9.5-44.5c-1.5 13.4-1.9 33.1 5.2 38.5 2.5 2 6 2 10.7-0.2 35.3-16.1 44.2-30.1 45.5-38.9 0.9-6.6-2.3-11.3-4-13.3l-51 24.3c-0.6 0.3-1.2 0.3-1.8 0.1-0.6-0.3-1.1-0.8-1.3-1.4z"/><path class="a" d="m1679.6 912.4c0 0 98.2 55.1 118.4 72.4 20.3 17.3 42.2 30.4 13.7 68.3-28.5 37.8-150.2-113.7-150.2-113.7 0 0-23.4 3.8-31.5-28 0 0-39.5 1.4-40.9-11l55.6-9.9c7.2-1.3 14.6 1 19.7 6.3z"/><path fill-rule="evenodd" d="m1799.1 1061.4c-40.5 0-128.8-107.6-138.6-119.7-5.3 0.3-24.5-0.8-32.3-28-9.7 0.2-39.9-0.2-41.4-13-0.1-1.2 0.7-2.3 1.9-2.5l55.6-10c8-1.4 16.1 1.2 21.7 7l15 15.4c7 3.9 98.7 55.5 118.5 72.5q2.4 2 4.7 3.9c19 15.8 37 30.8 9.3 67.4-3.4 4.6-8.1 6.9-14.1 7q-0.2 0-0.3 0zm-137.6-124.3c0.7 0 1.3 0.3 1.8 0.8 0.9 1.2 95.9 118.9 135.7 119q0.2 0 0.3 0c4.6-0.1 8-1.8 10.6-5.2 25-33.2 10.2-45.5-8.6-61.2q-2.4-2-4.7-4c-19.9-16.9-117.1-71.6-118.1-72.1q-0.3-0.2-0.5-0.4l-15.2-15.6c-4.6-4.7-11.2-6.8-17.7-5.7l-52.9 9.5c4.4 5.5 23.7 7.4 37.7 6.9 1 0 2 0.7 2.3 1.7 7.5 29.4 28.1 26.5 28.9 26.3q0.2 0 0.4 0z"/><path  d="m1541.2 734.7c-1.8 3 1.8 9 1.9 9 0 0-1.8-17.5-11.5-21.9-5.6-2.5-8.6 1.7-17 0.6-8.9-1.3-18.7-7.9-22.4-17.5-4.5-11.7 2-22.9 6-29.9 4-6.9 9.1-14.7 18-18.1 11.6-4.4 16.4 2.4 29.7-1.8 10.8-3.3 10-8.5 19.6-11.2 8-2.3 31-1 36.2 11.2 3.3 7.8-3.8 12.5-0.3 24.1 2.1 6.9 5.5 7.7 7.9 13.1 6 13.2-1.5 36.5-15.9 44.3-19.5 10.6-48-9.2-52.2-1.9z"/><path class="a" d="m1549.5 744l-4.5 37.2c-0.9 7.1-6 12.9-12.9 14.7l-19.1 5 58.9 44.9 66.2-50.3-23.7-5.3c-6.9-1.5-12.1-7-13.3-13.8l-9.9-54.8z"/><path fill-rule="evenodd" d="m1571.9 848c-0.5 0-1-0.1-1.4-0.4l-58.9-44.9c-0.7-0.5-1-1.4-0.8-2.3 0.1-0.8 0.8-1.5 1.6-1.7l19.1-5c6.1-1.6 10.4-6.6 11.2-12.8l4.5-37.1c0.1-0.8 0.6-1.4 1.2-1.8l41.7-22.4c0.7-0.3 1.4-0.4 2.1 0 0.6 0.3 1.1 0.9 1.2 1.6l9.9 54.8c1.1 6 5.6 10.7 11.6 12l23.7 5.3c0.9 0.2 1.5 0.9 1.7 1.7 0.2 0.9-0.1 1.8-0.8 2.3l-66.2 50.3c-0.4 0.3-0.9 0.4-1.4 0.4zm-53.8-46.1l53.8 41 60.9-46.2-18.9-4.3c-7.8-1.7-13.7-7.8-15.1-15.6l-9.3-51.7-37.9 20.4-4.4 36c-1 8-6.7 14.6-14.5 16.6z"/><path class="a" d="m1586.4 729.2c0 0 14.7-5.6 9.2-17.7-5.5-12.1-14.5-3.2-14.5-3.2 0 0-8.3-29.8-25.8-18.1-17.5 11.8-34.1 16.1-34.1 16.1 0 0 6.1 30.1 17.2 50.1 6.7 12 15.2 20.4 25.1 16.4 27.4-11.1 22.9-43.6 22.9-43.6z"/><path fill-rule="evenodd" d="m1558.4 776.1c-7.7 0-15.1-6.2-22-18.6-11.1-20.1-17.2-49.5-17.5-50.7-0.2-1.2 0.5-2.4 1.7-2.7 0.2 0 16.5-4.3 33.4-15.7 4.7-3.2 9.3-4 13.6-2.4 8 3 12.8 13.4 14.7 18.6 1.9-1.1 4.5-2.1 7.3-1.6 3.4 0.6 6.1 3.2 8.1 7.6 1.7 3.8 1.9 7.5 0.5 10.9-2 4.9-6.8 7.8-9.3 9.1 0.4 7.1 0.4 34.2-24.5 44.3q-3 1.2-6 1.2zm-34.5-68.2c1.6 7.1 7.4 30.9 16.5 47.4 7.3 13.2 14.8 18.4 22.3 15.4 25.3-10.3 21.7-40 21.5-41.2-0.1-1.1 0.5-2.1 1.4-2.5 0.2 0 6.4-2.5 8.4-7.3 0.9-2.2 0.8-4.6-0.5-7.3q-2-4.4-4.7-4.9c-2.5-0.5-5.3 1.7-6.1 2.4-0.5 0.6-1.4 0.8-2.1 0.6-0.8-0.2-1.4-0.8-1.7-1.6 0-0.1-4.4-15.5-12.8-18.6-3-1.1-6.1-0.5-9.6 1.8-14.1 9.6-27.6 14.2-32.6 15.8z"/></svg>