<svg width="1565" height="1850" viewBox="0 0 1565 1850" fill="none" xmlns="http://www.w3.org/2000/svg">
<g filter="url(#filter0_d_2_922)">
<path fill-rule="evenodd" clip-rule="evenodd" d="M1442.31 1557.65C1416.05 1505.12 1322.41 1466.3 1265.31 1451.45L785.677 1326.97H784.536L291.202 1451.45C242.097 1464.01 154.166 1493.7 126.758 1535.96C118.764 1547.38 113.054 1559.94 108.486 1572.5L102.776 1854.57H365.974L388.27 1807.75V1854.57H736.573H784.536H1199.07V1807.75L1221.37 1854.57H1448.02L1442.31 1557.65Z" fill="#4D5903"/>
<path d="M776.543 1535.96L473.92 1404.63C720.587 1304.14 984.002 1362.76 1084.88 1404.63L776.543 1535.96Z" fill="#FFBE98"/>
<path d="M878.179 1465.15H688.61C652.067 1465.15 623.518 1435.46 623.518 1400.06V1092.87C623.518 1031.2 673.765 982.099 734.289 982.099H832.5C894.166 982.099 943.271 1032.35 943.271 1092.87V1400.06C943.271 1435.46 913.58 1465.15 878.179 1465.15Z" fill="#FFBE98"/>
<path d="M619.742 1164.81C625.452 1187.65 824.833 1288.91 947.84 1164.81H619.742Z" fill="#FFAC7B"/>
<path d="M447.201 922.46C447.201 922.46 371.83 924.744 339.855 809.404C307.88 692.923 371.83 695.207 408.373 726.04L447.201 922.46Z" fill="#F3AF91"/>
<path d="M1100.41 922.46C1100.41 922.46 1175.78 924.744 1207.76 809.404C1239.73 692.923 1175.78 695.207 1139.24 726.04L1100.41 922.46Z" fill="#F3AF91"/>
<path d="M1146.54 688.653C1146.54 947.882 1032.35 1207.11 790.247 1211.68C536.729 1216.25 411.111 946.74 411.111 688.653C411.111 429.425 424.815 225.012 778.827 228.438C1152.25 233.005 1146.54 429.425 1146.54 688.653Z" fill="#FFBE98"/>
<ellipse cx="936.42" cy="639.506" rx="45.679" ry="68.5185" fill="#36180E"/>
<ellipse cx="616.666" cy="639.506" rx="45.679" ry="68.5185" fill="#36180E"/>
<path d="M870.76 542.08C891.141 525.235 946.72 497.213 1005.99 519.891" stroke="#5F220D" stroke-width="45.679" stroke-linecap="round"/>
<path d="M683.377 542.08C662.996 525.235 607.417 497.213 548.148 519.891" stroke="#5F220D" stroke-width="45.679" stroke-linecap="round"/>
<path d="M844.903 1050.62C822.729 1065.02 764.309 1086.5 708.024 1057.19" stroke="#B64741" stroke-width="22.8395" stroke-linecap="round"/>
<path d="M770.696 708.025C761.18 772.737 738.312 830.216 742.88 839.352C748.59 850.772 805.688 850.772 822.818 839.352" stroke="#F3AF91" stroke-width="22.8395" stroke-linecap="round"/>
<path d="M1124.84 787.962C1121.31 779.195 1037.43 1083.32 962.97 1098.15C888.514 1112.98 968.679 1030.77 950.408 999.939C932.136 969.106 851.056 923.427 822.507 934.847C803.093 942.84 796.943 954.26 777.97 954.26C758.996 954.26 751.704 942.84 733.432 934.847C704.883 922.285 623.803 967.964 605.531 999.939C587.26 1030.77 668.34 1110.71 592.97 1098.15C517.599 1085.59 439.66 805.092 439.66 805.092C399.417 774.875 423.605 766.505 462.784 1046.76C497.044 1313.98 750.562 1311.7 779.111 1310.56C806.519 1311.7 1061.18 1313.98 1095.44 1046.76C1129.7 764.692 1170.52 759.413 1124.84 787.962ZM779.111 1193.36C779.111 1193.36 681.384 1166.49 668.055 1098.15C661.09 1062.44 633.796 999.228 646.642 1006.79C659.489 1014.35 776.828 994.229 776.828 994.229C776.828 993.087 777.97 990.803 777.97 990.803C777.97 990.803 777.97 993.087 779.111 994.229C779.111 994.229 893.594 1013.64 909.297 1006.79C924.999 999.939 903.461 1062.45 896.45 1098.15C883.179 1165.73 779.111 1193.36 779.111 1193.36Z" fill="#5F220D"/>
<path d="M776.544 1535.96L490.826 1393.21L445.371 1413.77L633.685 1598.77L776.544 1535.96Z" fill="white"/>
<path d="M776.544 1535.96L1062.26 1393.21L1107.72 1413.77L919.403 1598.77L776.544 1535.96Z" fill="white"/>
<path fill-rule="evenodd" clip-rule="evenodd" d="M787.962 1587.35C787.962 1593.65 782.85 1598.77 776.543 1598.77C770.236 1598.77 765.123 1593.65 765.123 1587.35C765.123 1581.04 770.236 1575.93 776.543 1575.93C782.85 1575.93 787.962 1581.04 787.962 1587.35ZM775.399 1584.49C775.399 1586.07 774.121 1587.35 772.544 1587.35C770.968 1587.35 769.689 1586.07 769.689 1584.49C769.689 1582.91 770.968 1581.64 772.544 1581.64C774.121 1581.64 775.399 1582.91 775.399 1584.49ZM780.538 1587.35C782.115 1587.35 783.393 1586.07 783.393 1584.49C783.393 1582.91 782.115 1581.64 780.538 1581.64C778.962 1581.64 777.684 1582.91 777.684 1584.49C777.684 1586.07 778.962 1587.35 780.538 1587.35ZM783.393 1591.34C783.393 1592.92 782.115 1594.2 780.538 1594.2C778.962 1594.2 777.684 1592.92 777.684 1591.34C777.684 1589.77 778.962 1588.49 780.538 1588.49C782.115 1588.49 783.393 1589.77 783.393 1591.34ZM772.544 1594.2C774.121 1594.2 775.399 1592.92 775.399 1591.34C775.399 1589.77 774.121 1588.49 772.544 1588.49C770.968 1588.49 769.689 1589.77 769.689 1591.34C769.689 1592.92 770.968 1594.2 772.544 1594.2Z" fill="#FFBE98"/>
<path fill-rule="evenodd" clip-rule="evenodd" d="M787.962 1667.28C787.962 1673.59 782.85 1678.7 776.543 1678.7C770.236 1678.7 765.123 1673.59 765.123 1667.28C765.123 1660.98 770.236 1655.86 776.543 1655.86C782.85 1655.86 787.962 1660.98 787.962 1667.28ZM775.399 1664.43C775.399 1666.01 774.121 1667.28 772.544 1667.28C770.968 1667.28 769.689 1666.01 769.689 1664.43C769.689 1662.85 770.968 1661.57 772.544 1661.57C774.121 1661.57 775.399 1662.85 775.399 1664.43ZM780.538 1667.28C782.115 1667.28 783.393 1666.01 783.393 1664.43C783.393 1662.85 782.115 1661.57 780.538 1661.57C778.962 1661.57 777.684 1662.85 777.684 1664.43C777.684 1666.01 778.962 1667.28 780.538 1667.28ZM783.393 1671.28C783.393 1672.86 782.115 1674.14 780.538 1674.14C778.962 1674.14 777.684 1672.86 777.684 1671.28C777.684 1669.7 778.962 1668.43 780.538 1668.43C782.115 1668.43 783.393 1669.7 783.393 1671.28ZM772.544 1674.14C774.121 1674.14 775.399 1672.86 775.399 1671.28C775.399 1669.7 774.121 1668.43 772.544 1668.43C770.968 1668.43 769.689 1669.7 769.689 1671.28C769.689 1672.86 770.968 1674.14 772.544 1674.14Z" fill="#FFBE98"/>
<path fill-rule="evenodd" clip-rule="evenodd" d="M787.962 1747.22C787.962 1753.53 782.85 1758.64 776.543 1758.64C770.236 1758.64 765.123 1753.53 765.123 1747.22C765.123 1740.92 770.236 1735.8 776.543 1735.8C782.85 1735.8 787.962 1740.92 787.962 1747.22ZM775.399 1744.37C775.399 1745.94 774.121 1747.22 772.544 1747.22C770.968 1747.22 769.689 1745.94 769.689 1744.37C769.689 1742.79 770.968 1741.51 772.544 1741.51C774.121 1741.51 775.399 1742.79 775.399 1744.37ZM780.538 1747.22C782.115 1747.22 783.393 1745.94 783.393 1744.37C783.393 1742.79 782.115 1741.51 780.538 1741.51C778.962 1741.51 777.684 1742.79 777.684 1744.37C777.684 1745.94 778.962 1747.22 780.538 1747.22ZM783.393 1751.22C783.393 1752.8 782.115 1754.07 780.538 1754.07C778.962 1754.07 777.684 1752.8 777.684 1751.22C777.684 1749.64 778.962 1748.36 780.538 1748.36C782.115 1748.36 783.393 1749.64 783.393 1751.22ZM772.544 1754.07C774.121 1754.07 775.399 1752.8 775.399 1751.22C775.399 1749.64 774.121 1748.36 772.544 1748.36C770.968 1748.36 769.689 1749.64 769.689 1751.22C769.689 1752.8 770.968 1754.07 772.544 1754.07Z" fill="#FFBE98"/>
<path fill-rule="evenodd" clip-rule="evenodd" d="M787.962 1827.16C787.962 1833.47 782.85 1838.58 776.543 1838.58C770.236 1838.58 765.123 1833.47 765.123 1827.16C765.123 1820.85 770.236 1815.74 776.543 1815.74C782.85 1815.74 787.962 1820.85 787.962 1827.16ZM775.399 1824.31C775.399 1825.88 774.121 1827.16 772.544 1827.16C770.968 1827.16 769.689 1825.88 769.689 1824.31C769.689 1822.73 770.968 1821.45 772.544 1821.45C774.121 1821.45 775.399 1822.73 775.399 1824.31ZM780.538 1827.16C782.115 1827.16 783.393 1825.88 783.393 1824.31C783.393 1822.73 782.115 1821.45 780.538 1821.45C778.962 1821.45 777.684 1822.73 777.684 1824.31C777.684 1825.88 778.962 1827.16 780.538 1827.16ZM783.393 1831.16C783.393 1832.73 782.115 1834.01 780.538 1834.01C778.962 1834.01 777.684 1832.73 777.684 1831.16C777.684 1829.58 778.962 1828.3 780.538 1828.3C782.115 1828.3 783.393 1829.58 783.393 1831.16ZM772.544 1834.01C774.121 1834.01 775.399 1832.73 775.399 1831.16C775.399 1829.58 774.121 1828.3 772.544 1828.3C770.968 1828.3 769.689 1829.58 769.689 1831.16C769.689 1832.73 770.968 1834.01 772.544 1834.01Z" fill="#FFBE98"/>
<path d="M774.469 68.5173C1206.14 -68.5203 1171.43 301.512 1183.3 547.005C1188.11 646.596 1153.4 797.097 1131.91 797.097C1102.01 797.097 1151.32 668.054 1135.33 527.591C1102.22 229.536 925.21 407.684 776.753 405.4C623.728 403.116 437.586 232.962 415.889 523.023C401.043 721.727 464.568 824.972 423.883 807.375C405.402 799.382 379.346 673.764 366.784 593.826C365.642 582.406 365.642 569.845 365.642 558.425V558.425C365.642 287.777 342.802 205.555 774.469 68.5173Z" fill="#5F220D"/>
</g>
<defs>
<filter id="filter0_d_2_922" x="-25" y="0" width="1614.51" height="1904.57" filterUnits="userSpaceOnUse" color-interpolation-filters="sRGB">
<feFlood flood-opacity="0" result="BackgroundImageFix"/>
<feColorMatrix in="SourceAlpha" type="matrix" values="0 0 0 0 0 0 0 0 0 0 0 0 0 0 0 0 0 0 127 0" result="hardAlpha"/>
<feOffset dy="25"/>
<feGaussianBlur stdDeviation="12.5"/>
<feComposite in2="hardAlpha" operator="out"/>
<feColorMatrix type="matrix" values="0 0 0 0 0 0 0 0 0 0 0 0 0 0 0 0 0 0 0.25 0"/>
<feBlend mode="normal" in2="BackgroundImageFix" result="effect1_dropShadow_2_922"/>
<feBlend mode="normal" in="SourceGraphic" in2="effect1_dropShadow_2_922" result="shape"/>
</filter>
</defs>
</svg>
