<svg version="1.2" xmlns="http://www.w3.org/2000/svg" viewBox="0 0 1784 1830" width="1784" height="1830"><style>.a{fill:#fff}</style><path class="a" d="m1636.8 109c33.4 5.3 59.8 34 60.1 70.1 0.4 34.4-24.7 64.6-58.7 70.7-11.7 2.1-23.3 1.2-33.8-2-0.6-0.2-1 0.5-0.5 0.9 5.9 5.5 11.4 11 13.5 15.9-2.6 11.9-5 19.5-10.7 29.2q4.5 0.7 9 1.1l9.4 28.8 27.6-2.5 3.9-30.1q9.5-2.6 18.1-6.7l22.6 20.2 22.6-16-11.7-28c4.5-4.6 8.6-9.6 12.3-14.9l29.7 6.3 11.6-25.2-24.1-18.4q2.4-9.3 3.2-19.1l28.8-9.4-2.6-27.6-30-3.9q-2.6-9.4-6.7-18.1l20.2-22.5-16.1-22.6-27.9 11.6c-4.6-4.5-9.6-8.6-14.9-12.3l6.3-29.7-25.3-11.5-18.3 24q-4.8-1.2-9.8-2c-2.5 5.8-13.4 16.3-13.4 18.4 0 2.2 4.6 16.1 5.6 25.3z"/><path fill-rule="evenodd" d="m1625.1 325.9c-0.9 0-1.8-0.6-2.1-1.5l-8.9-27.4q-3.8-0.4-7.7-1c-0.7-0.1-1.4-0.6-1.7-1.2-0.3-0.7-0.2-1.5 0.1-2.1 5.6-9.4 7.9-16.9 10.3-27.9-2.2-4.5-7.7-9.8-12.7-14.5-1-0.9-1.2-2.3-0.5-3.4 0.6-1.1 1.9-1.6 3.2-1.2 10.6 3.3 21.7 3.9 32.8 2 32.7-5.9 57.2-35.4 56.8-68.6-0.3-34-24.8-62.6-58.2-67.9-1-0.2-1.8-1-1.9-2-0.6-5.4-2.5-12.6-3.9-17.8-1.1-4.4-1.7-6.6-1.7-7.7 0-1.7 1.4-3.5 5.6-8.4 3-3.6 6.7-8.1 8-10.9 0.4-0.9 1.4-1.4 2.4-1.3q4.3 0.7 8.5 1.8l17.5-23c0.6-0.8 1.7-1.1 2.7-0.6l25.2 11.5c0.9 0.5 1.4 1.5 1.2 2.5l-5.9 28.2c4.5 3.3 8.8 6.9 12.9 10.7l26.6-11.1c0.9-0.4 2-0.1 2.6 0.8l16.1 22.6c0.6 0.8 0.5 2-0.2 2.8l-19.2 21.4c2.3 5 4.2 10.3 5.8 15.7l28.6 3.7c1 0.2 1.8 1 1.9 2l2.6 27.6c0.1 1.1-0.5 2-1.5 2.3l-27.4 9c-0.6 5.6-1.5 11.2-2.8 16.5l22.9 17.5c0.8 0.6 1.1 1.8 0.7 2.7l-11.6 25.2c-0.4 0.9-1.5 1.5-2.5 1.2l-28.2-5.9c-3.2 4.5-6.8 8.8-10.7 12.9l11.1 26.6c0.4 1 0.1 2.1-0.7 2.7l-22.7 16c-0.8 0.6-1.9 0.6-2.7-0.1l-21.5-19.3c-5 2.3-10.3 4.2-15.7 5.8l-3.7 28.6c-0.1 1.1-0.9 1.9-2 1.9l-27.6 2.6q-0.1 0-0.2 0zm-14.9-33.8q2.9 0.4 5.7 0.6c0.9 0.1 1.6 0.7 1.9 1.6l8.8 27.1 24.2-2.3 3.6-28.3c0.1-0.9 0.8-1.6 1.6-1.8 6.2-1.7 12.2-3.9 17.8-6.6 0.8-0.4 1.8-0.2 2.4 0.4l21.2 19 19.8-14-11-26.4c-0.4-0.8-0.2-1.7 0.4-2.3 4.5-4.6 8.5-9.5 12.1-14.6 0.5-0.8 1.4-1.1 2.3-0.9l27.9 5.9 10.1-22-22.6-17.3c-0.7-0.6-1.1-1.5-0.8-2.3 1.5-6.1 2.6-12.4 3.1-18.7 0.1-0.9 0.7-1.7 1.5-2l27.2-8.8-2.3-24.1-28.3-3.7c-0.9-0.1-1.6-0.7-1.9-1.6-1.7-6.2-3.9-12.1-6.5-17.8-0.4-0.8-0.3-1.7 0.3-2.4l19.1-21.2-14-19.7-26.4 11c-0.8 0.3-1.7 0.1-2.4-0.5-4.5-4.4-9.4-8.5-14.6-12.1-0.7-0.5-1-1.4-0.9-2.3l5.9-27.9-22-10.1-17.3 22.7c-0.5 0.7-1.4 1-2.3 0.8q-3.9-1-8-1.8c-1.8 3.2-5 7-7.8 10.4-1.7 2-4 4.8-4.6 5.8 0.2 1 0.9 3.8 1.6 6.3 1.3 4.9 3 11.5 3.8 16.9 34.7 6.3 60 36.3 60.3 71.9 0.4 35.4-25.6 66.8-60.5 73-9.6 1.7-19.2 1.6-28.6-0.5 4.1 4.1 7.7 8.2 9.4 12.2 0.2 0.4 0.3 0.9 0.2 1.3-2.3 10.8-4.5 18.2-9.4 27.1zm23.2-208.1q0 0 0 0z"/><path class="a" d="m1481.2 106l-11.5 25.2 24 18.4q-2.4 9.3-3.2 19.1l-28.8 9.4 2.6 27.6 30.1 3.9q2.6 9.4 6.6 18.1l-20.2 22.5 16.1 22.7 28-11.7c4.6 4.5 9.5 8.6 14.8 12.3l-6.2 29.7 25.2 11.5 18.3-24q5 1.2 10.1 2.1c3.9-9.4 12.5-24.9 12.6-28.7-0.2-1.3-10.7-12.1-17.3-18.2-25.5-8.9-44.9-32-47.6-60.8-3.7-39.2 25.2-74.1 64.4-77.7 6.2-0.6 12.2-0.4 18 0.5-1-9.1-4.5-23.2-2.9-26 3-5.5 8.2-11.9 10.7-17.7q-4.6-0.7-9.3-1.1l-9.4-28.8-27.6 2.6-3.9 30q-9.4 2.6-18.1 6.7l-22.5-20.2-22.7 16 11.7 28c-4.5 4.6-8.6 9.6-12.3 14.9z"/><path fill-rule="evenodd" d="m1558.7 316.9q-0.5 0-0.9-0.2l-25.3-11.5c-0.9-0.5-1.4-1.5-1.2-2.5l6-28.2c-4.6-3.3-8.9-6.9-12.9-10.7l-26.7 11.1c-0.9 0.4-2 0.1-2.6-0.8l-16.1-22.6c-0.6-0.8-0.5-2 0.2-2.7l19.2-21.5c-2.2-5-4.2-10.3-5.8-15.7l-28.6-3.7c-1-0.2-1.8-1-1.9-2l-2.6-27.6c-0.1-1.1 0.5-2 1.5-2.3l27.5-9c0.5-5.6 1.4-11.2 2.7-16.5l-22.9-17.5c-0.8-0.6-1.1-1.7-0.6-2.7l11.5-25.2c0.5-0.9 1.5-1.5 2.5-1.2l28.2 5.9c3.3-4.5 6.9-8.8 10.7-12.9l-11.1-26.6c-0.4-1-0.1-2.1 0.8-2.7l22.6-16c0.8-0.6 2-0.5 2.7 0.1l21.5 19.3c5-2.3 10.3-4.2 15.7-5.8l3.7-28.6c0.1-1.1 1-1.8 2-1.9l27.6-2.6c1-0.1 2 0.5 2.3 1.5l9 27.4q3.9 0.4 8 1.1c0.6 0.1 1.2 0.5 1.5 1.1 0.4 0.6 0.4 1.3 0.1 1.9-1.6 3.6-4 7.3-6.5 10.9-1.6 2.5-3.1 4.8-4.3 6.9-0.6 1.5 0.7 9 1.6 14 0.6 3.7 1.3 7.5 1.6 10.8 0.1 0.7-0.2 1.3-0.7 1.8-0.5 0.5-1.1 0.7-1.8 0.6-5.8-0.9-11.6-1.1-17.5-0.6-18.4 1.8-35 10.6-46.8 24.8-11.8 14.2-17.3 32.2-15.6 50.6 2.5 26.9 20.6 50 46.1 58.9q0.5 0.2 0.8 0.5c0.2 0.2 17.5 16.4 17.9 19.5q0.1 0.2 0.1 0.3c0 2.7-2.8 8.5-7.2 17.6-2 4.2-4.1 8.5-5.5 11.9-0.4 1-1.4 1.5-2.4 1.3-3.1-0.5-6-1.1-8.9-1.7l-17.5 22.9c-0.4 0.5-1.1 0.8-1.7 0.8zm-22.7-15l22 10.1 17.3-22.7c0.5-0.7 1.4-1 2.3-0.8q3.9 1.1 8.2 1.8c1.4-3.2 3.2-6.9 5-10.5 2.6-5.5 6.1-12.8 6.6-15.2-1.6-2.3-9.7-10.7-16.1-16.8-27-9.5-46-34-48.7-62.5-1.8-19.5 4.1-38.7 16.6-53.8 12.6-15.1 30.3-24.5 49.8-26.3 5.3-0.5 10.5-0.5 15.7 0.1-0.4-2.4-0.8-5-1.3-7.6-1.6-9.2-2.4-14.5-1.1-16.9 1.3-2.3 2.9-4.7 4.6-7.2 1.7-2.6 3.4-5.2 4.8-7.7q-3.1-0.4-6.2-0.6c-0.8-0.1-1.6-0.7-1.9-1.5l-8.8-27.2-24.1 2.3-3.7 28.3c-0.1 0.9-0.7 1.6-1.6 1.8-6.2 1.7-12.2 4-17.8 6.6-0.8 0.4-1.7 0.2-2.4-0.4l-21.2-19-19.8 14 11 26.4c0.4 0.8 0.2 1.7-0.4 2.3-4.4 4.6-8.5 9.5-12.1 14.6-0.5 0.8-1.4 1.1-2.3 0.9l-27.9-5.9-10.1 22.1 22.7 17.2c0.7 0.6 1 1.5 0.8 2.3-1.6 6.1-2.7 12.4-3.2 18.7-0.1 0.9-0.7 1.7-1.5 2l-27.1 8.8 2.2 24.1 28.3 3.7c0.9 0.1 1.6 0.7 1.9 1.6 1.7 6.2 3.9 12.1 6.5 17.8 0.4 0.8 0.3 1.7-0.3 2.4l-19.1 21.2 14.1 19.7 26.3-10.9c0.8-0.4 1.8-0.2 2.4 0.4 4.5 4.4 9.4 8.5 14.6 12.1 0.7 0.5 1.1 1.4 0.9 2.3z"/><path class="a" d="m1104.1 512.4l2.1 47.4 51 9.2c2.4 10.6 5.7 21.2 10 31.5l-36.5 36.8 25.5 40.1 48.8-17.6c7.6 8.2 15.7 15.7 24.3 22.4l-13.1 50 42.1 21.9 33.5-39.6c10.5 3.3 21.3 5.7 32.2 7.1l13.7 50.1 47.4-2.1 9.1-51c10.7-2.4 21.2-5.8 31.6-10l3.2-1.4c0.7-16-2-20.6-1.8-24.3-16.3-3.1-47.8-9-47.8-9-3.3-8.2-3.1-18.8-5.6-28.7-50.1 9.7-103.4-12.6-130.1-60.5-28.8-51.6-16.1-117.3 29.8-154.4 14.7-11.9 31.1-19.6 48-23.8 3.8-11.7 8.6-23 15.6-33.4-17.2 2.7-36.5-1.3-53.9 0.9-1.1 0.2-2-0.7-1.9-1.7 0.8-10.9 1.1-22.1 1.2-33.2q-3.6 1.3-7.2 2.8l-36.9-36.5-40 25.5 17.6 48.8c-8.2 7.6-15.7 15.7-22.4 24.4l-50.1-13.2-21.9 42.1 39.6 33.5c-3.2 10.5-5.6 21.3-7.1 32.3z"/><path fill-rule="evenodd" d="m1337.7 773.9c-1 0-1.9-0.7-2.2-1.6l-13.2-48.7c-10.1-1.4-20.1-3.6-29.8-6.6l-32.5 38.6c-0.7 0.7-1.8 1-2.7 0.5l-42.2-21.9c-0.9-0.5-1.3-1.5-1.1-2.5l12.9-48.7c-7.9-6.2-15.5-13.1-22.5-20.7l-47.5 17.1c-0.9 0.4-2 0-2.6-0.8l-25.5-40.1c-0.5-0.8-0.4-2 0.3-2.7l35.5-35.8c-3.9-9.6-7-19.3-9.3-29.1l-49.5-8.9c-1-0.2-1.8-1-1.8-2.1l-2.1-47.4c-0.1-1 0.6-2 1.6-2.2l48.6-13.3c1.5-10 3.7-20.1 6.6-29.8l-38.5-32.5c-0.8-0.7-1-1.8-0.5-2.7l21.9-42.1c0.4-0.9 1.5-1.4 2.5-1.1l48.7 12.8c6.2-7.9 13.1-15.5 20.6-22.5l-17.1-47.4c-0.3-1 0-2.1 0.9-2.6l40-25.6c0.9-0.5 2-0.4 2.8 0.3l35.8 35.5c1.9-0.7 3.8-1.5 6-2.3 0.6-0.2 1.4-0.1 2 0.3 0.6 0.4 0.9 1.1 0.9 1.8-0.1 12.6-0.4 23-1.1 32.7 8.3-1.1 17.1-0.7 25.6-0.3 9.3 0.4 18.9 0.8 27.6-0.6 0.9-0.2 1.7 0.2 2.2 1 0.5 0.7 0.5 1.7 0 2.4-6.2 9.1-11.1 19.6-15.4 32.9-0.3 0.7-0.9 1.3-1.6 1.5-17.3 4.2-33.2 12-47.1 23.3-44.8 36.2-57.4 101.3-29.3 151.6 25.4 45.4 76.7 69.3 127.7 59.5 1.2-0.2 2.3 0.5 2.6 1.6 1.1 4.3 1.7 8.7 2.3 13 0.7 5.1 1.4 10 2.8 14.3 6 1.1 32.3 6 46.6 8.8 1.1 0.2 1.8 1.2 1.8 2.3-0.1 0.9 0.1 2.1 0.5 3.7 0.7 3.8 1.8 9.5 1.3 20.5-0.1 0.8-0.6 1.6-1.3 1.9l-3.3 1.4c-10 4.1-20.2 7.4-30.4 9.8l-8.9 49.6c-0.2 1-1.1 1.7-2.1 1.8l-47.4 2.1q-0.1 0-0.1 0zm-45.9-61.6q0.3 0 0.6 0.1c10.4 3.2 21.1 5.6 31.9 7.1 0.9 0.1 1.6 0.7 1.8 1.6l13.2 48.3 43.9-1.9 8.9-49.3c0.1-0.9 0.8-1.5 1.7-1.7 10.4-2.4 20.9-5.7 31.1-9.9l1.9-0.9c0.4-9.6-0.6-14.7-1.3-18.1-0.2-1-0.4-2-0.5-2.8-16.4-3.2-45.7-8.6-46-8.7-0.7-0.1-1.4-0.7-1.6-1.4-2-5-2.8-10.5-3.6-16.4-0.5-3.5-0.9-7.1-1.7-10.5-52.2 9.2-104.4-15.6-130.3-62.1-29.1-52.1-16.1-119.6 30.3-157.1 14.2-11.4 30.2-19.5 47.6-23.9 3.8-11.3 8-20.6 13-28.9-7.7 0.8-15.8 0.4-23.6 0.1-8.6-0.4-17.5-0.8-25.6 0.3-1.2 0.2-2.3-0.2-3.2-1-0.8-0.8-1.3-1.9-1.2-3.1 0.7-8.9 1.1-18.4 1.2-29.8q-2.2 0.8-4.2 1.6c-0.8 0.4-1.8 0.2-2.4-0.4l-35.6-35.3-37 23.6 17 47.2c0.3 0.8 0 1.7-0.6 2.3-8.2 7.5-15.6 15.6-22.2 24.1-0.5 0.7-1.4 1-2.3 0.8l-48.3-12.7-20.3 39 38.3 32.3c0.6 0.6 0.9 1.5 0.7 2.3-3.3 10.4-5.6 21.2-7.1 31.9-0.1 0.9-0.8 1.6-1.6 1.9l-48.4 13.2 2 43.9 49.2 8.8c0.9 0.2 1.6 0.8 1.8 1.7 2.4 10.5 5.7 20.9 9.9 31.2 0.3 0.8 0.2 1.7-0.5 2.4l-35.2 35.5 23.6 37.1 47.1-17c0.9-0.3 1.8-0.1 2.4 0.6 7.5 8.1 15.6 15.6 24.1 22.1 0.7 0.6 1 1.5 0.8 2.3l-12.8 48.4 39 20.3 32.4-38.3c0.4-0.5 1-0.8 1.7-0.8z"/><path class="a" d="m1358.1 355.4c-6.1 9.6-10.4 20-13.8 30.6 49.4-12.1 103.2 7.7 132.1 53 36.3 56.9 19.6 132.5-37.3 168.8-13.4 8.5-27.8 14.1-42.5 16.9 2.1 9.7 3.1 19.4 5.6 28.7 0.4 1.5 41.7 9.9 42.9 10.6 1.5 0.3 1.8 14.5 4.2 25.5l36.1 35.1 40.1-25.5-17.6-48.8c8.2-7.6 15.7-15.8 22.3-24.4l50.1 13.2 21.9-42.1-39.6-33.5c3.3-10.5 5.7-21.3 7.1-32.3l50.1-13.6-2.1-47.4-51-9.2c-2.4-10.7-5.8-21.2-10-31.5l36.5-36.9-25.6-40-48.7 17.6c-7.6-8.2-15.8-15.7-24.4-22.4l13.2-50.1-42.1-21.9-33.5 39.7c-10.5-3.3-21.3-5.7-32.3-7.2l-13.6-50-47.4 2.1-9.2 51q-12.3 2.8-24.3 7.2c0 11.1-0.3 22.2-1.1 33.1-0.1 1.1 0.8 1.9 1.9 1.8 16.2-2.1 34.2 1.3 50.5-0.5 1.3-0.1 2.2 1.3 1.5 2.4z"/><path fill-rule="evenodd" d="m1485.4 726.8c-0.5 0-1.1-0.2-1.5-0.6l-36.1-35.1q-0.5-0.5-0.6-1.2c-1.2-5.2-1.8-11.1-2.4-15.9-0.3-3-0.7-6.7-1.1-8.2-1.7-0.4-6.4-1.4-10.9-2.4-32.1-7.1-32.2-7.5-32.7-9.4-1.5-5.6-2.5-11.4-3.5-17-0.6-3.9-1.3-7.9-2.2-11.8-0.1-0.6 0-1.2 0.3-1.7 0.4-0.5 0.9-0.8 1.5-0.9 14.9-2.9 28.9-8.5 41.7-16.7 27-17.2 45.7-44 52.6-75.3 7-31.3 1.3-63.4-16-90.4-27.6-43.4-79.8-64.3-129.7-52.1-0.8 0.2-1.6 0-2.1-0.6-0.6-0.6-0.8-1.4-0.5-2.2 3.8-11.9 8.1-21.4 13.4-30-7.8 0.7-15.9 0.4-23.7 0.1-8.6-0.4-17.4-0.8-25.5 0.3-1.2 0.1-2.4-0.2-3.2-1.1-0.9-0.8-1.3-1.9-1.2-3.1 0.7-9.7 1.1-20.1 1.1-32.9 0.1-1 0.6-1.8 1.5-2.1 7.6-2.8 15.4-5.1 23.1-6.9l8.9-49.6c0.2-1 1-1.8 2.1-1.8l47.4-2.1c1 0 1.9 0.6 2.2 1.6l13.3 48.7c10 1.4 20 3.6 29.7 6.5l32.6-38.5c0.6-0.8 1.8-1 2.7-0.5l42.1 21.9c0.9 0.5 1.4 1.5 1.1 2.5l-12.8 48.7c7.9 6.2 15.4 13.1 22.5 20.6l47.4-17.1c1-0.3 2 0.1 2.6 0.9l25.5 40.1c0.6 0.8 0.5 2-0.3 2.7l-35.4 35.8c3.8 9.5 6.9 19.3 9.2 29.1l49.6 8.9c1 0.2 1.7 1 1.8 2.1l2.1 47.4c0 1-0.7 1.9-1.6 2.2l-48.7 13.3c-1.4 10-3.6 20-6.6 29.7l38.6 32.6c0.7 0.6 1 1.8 0.5 2.7l-21.9 42.1c-0.5 0.9-1.5 1.4-2.5 1.1l-48.7-12.8c-6.2 7.9-13.1 15.4-20.7 22.5l17.1 47.4c0.4 1 0 2.1-0.9 2.6l-40 25.5q-0.6 0.4-1.2 0.4zm-34.1-38.4l34.4 33.4 37.1-23.7-17-47.1c-0.3-0.8-0.1-1.8 0.6-2.4 8.1-7.4 15.5-15.5 22.1-24 0.5-0.7 1.5-1.1 2.3-0.8l48.4 12.7 20.3-39-38.3-32.3c-0.7-0.6-1-1.5-0.7-2.4 3.2-10.4 5.6-21.1 7-31.9 0.2-0.8 0.8-1.6 1.7-1.8l48.3-13.2-1.9-43.9-49.3-8.8c-0.9-0.2-1.6-0.8-1.8-1.7-2.3-10.5-5.7-21-9.9-31.2-0.3-0.8-0.1-1.7 0.5-2.4l35.3-35.6-23.7-37-47.1 17c-0.8 0.3-1.8 0-2.4-0.6-7.4-8.1-15.6-15.6-24-22.1-0.7-0.6-1.1-1.5-0.8-2.3l12.7-48.4-39-20.3-32.3 38.3c-0.6 0.7-1.5 0.9-2.4 0.7-10.3-3.2-21.1-5.6-31.9-7.1-0.8-0.1-1.6-0.7-1.8-1.6l-13.2-48.3-43.9 1.9-8.8 49.3c-0.2 0.8-0.9 1.5-1.7 1.7-7.5 1.7-15.1 3.9-22.6 6.6-0.1 12-0.4 21.9-1.1 31.1 8.3-1 17.1-0.6 25.7-0.2 8.1 0.3 16.5 0.7 24.3-0.2 1.4-0.2 2.8 0.5 3.6 1.7 0.8 1.3 0.8 2.8 0 4q0 0 0 0c-4.8 7.7-8.8 16.2-12.4 26.5 50.6-10.7 102.7 11 130.6 54.8 17.9 28 23.8 61.3 16.6 93.8-7.1 32.4-26.5 60.2-54.5 78-12.7 8.1-26.5 13.8-41.1 16.9 0.7 3.2 1.2 6.5 1.8 9.7 0.9 5.5 1.8 10.7 3.1 15.8 3.7 1.3 20.4 5 29.7 7.1 8.9 2 11.1 2.5 11.9 2.7 2.2 0.6 2.6 3.4 3.5 11.7 0.5 4.5 1.1 10 2.1 14.9zm-6.6-22.3q0 0 0 0 0 0 0 0zm-86.6-310.7z"/><path  d="m1603.6 678.5q-0.6 0-1.2-0.3c-1-0.7-1.3-2.1-0.6-3.1 2.4-3.6 4.7-7.4 7-11.1 0.6-1 2-1.4 3-0.7 1 0.6 1.4 1.9 0.8 3-2.3 3.8-4.7 7.6-7.1 11.2-0.5 0.7-1.2 1-1.9 1z"/><path  d="m1347.4 809.7q-0.1 0-0.1 0c-9.2-0.4-18.4-1.2-27.5-2.4-1.2-0.2-2-1.3-1.9-2.5 0.2-1.2 1.3-2 2.5-1.9 8.9 1.2 18 2 27 2.4 1.3 0 2.2 1 2.2 2.2-0.1 1.2-1.1 2.2-2.2 2.2zm27.3-0.2c-1.2 0-2.1-0.9-2.2-2.1 0-1.2 0.9-2.2 2.1-2.3 9-0.5 18.1-1.4 27-2.7 1.2-0.1 2.3 0.7 2.5 1.9 0.2 1.2-0.6 2.3-1.8 2.5-9.1 1.3-18.3 2.2-27.5 2.7q0 0-0.1 0zm54.1-7.9c-1 0-1.9-0.7-2.2-1.7-0.3-1.2 0.5-2.3 1.7-2.6 8.7-2.2 17.5-4.7 26-7.7 1.1-0.4 2.4 0.2 2.8 1.4 0.4 1.1-0.2 2.4-1.4 2.8-8.6 3-17.5 5.6-26.4 7.7q-0.3 0.1-0.5 0.1zm51.6-17.8c-0.8 0-1.6-0.5-2-1.3-0.5-1.1 0-2.4 1.1-2.9 8.2-3.8 16.3-7.9 24.1-12.4 1.1-0.6 2.4-0.3 3 0.8 0.7 1 0.3 2.4-0.8 3-7.9 4.6-16.2 8.8-24.5 12.6q-0.4 0.2-0.9 0.2zm47.4-27.2c-0.7 0-1.4-0.3-1.8-0.9-0.7-1-0.5-2.4 0.5-3.1 7.4-5.2 14.6-10.8 21.5-16.7 0.9-0.8 2.3-0.6 3.1 0.3 0.8 0.9 0.7 2.3-0.3 3.1-6.9 5.9-14.2 11.6-21.7 16.9q-0.6 0.4-1.3 0.4zm41.6-35.5c-0.6 0-1.2-0.2-1.6-0.6-0.9-0.9-0.9-2.3 0-3.1 6.3-6.5 12.3-13.3 18-20.4 0.7-0.9 2.1-1.1 3.1-0.3 0.9 0.8 1.1 2.1 0.3 3.1-5.7 7.1-11.9 14.1-18.3 20.6-0.4 0.5-1 0.7-1.5 0.7z"/><path  d="m1293 802.4q-0.2 0-0.5-0.1c-4.3-1-8.6-2.1-12.9-3.3-1.1-0.3-1.8-1.5-1.5-2.7 0.3-1.2 1.6-1.9 2.7-1.5 4.2 1.1 8.5 2.2 12.7 3.2 1.2 0.3 2 1.5 1.7 2.7-0.3 1-1.2 1.7-2.2 1.7z"/><path  d="m1070 471.8q-0.1 0-0.3 0c-1.2-0.2-2-1.3-1.8-2.5 0.6-4.4 1.4-8.8 2.3-13.1 0.2-1.2 1.4-2 2.6-1.7 1.2 0.2 2 1.4 1.7 2.6-0.8 4.2-1.6 8.6-2.3 12.9-0.1 1.1-1.1 1.8-2.2 1.8z"/><path  d="m1079 432.4q-0.3 0-0.6-0.1c-1.2-0.3-1.9-1.5-1.5-2.7 2.6-8.7 5.7-17.4 9.1-25.9 0.5-1.1 1.8-1.6 2.9-1.2 1.1 0.5 1.7 1.8 1.2 2.9-3.4 8.3-6.4 16.9-9 25.5-0.3 0.9-1.2 1.5-2.1 1.5zm20.5-50.3q-0.5 0-1-0.3c-1.1-0.6-1.5-1.9-0.9-3 4.2-8 8.8-16 13.8-23.7 0.6-1 2-1.3 3-0.6 1 0.6 1.3 2 0.7 3-4.9 7.6-9.5 15.4-13.6 23.4-0.4 0.7-1.2 1.2-2 1.2zm29.5-45.7c-0.5 0-0.9-0.2-1.3-0.5-1-0.8-1.2-2.1-0.4-3.1 5.6-7.2 11.6-14.1 17.9-20.8 0.9-0.8 2.2-0.9 3.1 0 0.9 0.8 0.9 2.2 0.1 3.1-6.2 6.5-12.1 13.4-17.6 20.4-0.5 0.6-1.1 0.9-1.8 0.9zm37.4-39.5c-0.6 0-1.2-0.3-1.6-0.8-0.8-0.9-0.7-2.3 0.2-3.1 6.8-6 14-11.7 21.4-17.1 1-0.7 2.4-0.5 3.1 0.5 0.7 1 0.5 2.4-0.5 3.1-7.3 5.3-14.4 10.9-21.1 16.8-0.4 0.4-0.9 0.6-1.5 0.6z"/><path  d="m1210.5 265c-0.7 0-1.5-0.4-1.9-1.1-0.6-1.1-0.3-2.4 0.8-3 3.8-2.3 7.7-4.5 11.6-6.6 1.1-0.5 2.4-0.1 3 1 0.5 1 0.1 2.4-0.9 2.9-3.9 2.1-7.7 4.2-11.5 6.4q-0.5 0.4-1.1 0.4z"/><path  d="m1646 360.7c-1 0-2-0.7-2.2-1.8-0.2-1.2 0.6-2.3 1.8-2.6 8.5-1.6 17-3.8 25.2-6.6 1.1-0.4 2.4 0.2 2.8 1.3 0.4 1.2-0.2 2.4-1.4 2.8-8.4 2.9-17.1 5.2-25.8 6.9q-0.2 0-0.4 0zm49.7-17.2c-0.8 0-1.5-0.4-1.9-1.2-0.6-1-0.2-2.4 0.9-2.9 7.7-4 15.1-8.6 22.2-13.7 1-0.7 2.3-0.5 3.1 0.5 0.7 0.9 0.4 2.3-0.5 3-7.2 5.2-14.9 10-22.8 14.1q-0.5 0.2-1 0.2zm42.7-30.8c-0.6 0-1.2-0.3-1.6-0.7-0.9-0.9-0.8-2.3 0-3.1 6.3-6.1 12.1-12.6 17.3-19.5 0.8-1 2.2-1.1 3.1-0.4 1 0.7 1.2 2.1 0.4 3.1-5.4 7-11.3 13.8-17.7 19.9-0.4 0.5-1 0.7-1.5 0.7zm32-41.8q-0.6 0-1.1-0.3c-1.1-0.6-1.4-1.9-0.9-3 4.3-7.6 7.9-15.5 11-23.7 0.4-1.1 1.7-1.7 2.8-1.2 1.2 0.4 1.7 1.7 1.3 2.8-3.1 8.3-6.9 16.5-11.2 24.2-0.4 0.8-1.2 1.2-1.9 1.2z"/><path  d="m1433.3 205.4c-1.1 0-2-0.8-2.2-1.9-0.9-7.4-1.3-14.9-1.3-22.4q0-2.2 0-4.3c0-1.2 1.1-2.2 2.3-2.2 1.2 0.1 2.1 1.1 2.1 2.3q0 2.1 0 4.2c0 7.3 0.4 14.6 1.3 21.8 0.1 1.2-0.7 2.3-1.9 2.5q-0.2 0-0.3 0zm1.2-52.6q-0.1 0-0.3-0.1c-1.2-0.2-2-1.3-1.8-2.5 1.5-8.8 3.6-17.5 6.4-25.9 0.4-1.2 1.6-1.8 2.8-1.4 1.1 0.4 1.7 1.6 1.4 2.7-2.7 8.3-4.8 16.8-6.3 25.3-0.2 1.1-1.1 1.9-2.2 1.9zm16.4-50.1q-0.5 0.1-1-0.2c-1.1-0.5-1.5-1.8-1-2.9 4-8 8.6-15.7 13.7-23 0.7-1 2.1-1.2 3.1-0.5 1 0.7 1.2 2 0.5 3-5 7.1-9.5 14.7-13.3 22.4-0.4 0.8-1.2 1.2-2 1.2zm30.1-43.1c-0.5 0-1-0.2-1.5-0.6-0.9-0.8-0.9-2.2-0.1-3.1 6.1-6.5 12.7-12.6 19.7-18.1 1-0.7 2.3-0.6 3.1 0.4 0.8 0.9 0.6 2.3-0.4 3.1-6.8 5.3-13.2 11.3-19.2 17.6-0.4 0.5-1 0.7-1.6 0.7zm41.3-32.7c-0.8 0-1.5-0.4-1.9-1.1-0.6-1-0.3-2.4 0.8-3 7.7-4.4 15.8-8.4 24-11.6 1.1-0.5 2.4 0.1 2.9 1.2 0.4 1.1-0.1 2.4-1.3 2.9-8 3.2-15.9 7-23.4 11.3q-0.5 0.3-1.1 0.3zm48.9-19.4c-1 0-1.9-0.6-2.1-1.7-0.3-1.1 0.4-2.3 1.6-2.6 5.7-1.3 11.5-2.4 17.3-3.2 1.2-0.1 2.4 0.7 2.5 1.9 0.2 1.2-0.7 2.3-1.9 2.5-5.6 0.7-11.3 1.8-16.9 3.1q-0.2 0-0.5 0z"/><path fill-rule="evenodd" d="m800.8 509.9c-0.5 0-1-0.1-1.4-0.4l-44.4-34c-0.7-0.5-1-1.4-0.8-2.3 0.2-0.8 0.9-1.5 1.8-1.6l63.2-10.2c0.8-0.2 1.6 0.2 2.1 0.8 0.5 0.6 0.6 1.5 0.3 2.2l-18.8 44.2c-0.3 0.6-0.8 1.1-1.5 1.3q-0.2 0-0.5 0zm-39.1-34.8l38.2 29.2 16.1-37.9z"/><path  d="m813.6 424.5q-0.1 0-0.2 0c-1.3-0.1-2.1-1.2-2-2.4l38.7-335c0.1-1.2 1.2-2.1 2.4-2 1.2 0.2 2.1 1.3 1.9 2.5l-38.6 335c-0.1 1.1-1.1 1.9-2.2 1.9z"/><path  d="m749.1 421.3c-0.9 0-1.8-0.6-2.1-1.6l-73.8-231.4c-0.4-1.1 0.3-2.4 1.4-2.7 1.2-0.4 2.4 0.2 2.8 1.4l73.8 231.4c0.4 1.1-0.3 2.4-1.4 2.8q-0.4 0.1-0.7 0.1z"/><path  d="m697.7 442.3c-11.4 0-19.4-2.9-23.8-8.8-3.2-4.2-3.3-8.3-3.3-12-0.1-3-0.1-6-1.8-9.2-3.4-6-9.6-7.2-16.9-8.6-7-1.3-14.3-2.6-19.3-9-6-7.6-3.8-16.4-1.6-24.9 2.1-7.9 4.1-15.4-0.1-22.2-4.8-7.8-14.3-9.1-24.2-10.5-10.6-1.5-21.6-3.1-27.4-12.7-4.8-8.1-2.8-16.8-1.1-24.4 1.7-7.3 3.1-13.5-0.7-18.5-5.2-6.9-18.1-8.6-38.2-4.8-1.2 0.3-2.4-0.5-2.6-1.7-0.2-1.2 0.6-2.4 1.8-2.6 22.2-4.2 36.2-2.1 42.6 6.5 4.9 6.6 3.1 14.4 1.4 22-1.6 7.2-3.3 14.7 0.6 21.2 4.7 7.8 14.2 9.2 24.2 10.6 10.5 1.5 21.4 3.1 27.3 12.6 5.2 8.4 2.8 17.6 0.7 25.6-2.1 8.2-3.9 15.2 0.7 21.1 4 5 10.2 6.2 16.8 7.4 7.6 1.4 15.5 2.9 19.8 10.8 2.3 4.2 2.3 8 2.4 11.3 0 3.4 0 6.3 2.4 9.4 3.6 4.7 10.6 7.1 20.9 7q0 0 0 0c1.2 0 2.2 1 2.2 2.2 0 1.2-1 2.2-2.2 2.2q-0.3 0-0.6 0z"/><path  d="m1709.1 1307.6q-0.4 0-0.8-0.1c-1.1-0.5-1.7-1.8-1.2-2.9 32.1-76.8 46.4-158 42.4-241.3 0-1.2 0.9-2.2 2.1-2.3 1.2 0 2.3 0.9 2.3 2.1 4 83.9-10.4 165.7-42.7 243.2-0.4 0.8-1.2 1.3-2.1 1.3z"/><path  d="m1675 1269.8q-0.4 0-0.8-0.1c-1.1-0.5-1.6-1.7-1.2-2.9 70.8-181 17.8-418.9 17.2-421.2-0.2-1.2 0.5-2.4 1.7-2.7 1.2-0.2 2.4 0.5 2.6 1.7 0.6 2.4 53.8 241.5-17.4 423.8-0.3 0.9-1.2 1.4-2.1 1.4z"/><path  d="m509.2 162.2q-0.1 0-0.3 0c-1.2-0.2-2-1.4-1.9-2.6l2.7-16.8c0.2-1.2 1.4-2 2.6-1.9 1.2 0.2 2 1.4 1.8 2.6l-2.7 16.8c-0.2 1.1-1.1 1.9-2.2 1.9z"/><path  d="m503 201.5q-0.2 0-0.4-0.1c-1.2-0.1-2-1.3-1.8-2.5l2.7-16.8c0.2-1.2 1.3-2.1 2.5-1.9 1.2 0.2 2 1.4 1.8 2.6l-2.7 16.8c-0.1 1.1-1.1 1.9-2.1 1.9z"/><path  d="m496.2 171.6q-0.1 0-0.3 0l-16.9-2.7c-1.2-0.2-2-1.3-1.8-2.5 0.2-1.2 1.3-2 2.5-1.8l16.9 2.6c1.2 0.2 2 1.4 1.8 2.6-0.2 1-1.1 1.8-2.2 1.8z"/><path  d="m535.5 177.9q-0.2 0-0.3-0.1l-16.9-2.6c-1.2-0.2-2-1.4-1.8-2.6 0.2-1.2 1.3-2 2.5-1.8l16.9 2.7c1.2 0.2 2 1.3 1.8 2.5-0.2 1.1-1.1 1.9-2.2 1.9z"/><path fill-rule="evenodd" d="m1672.6 823.1c-2.2 0-4.5-0.4-6.7-1.2-4.7-1.9-8.5-5.5-10.5-10.2-4.2-9.7 0.1-21 9.6-25.3 4.6-2.1 9.7-2.2 14.3-0.4 4.8 1.9 8.5 5.5 10.6 10.2 4.1 9.7-0.2 21-9.7 25.3-2.4 1.1-5 1.6-7.6 1.6zm0-33.9c-1.9 0-3.9 0.4-5.8 1.2-7.3 3.3-10.6 12-7.4 19.5 1.6 3.7 4.5 6.4 8.1 7.9 3.6 1.3 7.4 1.2 10.9-0.3 7.3-3.3 10.7-12.1 7.4-19.5-1.5-3.7-4.4-6.5-8-7.9-1.7-0.6-3.4-0.9-5.2-0.9zm-6.7-0.8z"/><path  d="m72.7 1171c-1 0-1.9-0.7-2.1-1.7-44.7-185.7-27.2-385.9-27-387.9 0.1-1.2 1.2-2.1 2.4-2 1.2 0.1 2.1 1.2 2 2.4-0.2 2-17.6 201.5 26.9 386.4 0.2 1.2-0.5 2.4-1.7 2.7q-0.2 0.1-0.5 0.1z"/><path  d="m50.5 1239.8c-1 0-1.9-0.6-2.1-1.5-47.1-150.1-48.1-329.4-48.1-331.2 0-1.2 1-2.2 2.2-2.2q0 0 0 0c1.3 0 2.2 1 2.2 2.2 0 1.8 1 180.5 47.9 329.8 0.3 1.2-0.3 2.4-1.5 2.8q-0.3 0.1-0.6 0.1z"/><path fill-rule="evenodd" d="m80.9 749.3q-0.1 0-0.2 0l-51-3.8c-0.8-0.1-1.5-0.5-1.8-1.3-0.4-0.7-0.3-1.5 0.2-2.2l34.7-49.7c0.5-0.7 1.3-1.1 2.2-1 0.8 0.2 1.5 0.8 1.7 1.6l16.3 53.5c0.2 0.7 0.1 1.5-0.4 2-0.4 0.6-1 0.9-1.7 0.9zm-47-7.9l44 3.2-14.1-46.1z"/><path class="a" d="m1036.4 1661.1h-730.1c-14.6 0-26.5-11.9-26.5-26.5v-807.2c0-112.6 92.2-204.7 204.8-204.7h357c121.7 0 221.2 99.6 221.2 221.2v790.7c0 14.6-11.8 26.5-26.4 26.5z"/><path fill-rule="evenodd" d="m1036.4 1663.3h-730.1c-15.8 0-28.7-12.9-28.7-28.7v-807.2c0-114.1 92.9-206.9 207-206.9h357c123.2 0 223.5 100.3 223.5 223.4v790.7c0 15.8-12.9 28.7-28.7 28.7zm-551.8-1038.4c-111.7 0-202.5 90.9-202.5 202.5v807.2c0 13.4 10.8 24.3 24.2 24.3h730.1c13.4 0 24.2-10.9 24.2-24.3v-790.7c0-120.7-98.2-219-219-219z"/><path  d="m527.4 1047.1c0 0-151.5 534.8-148.8 562.9 0 0 149.8 23.8 313.2 51.1 128.5 21.4 234 21.2 340.4-40.9l77.8-567.2c0 0-131.3-35.7-278.7-43.9-147.4-8.1-303.9 38-303.9 38z"/><path  d="m169.3 1193.8c109.2 43.3 222.7 76.9 345.3 90.3l10.2-208.3z"/><path  d="m1061.6 1073.5c2.2 3.5-22.2 194.3-22.2 194.3 131.6-0.1 280.4-36.9 440.4-97.4z"/><path class="a" d="m716 927.1l-15.1 89.5-52.5 16.8c0 0 33.2 61.1 151.3 58.8 118.2-2.3 138.7-66.8 138.7-66.8l-77.8-22.1-11.7-60z"/><path fill-rule="evenodd" d="m793.1 1094.5c-112.8 0-145.3-57.6-146.6-60.1-0.3-0.6-0.4-1.3-0.1-1.9 0.2-0.6 0.7-1 1.3-1.2l51.2-16.4 14.9-88.2c0.2-1.1 1.3-1.9 2.5-1.8l132.8 16.2c1 0.2 1.7 0.9 1.9 1.8l11.5 58.6 76.5 21.8c0.5 0.1 1 0.5 1.3 1 0.3 0.6 0.3 1.2 0.2 1.7-0.9 2.7-22.4 66.1-140.7 68.4q-3.4 0.1-6.7 0.1zm-141.3-59.9c7.5 10.9 45.6 57.4 147.9 55.4 102.8-2 130.8-52.2 135.7-63.2l-75.4-21.4c-0.8-0.2-1.4-0.9-1.6-1.7l-11.4-58.4-129.2-15.8-14.7 87.5c-0.2 0.8-0.8 1.5-1.5 1.7zm49.1-17.9z"/><path  d="m731.7 905.3c-19.4 6.2-37.3 9.6-53.7-5-7.3-6.5-13-14.7-18.5-22.7q-12.6-18.2-25.2-36.4c-3.1-4.6-6.2-9.1-9-13.9-13.2-23.1-16.5-50.4-19.5-76.9-3.9-33.8 14.8-68 32-96.7 8.2-13.7 17.6-27 30.1-37.1 12.9-10.4 26.8-12.8 42.3-17.2 19.7-5.7 40.4-7.1 60.8-7.1 32.7 0.2 68.3 5.7 90.4 29.7 16.2-8.5 33.5-15.3 51.6-18 18.2-2.7 37.2-1.1 53.9 6.5 18.5 8.4 33.5 24.3 40.9 43.2 8.2 20.7 3.3 39 1.6 60.1-1.7 20.1-10.7 37.2-17.1 55.9-5.8 17.2-8.1 35.6-14 53-3.7 10.8-8.1 21.6-15.4 30.4-7.3 8.7-18.1 15.2-29.5 15-13.2-0.3-24.8-9.5-32.8-20.1-8-10.5-13.6-22.8-21.6-33.4-4.7-6.3-10.5-12-17.8-14.9-28.9-11.2-49.7 36.6-63 54.4-17.4 23.3-38.4 42.2-66.5 51.2z"/><path class="a" d="m956.5 846.7c-5.5-4.3-19-0.4-23.7 2.1 0.4-22.8-2.8-47.5-15.2-67.2-5.3-8.4-12.1-13.9-19.5-20.4-4.4-3.8-22.5-22-19.7-28.8-16.8 40-57.1 66.2-99.1 76.9-16.4 4.2-33.6 6.5-48.7 14.3-9.2 4.7-17.6 12-22.6 21.1-4.2 7.8-1.9 20.1-11.1 14.2-7.1-4.6-22.2-30-33-24.1-16.1 8.8 9.9 97.5 41.3 100.6 18.5 51.8 41.2 103 100.5 107.8 74.1 6.1 102.9-31.7 121.9-126.2 20.2-18.8 44.9-57.7 28.9-70.3z"/><path fill-rule="evenodd" d="m820.4 1046.1q-7.1 0-14.9-0.7c-59.7-4.8-83.2-55.8-101.9-108-21.7-3.7-39.2-42.9-44.8-70.2-1.7-8.7-4.9-29.4 4.1-34.3 9-5 19.1 6.7 27.3 16 3.1 3.5 6 6.9 7.9 8.1 2.2 1.5 3 1.2 3 1.2 0.9-0.4 1.6-3.6 2.1-5.7 0.6-2.8 1.3-6 2.9-8.8 4.8-8.9 13.2-16.8 23.5-22.1 11.4-5.8 24.1-8.7 36.4-11.4 4.2-1 8.5-1.9 12.7-3 46.2-11.8 82.7-40.1 97.7-75.6 0.4-1.2 1.7-1.7 2.8-1.2 1.2 0.5 1.7 1.8 1.2 2.9-1.7 4.2 11.4 19.5 19.2 26.3l1.4 1.2c6.8 5.9 13.3 11.5 18.5 19.7 10.3 16.4 15.5 38.2 15.5 64.9 6.4-2.4 17.4-4.7 22.8-0.4 3.8 2.9 5.8 7.2 6 12.7 0.8 18.8-19.4 46.4-34.2 60.4-18.7 92.6-48.1 128-109.2 128zm-153-209.9q-1.3-0.1-2.4 0.6c-3.6 1.9-5.5 11.8-1.8 29.6 6.2 30.7 24.2 65 42.3 66.8 0.8 0.1 1.5 0.6 1.8 1.4 19.1 53.4 41 101.8 98.6 106.5 69.5 5.6 99.7-25.8 119.5-124.5 0.1-0.5 0.4-0.9 0.7-1.2 16.5-15.4 33.9-41.7 33.3-57.6-0.2-4.1-1.6-7.2-4.3-9.4-4.2-3.3-16.3-0.3-21.3 2.3-0.7 0.4-1.5 0.4-2.2 0-0.6-0.4-1-1.1-1-1.9 0.5-27.4-4.5-49.6-14.9-66-4.8-7.6-10.7-12.7-17.6-18.7l-1.4-1.2c-0.2-0.2-14.5-13-19.2-23.2-17 33.7-53 60.3-97.7 71.8-4.3 1.1-8.6 2-12.9 3-12 2.7-24.4 5.4-35.3 11.1-9.5 4.9-17.2 12-21.7 20.2-1.2 2.2-1.8 5.1-2.4 7.6-0.9 4-1.7 7.7-4.7 8.9-2.6 1-5.3-0.4-7.1-1.6-2.4-1.5-5.4-5-8.9-8.9-5.8-6.7-13.6-15.6-19.4-15.6z"/><path class="a" d="m694.7 871c-6.8-24.8-33.8-93.2-15.4-109.3 21.5-18.9 9.9-36.2 9.1-37.3q-0.1 0-0.2 0l-34.3 25.9c-1.3 1-3-0.5-2.3-1.9 6.5-12.3 20.9-39.5 26.9-49.8 5.8-9.8 4.9-25.1 3.9-32.7-0.2-2-2.5-2.8-4-1.5l-43.2 40.4c0 0 24.8-32.8 29.1-46.5 2.7-8.7-0.2-15.8-2.7-19.8-1.2-2-8.8 0.3-10.2 2.1l-62.8 86.6c-11.9 15.6-13.2 36.8-3.4 53.8l24.4 63.6c8 13.8 8.7 25.6 7.3 41.1-0.8 8.9-30.9 17-39.6 19-102.4 24.3-453.5 71-445.7 234.6 4 85.1 142 76.9 231.3 48.3 153.1-49.1 306.2-240.8 306.2-240.8 0 0 32.4-51 25.6-75.8z"/><path fill-rule="evenodd" d="m242.4 1209.5c-34 0-65-5.8-85.7-20.2-17.1-11.9-26.3-28.6-27.3-49.9-3-62.5 45.9-115.4 145.4-157.2 82.8-34.8 184.4-55.3 251.6-68.9 20-4.1 37.3-7.6 50.4-10.7 18-4.3 37.4-11.7 37.9-17.1 1.4-15.1 0.7-26.5-7-39.8q-0.1-0.2-0.2-0.3l-24.3-63.4c-10.2-17.8-8.8-39.8 3.6-56.2l62.8-86.5c1.7-2.2 7.1-3.9 10.2-3.8 2.2 0.1 3.2 1.1 3.7 1.8 2.9 4.8 5.8 12.4 2.9 21.6-2.3 7.2-9.8 19.2-16.6 29.3l27.1-25.4c1.3-1.2 3.1-1.5 4.7-0.9 1.7 0.6 2.8 2 3 3.7 1 8.4 1.9 23.9-4.2 34.2-5.7 9.6-18.8 34.4-25.5 47l32-24.1c0.5-0.4 1.1-0.5 1.6-0.5 0.6 0.1 1.3 0.4 1.6 0.9 4.1 5.3 10.4 22.9-9.4 40.2-14 12.3 1.6 61 10.9 90.1 2.1 6.7 4 12.5 5.2 17 7 25.5-24.5 75.4-25.9 77.5q0 0.1-0.1 0.2c-1.5 2-155.3 192.9-307.2 241.5-36.8 11.8-81.1 19.9-121.2 19.9zm369.2-365.9c8.2 14.2 8.9 26.7 7.5 42.3-0.9 10.3-29.2 18.1-41.3 21-13.2 3.1-30.5 6.6-50.5 10.7-67.1 13.5-168.4 34-250.8 68.7-97.6 40.9-145.6 92.4-142.7 152.9 0.9 19.8 9.5 35.4 25.4 46.5 43.9 30.5 136 21.2 203.1-0.2 149.3-47.9 300.9-234.9 305-240 1.6-2.5 31.6-50.8 25.3-73.9q0 0 0 0c-1.2-4.4-3.1-10.2-5.2-16.9-10.3-32.1-25.8-80.5-9.6-94.7 16.7-14.6 12.3-27.7 9.9-32.4l-32.4 24.5c-1.4 1-3.4 1-4.7-0.2-1.4-1.1-1.7-3-0.9-4.6 6-11.5 20.8-39.4 26.9-49.8 5.6-9.4 4.4-25.1 3.6-31.4l-1.8-1.7 1.5 1.6-43.2 40.4c-0.8 0.8-2.1 0.8-3 0-0.8-0.7-0.9-2-0.2-2.9 0.2-0.4 24.5-32.7 28.7-45.9 2.3-7.5 0.1-13.7-2.3-17.7-1.4-0.2-5.9 1-6.7 2l-62.8 86.6c-11.4 15-12.7 35.1-3.3 51.4q0.1 0.2 0.2 0.3zm57.5 103.2z"/><path class="a" d="m914.8 909.1c5.5-25.1 39.8-111.8 20.6-126.9-22.5-17.7-16.2-52.1-12.2-40.5q0 0 0.1 0l27.6 18.6c3.3 2.3 7.3-1.5 5.3-4.9-7.9-13.2-19.2-32-24.5-40-6.3-9.4-6.2-24.8-5.7-32.5 0.2-1.9 2.4-2.9 3.9-1.6l45.3 38c0 0-26.4-31.5-31.5-44.9-3.1-8.5-0.6-15.8 1.7-19.9 1.1-2 7.6-1 9 0.8l68.6 83.9c12.7 14.9 15.1 36.1 6.2 53.6l-29.1 56.9c-7.2 14.2-9.7 30.1-7.5 45.4 1.3 8.9 8.1 15.9 16.9 17.5 103.5 18.8 489.8 62.7 491.6 214 1 85.1-120.9 75.7-211.6 51.8-155.4-40.8-335.3-215.7-335.3-215.7 0 0-44.9-28.4-39.4-53.6z"/><path fill-rule="evenodd" d="m1402.3 1197.3c-43 0-88.7-10.2-113.4-16.8-152.1-40-329.7-209.9-336.1-216-3.6-2.4-45.8-30.1-40.1-55.8 1.3-6.1 4.3-15.6 7.7-26.6 10.1-32.8 27.1-87.5 13.6-98.2-17.2-13.5-18.4-36.6-16-43.5 0.9-2.7 2.5-3.2 3.5-3.2 1.9 0 2.9 1.7 3.4 3l27.3 18.3c0.9 0.7 1.6 0.1 1.8-0.1 0.3-0.3 0.8-1 0.3-1.9-8.3-13.8-19.2-32-24.5-39.8-6.6-9.9-6.6-25.5-6-33.9 0.1-1.7 1.2-3.2 2.8-3.9 1.6-0.7 3.4-0.4 4.8 0.7l28.4 23.9c-7.4-9.7-15.5-21.3-18.1-28.4-3.4-9.1-0.9-16.8 1.8-21.7 0.4-0.8 1.5-1.9 3.9-2.2 2.9-0.3 7.1 0.7 8.7 2.6l68.6 84c13.3 15.6 15.8 37.6 6.5 56l-29.1 56.9c-7 13.7-9.5 28.9-7.3 44.1 1.2 7.9 7.2 14.2 15.1 15.6 11.1 2 25.6 4.4 42.4 7.1 68.1 10.9 182 29.2 276.8 61.4 114.9 38.9 173.5 88.6 174.2 147.7 0.3 21.7-7.3 38.7-22.5 50.5-19.3 15.1-48.2 20.2-78.5 20.2zm-480.5-453.9c-1.1 6.6 0.1 25.4 14.9 37.1 15.9 12.5-0.3 64.7-12.1 102.9-3.4 10.9-6.3 20.4-7.6 26.2-5.1 23.4 37.9 51 38.4 51.3q0.2 0.1 0.3 0.2c1.8 1.8 181.3 175 334.3 215.2 41.6 10.9 143.1 32.5 188.1-2.6 14-11 21-26.8 20.8-47.1-0.7-57-58.3-105.3-171.2-143.6-94.4-32-208.1-50.2-276.1-61.2-16.8-2.7-31.3-5-42.5-7.1-9.7-1.7-17.2-9.5-18.6-19.3-2.4-16.1 0.3-32.2 7.7-46.7l29-56.9c8.6-16.8 6.2-36.9-5.9-51.2l-68.6-83.9c-0.7-0.8-4.4-1.4-5.5-1-2.2 4.1-4.2 10.5-1.4 17.9 4.8 13 30.9 44 31.1 44.3 0.8 0.8 0.7 2.1-0.1 2.9-0.8 0.9-2.1 0.9-3 0.2l-45.3-38-2.5-0.1 2.2 0.2c-0.4 6.3-0.8 22 5.3 31.1 5.3 8 16.3 26.2 24.6 40.1 1.4 2.4 1 5.3-1 7.3-2.1 1.9-5.1 2.2-7.4 0.6l-27.3-18.5q-0.4-0.1-0.6-0.3zm-7 165.7z"/><path class="a" d="m1543.6 1509.1l-692.1 1.4c-6.1 0-10.3-4.4-9.8-10.3l31.1-422.1c0.7-10.3 10.3-20 20.9-20l682.7 0.6z"/><path fill-rule="evenodd" d="m851.5 1512.8c-3.6 0-6.8-1.4-9-3.8-2.2-2.3-3.3-5.5-3-8.9l31.1-422.2c0.8-11.7 11.6-22 23.1-22l682.7 0.6c0.6 0 1.2 0.2 1.6 0.7 0.5 0.4 0.7 1 0.6 1.7l-32.8 450.3c-0.1 1.2-1 2.1-2.2 2.1zm42.2-452.5c-9.1 0-18 8.6-18.7 17.9l-31.1 422.2c-0.2 2.2 0.5 4.2 1.8 5.6 1.4 1.5 3.4 2.4 5.8 2.4l690.1-1.5 32.5-446zm649.9 448.8z"/><path class="a" d="m1557.9 1508.5h-678c-6.1 0-10.3-4.4-9.8-10.3l30.7-418.4c0.8-11.6 12.1-21.9 24-21.9h669.2c6.1 0 10.3 4.4 9.8 10.3l-31.3 427c-0.5 7.1-7.4 13.3-14.6 13.3z"/><path fill-rule="evenodd" d="m1557.9 1510.7h-678c-3.6 0-6.8-1.3-9-3.7-2.2-2.3-3.3-5.5-3-9l30.7-418.4c0.9-12.7 13.1-23.9 26.2-23.9h669.2c3.6 0 6.8 1.3 9 3.7 2.2 2.4 3.3 5.5 3 9l-31.3 426.9c-0.6 8.2-8.4 15.4-16.8 15.4zm-633.1-450.6c-10.7 0-21.1 9.5-21.9 19.9l-30.6 418.4c-0.2 2.2 0.5 4.2 1.8 5.6 1.4 1.5 3.4 2.3 5.8 2.3h678c6.1 0 12-5.4 12.4-11.3l31.3-426.9c0.2-2.2-0.4-4.2-1.8-5.7-1.4-1.5-3.4-2.3-5.8-2.3z"/><path  d="m1144.6 1611.6h103.8l25.9-282c0.3-3.4-2-5.9-5.4-5.9h-86.2c-6.6 0-12.1 5.2-12.7 12z"/><path class="a" d="m1160.9 1611.6h103.8l25.5-282.1h-103.7z"/><path fill-rule="evenodd" d="m1264.7 1613.8h-103.8c-0.6 0-1.2-0.2-1.6-0.7-0.4-0.4-0.6-1-0.6-1.7l25.6-282.1c0.1-1.1 1-2 2.2-2h103.7c0.6 0 1.2 0.2 1.6 0.7 0.5 0.5 0.7 1.1 0.6 1.7l-25.5 282.1c-0.1 1.2-1.1 2-2.2 2zm-101.4-4.4h99.4l25.1-277.7h-99.3z"/><path  d="m1339.7 1616.9h-286c-1.5 0-2.8-1.2-2.8-2.7v-43.9c0-1.6 1.3-2.8 2.8-2.8h286c1.5 0 2.8 1.2 2.8 2.8v43.9c0 1.5-1.3 2.7-2.8 2.7z"/><path class="a" d="m1357.1 1612.6h-291.5v-40.8h291.5z"/><path fill-rule="evenodd" d="m1357.1 1614.8h-291.5c-1.2 0-2.2-1-2.2-2.2v-40.8c0-1.2 1-2.2 2.2-2.2h291.5c1.3 0 2.2 1 2.2 2.2v40.8c0 1.2-0.9 2.2-2.2 2.2zm-289.3-4.4h287.1v-36.4h-287.1z"/><path class="a" d="m1640.2 1826.3h-1513.2l-13.6-143.8h1537.4z"/><path class="a" d="m99.5 1697.8h1593.4c3.5 0 6.4-2.8 6.4-6.4v-72.6c0-3.6-2.9-6.4-6.4-6.4h-1593.4c-3.6 0-6.5 2.8-6.5 6.4v72.6c0 3.6 2.9 6.4 6.5 6.4z"/><path fill-rule="evenodd" d="m1692.9 1700h-1593.4c-4.8 0-8.7-3.8-8.7-8.6v-72.6c0-4.8 3.9-8.6 8.7-8.6h1593.4c4.7 0 8.6 3.8 8.6 8.6v72.6c0 4.8-3.9 8.6-8.6 8.6zm-1593.4-85.4c-2.4 0-4.3 1.9-4.3 4.2v72.6c0 2.3 1.9 4.2 4.3 4.2h1593.4c2.3 0 4.2-1.9 4.2-4.2v-72.6c0-2.3-1.9-4.2-4.2-4.2z"/><path  d="m625 1675.8c-1.2 0-2.2-1-2.2-2.2v-39.3c0-1.2 1-2.2 2.2-2.2 1.2 0 2.2 1 2.2 2.2v39.3c0 1.2-1 2.2-2.2 2.2z"/><path  d="m281.5 1830c-1.2 0-2.2-1-2.2-2.2l-1.6-105.8c0-1.2 0.9-2.2 2.2-2.2 1.2 0 2.2 0.9 2.2 2.2l1.6 105.8c0 1.2-1 2.2-2.2 2.2q0 0 0 0z"/><path  d="m126 1828.6c-1.1 0-2.1-0.9-2.2-2.1l-9.1-125.8c-0.1-1.3 0.8-2.3 2-2.4 1.2-0.1 2.3 0.8 2.4 2l9.1 125.9c0.1 1.2-0.8 2.3-2 2.4q-0.1 0-0.2 0z"/><path  d="m1641.2 1828.6q-0.1 0-0.2 0c-1.2-0.1-2.1-1.2-1.9-2.4l13.6-128.3c0.1-1.2 1.2-2.1 2.4-1.9 1.2 0.1 2.1 1.2 2 2.4l-13.7 128.2c-0.1 1.2-1 2-2.2 2z"/><path  d="m374.9 403.7c-0.3-87.6-71.6-158.8-159.2-158.9-87.7-0.2-158.4 70.7-158.1 158.3 0.3 87.6 71.7 158.8 159.3 159 87.6 0.1 158.4-70.8 158-158.4z"/><path class="a" d="m166.3 326.8l-18.6 0.1c-3.2 0-5.8 2.6-5.8 5.9l0.3 141.6c0 3.3 2.7 5.9 5.9 5.9l18.6-0.1c3.3 0 5.9-2.6 5.9-5.8l-0.4-141.7c0-3.2-2.6-5.9-5.9-5.9z"/><path class="a" d="m225.5 371.3h-18.6c-3.2 0-5.9 2.7-5.9 5.9l0.3 97.1c0 3.2 2.6 5.9 5.9 5.8h18.6c3.2 0 5.8-2.6 5.8-5.9l-0.2-97.1c0-3.2-2.7-5.8-5.9-5.8z"/><path class="a" d="m284.7 428.1h-18.6c-3.3 0-5.9 2.7-5.9 5.9l0.1 40.1c0 3.3 2.7 5.9 5.9 5.9l18.6-0.1c3.2 0 5.9-2.6 5.9-5.8l-0.1-40.2c0-3.2-2.7-5.9-5.9-5.8z"/><path class="a" d="m301.4 399.6q-0.5 0-1-0.3c-38.1-19.3-81.4-54-132.6-106.1-0.9-0.8-0.9-2.2 0-3.1 0.9-0.8 2.3-0.8 3.1 0.1 50.9 51.7 93.9 86.1 131.5 105.2 1.1 0.5 1.5 1.9 1 2.9-0.4 0.8-1.2 1.3-2 1.3z"/><path class="a" d="m304.7 403.2q0 0-0.1 0l-30.8-1.8c-1.2 0-2.2-1.1-2.1-2.3 0.1-1.2 1.1-2.1 2.3-2.1l27.9 1.7-5.7-26.2c-0.2-1.2 0.5-2.4 1.7-2.6 1.2-0.3 2.4 0.5 2.6 1.7l6.4 29c0.1 0.6-0.1 1.4-0.5 1.9-0.4 0.5-1 0.7-1.7 0.7z"/></svg>