<svg version="1.2" xmlns="http://www.w3.org/2000/svg" viewBox="0 0 1834 1830" width="1834" height="1830"><style>.a{fill:#fff}</style><path class="a" d="m745.9 133.2h-62.2c0 0-21.8 157-81.1 223.1-56.1 62.7-161.1 45.5-161.1 45.5q0 0-0.1 0.3c-40.7-11.1-87-8.6-118.6-0.3-49.5 13.1-85.3 35.8-85.3 35.8 0 0-76.4 48.3-74.6 140.5 1.4 71.5 55.1 156.7 54.7 162.8-4.8 68.2-10 65.9-2.9 90.2 17.3 59 262.2 34.7 266.5 7.6 4-24.5-7.4-65.6-1.7-120.8 9-87 26.9-118 47.3-171.6 112.4-9.2 185.1-72.7 207.7-174.7 23.3-105.3 11.4-238.4 11.4-238.4z"/><path fill-rule="evenodd" d="m334.7 869.7c-58.5 0-113.9-9.8-122.1-38-4.7-16-4.1-21.2-1.9-40.4 1.2-11 3-26.2 4.6-50.6-0.1-1.3-3.6-8.3-7.4-15.7-14.9-29.9-46.1-92.1-47.2-146.9-1.8-92.3 74.9-141.9 75.6-142.3 0.4-0.3 36.7-23.1 86-36.1 28.8-7.7 75-11.6 118.5 0q0.5-0.2 1-0.1c1.1 0.2 104.6 16.2 159.2-44.7 58.1-64.9 80.3-220.5 80.5-222 0.1-1.1 1.1-1.9 2.2-1.9h62.2c1.1 0 2.1 0.8 2.2 2 0.1 1.3 11.7 134.7-11.4 239-23.1 104.3-97.1 166.9-208.4 176.4-3.3 8.9-6.7 17.1-9.9 25.1-15.7 39.3-29.3 73.1-36.7 144.7-3.2 31.1-0.9 57.9 0.9 79.4 1.4 17.1 2.6 30.6 0.8 41.5-2.6 16.6-69.1 26.7-113.1 29.5-11.7 0.7-23.7 1.1-35.6 1.1zm47.7-472.8c-23 0-44 3.1-59 7.1-48.6 12.8-84.3 35.3-84.7 35.5-0.7 0.5-75.3 48.8-73.6 138.6 1.1 53.7 32 115.3 46.8 144.9 6.1 12.1 8 16 7.9 18-1.7 24.6-3.5 39.7-4.7 50.8-2.2 19-2.7 23.5 1.7 38.7 9.2 31.4 88.3 37.7 153.3 33.7 63.3-4 107.4-16.6 108.9-25.8 1.7-10.4 0.5-24.3-0.8-40.4-1.9-21.7-4.2-48.7-0.9-80.3 7.5-72.1 21.2-106.3 37-145.8 3.4-8.4 6.8-17.1 10.4-26.4 0.3-0.8 1-1.4 1.9-1.5 109.9-8.9 183-70.3 205.7-172.9 21.5-96.7 12.9-218.6 11.5-235.7h-58.2c-2.7 18.2-25.8 160.5-81.3 222.4-53.1 59.3-150.3 48-162 46.3-0.5 0.2-1 0.3-1.5 0.2-19.4-5.3-39.5-7.4-58.4-7.4z"/><path class="a" d="m1521.1 1721.4h-1085.5c-33.7 0-59.4-30.9-54-64.9l233.5-1471.9c4.2-27.1 27.1-47 54-47h1085.4c33.7 0 59.4 30.9 54 64.9l-233.4 1471.9c-4.3 27.1-27.2 47-54 47z"/><path fill-rule="evenodd" d="m1521.1 1723.6h-1085.5c-16.4 0-32.1-7.3-42.9-19.9-11.2-13.1-16-30.4-13.3-47.5l233.5-1472c4.4-28.3 28.1-48.8 56.2-48.8h1085.4c16.5 0 32.1 7.3 42.9 19.9 11.2 13.1 16 30.4 13.3 47.5l-233.4 1471.9c-4.5 28.3-28.2 48.9-56.2 48.9zm-852-1583.8c-25.9 0-47.7 19-51.8 45.1l-233.5 1472c-2.5 15.8 2 31.8 12.3 43.9 10 11.6 24.4 18.3 39.5 18.3h1085.5c25.8 0 47.6-18.9 51.8-45.1l233.4-1471.9c2.5-15.8-1.9-31.8-12.3-43.9-9.9-11.7-24.3-18.4-39.5-18.4z"/><path class="a" d="m1486.6 1717.5h-1085.5c-33.7 0-59.4-30.8-54-64.7l233.5-1469.4c4.3-27 27.1-46.9 54-46.9h1085.4c33.7 0 59.4 30.8 54 64.8l-233.4 1469.4c-4.3 27-27.2 46.8-54 46.8z"/><path fill-rule="evenodd" d="m1486.6 1719.8h-1085.5c-16.5 0-32.1-7.3-42.9-20-11.2-13-16-30.3-13.3-47.4l233.5-1469.3c4.5-28.3 28.1-48.8 56.2-48.8h1085.4c16.5 0 32.1 7.3 43 19.9 11.1 13.1 15.9 30.4 13.2 47.4l-233.4 1469.4c-4.5 28.3-28.2 48.8-56.2 48.8zm-852-1581c-25.9 0-47.7 18.9-51.8 45l-233.5 1469.3c-2.5 15.8 2 31.8 12.3 43.8 9.9 11.7 24.3 18.4 39.5 18.4h1085.5c25.8 0 47.6-18.9 51.8-45l233.4-1469.4c2.5-15.7-1.9-31.7-12.2-43.8-10-11.6-24.4-18.3-39.6-18.3z"/><path class="a" d="m1309.1 273h-314.7c-50.2 0-88.5-46.1-80.1-96.6l7.4-44.3c0.7-4.5 4.5-7.8 9-7.8h484.7c5.6 0 10 5.2 9 10.9l-7.4 44.9c-8.9 53.6-54.5 92.9-107.9 92.9z"/><path fill-rule="evenodd" d="m1309.1 275.2h-314.7c-24.2 0-47.3-10.7-63.1-29.4-16.3-19.3-23.3-44.7-19.2-69.8l7.4-44.2c0.9-5.6 5.6-9.7 11.2-9.7h484.7c3.3 0 6.4 1.5 8.6 4 2.2 2.6 3.2 6.1 2.6 9.5l-7.4 44.9c-9.2 54.9-55.4 94.7-110.1 94.7zm-378.4-148.6c-3.4 0-6.3 2.4-6.8 5.9l-7.4 44.3c-3.9 23.7 2.7 47.8 18.2 66.1 15 17.7 36.8 27.9 59.7 27.9h314.7c52.5 0 96.9-38.3 105.7-91.1l7.4-44.8c0.4-2.1-0.2-4.3-1.6-5.9-1.3-1.6-3.2-2.4-5.2-2.4z"/><path fill-rule="evenodd" class="a" d="m1087 209.4l21.8-141.1c5.9-38.1 38-66.1 75.8-66.1 47.1 0 83.1 43.2 75.7 90.8l-18.4 119.7c-0.8 5.2-5.1 8.6-10.2 8.6h-134.4c-6.4 0-11.3-5.5-10.3-11.9zm96.2-96c15.3 0 28.3-11.3 30.9-26.8l0.1-0.9c3.2-19.5-11.5-37.4-30.9-37.4-15.3 0-28.4 11.4-30.9 26.8l-0.1 0.9c-3.3 19.5 11.5 37.4 30.9 37.4z"/><path fill-rule="evenodd" d="m1231.7 223.5h-134.4c-3.8 0-7.3-1.6-9.7-4.4-2.3-2.7-3.3-6.4-2.8-10.1l21.8-141.1c6.1-39.3 38.9-67.9 78-67.9 22.7 0 44.3 10 59.3 27.5 15.5 18.1 22.3 42.1 18.6 65.9l-18.4 119.7c-1 6.1-6.1 10.4-12.4 10.4zm-47.1-219.1c-36.9 0-67.8 27-73.6 64.2l-21.8 141.1c-0.4 2.4 0.3 4.7 1.8 6.5 1.5 1.8 3.8 2.8 6.3 2.8h134.4c4.1 0 7.4-2.7 8-6.6l18.4-119.7c3.5-22.5-2.9-45.2-17.6-62.3-14.1-16.5-34.5-26-55.9-26zm-1.4 111.2c-9.8 0-19-4.3-25.4-11.8-6.6-7.8-9.4-18-7.7-28.2q0 0 0 0l0.1-0.9c2.7-16.5 16.7-28.6 33.1-28.6 9.8 0 19 4.3 25.4 11.8 6.6 7.8 9.4 18 7.7 28.2l-0.1 0.9c-2.8 16.6-16.7 28.6-33.1 28.6zm-28.7-39.2c-1.5 8.8 1 17.7 6.7 24.5 5.5 6.5 13.5 10.2 22 10.2 14.2 0 26.3-10.4 28.7-24.8l0.1-0.9c1.5-8.9-1-17.8-6.7-24.6-5.6-6.5-13.6-10.2-22-10.2-14.3 0-26.3 10.4-28.7 24.9z"/><path fill-rule="evenodd" d="m1199.8 1158.2h-45.5c-5.8 0-11.3-2.6-15.1-7-3.9-4.6-5.6-10.6-4.7-16.6l94.1-595.7c1.6-10 9.9-17.2 19.8-17.2h45.5c5.8 0 11.4 2.6 15.2 7 3.9 4.6 5.6 10.6 4.6 16.6l-94.1 595.7c-1.5 10-9.9 17.2-19.8 17.2zm33.2-618.6l-94.1 595.7c-0.7 4.7 0.6 9.4 3.7 13 2.9 3.5 7.2 5.4 11.7 5.4h45.5c7.7 0 14.2-5.6 15.4-13.4l94.1-595.7c0.8-4.7-0.6-9.4-3.6-13-3-3.5-7.3-5.4-11.8-5.4h-45.5c-7.7 0-14.2 5.6-15.4 13.4z"/><path fill-rule="evenodd" d="m1067.3 1158.2h-45.5c-5.8 0-11.3-2.6-15.1-7-4-4.5-5.7-10.6-4.7-16.5l68.2-442.9c1.6-9.9 9.9-17.2 19.8-17.2h45.6c5.8 0 11.3 2.6 15.1 7 3.9 4.6 5.6 10.6 4.7 16.6l-68.3 442.8c-1.6 9.9-9.9 17.2-19.8 17.2zm22.7-479.1c-7.7 0-14.2 5.6-15.4 13.4l-68.3 442.8c-0.7 4.7 0.7 9.4 3.7 13 3 3.5 7.3 5.4 11.8 5.4h45.5c7.7 0 14.2-5.6 15.4-13.4l68.3-442.8c0.7-4.7-0.6-9.4-3.7-13-2.9-3.5-7.2-5.4-11.7-5.4z"/><path fill-rule="evenodd" d="m934.8 1158.2h-45.5c-5.8 0-11.3-2.6-15.1-7-3.9-4.6-5.6-10.6-4.7-16.6l50.9-328.1c1.6-10 9.9-17.2 19.8-17.2h45.6c5.8 0 11.3 2.6 15.1 7 3.9 4.6 5.6 10.6 4.7 16.6l-51 328.1c-1.5 10-9.9 17.2-19.8 17.2zm-10-351l-50.9 328.1c-0.7 4.7 0.6 9.4 3.6 13 3 3.5 7.3 5.4 11.8 5.4h45.5c7.7 0 14.2-5.6 15.4-13.4l51-328.1c0.7-4.7-0.6-9.4-3.7-13-2.9-3.5-7.2-5.4-11.7-5.4h-45.6c-7.7 0-14.2 5.6-15.4 13.4z"/><path fill-rule="evenodd" d="m802.3 1158.2h-45.5c-5.8 0-11.3-2.6-15.1-7-3.9-4.6-5.6-10.6-4.7-16.6l33.6-213.5c1.6-9.9 9.9-17.1 19.8-17.1h45.6c5.8 0 11.3 2.5 15.1 7 3.9 4.6 5.6 10.6 4.7 16.6l-33.7 213.4c-1.5 10-9.9 17.2-19.8 17.2zm-11.9-249.8c-7.7 0-14.1 5.7-15.4 13.4l-33.6 213.5c-0.7 4.7 0.6 9.4 3.7 13 2.9 3.5 7.2 5.4 11.7 5.4h45.5c7.7 0 14.2-5.6 15.4-13.4l33.7-213.4c0.7-4.7-0.6-9.4-3.7-13-2.9-3.5-7.2-5.5-11.7-5.5zm-17.6 13.1z"/><path fill-rule="evenodd" d="m669.6 1158.2h-45.6c-5.7 0-11.2-2.5-15-6.9-3.9-4.5-5.7-10.5-4.8-16.4l16.9-119.1c1.4-10 9.9-17.5 19.8-17.5h45.6c5.8 0 11.2 2.5 15 6.9 3.9 4.5 5.7 10.4 4.9 16.4l-17 119.1c-1.4 10-9.9 17.5-19.8 17.5zm-44.1-141.8l-16.9 119.1c-0.7 4.7 0.7 9.4 3.7 12.9 3 3.4 7.3 5.3 11.7 5.3h45.6c7.7 0 14.3-5.8 15.4-13.6l17-119.1c0.6-4.7-0.8-9.4-3.8-12.9-3-3.4-7.2-5.4-11.7-5.4h-45.6c-7.7 0-14.3 5.9-15.4 13.7z"/><path fill-rule="evenodd" d="m604.4 1316.5c-16.7 0-30.3-13.8-30.3-30.8 0-17 13.6-30.8 30.3-30.8 16.7 0 30.3 13.8 30.3 30.8 0 17-13.6 30.8-30.3 30.8zm0-57.2c-14.3 0-25.8 11.9-25.8 26.4 0 14.5 11.5 26.3 25.8 26.3 14.2 0 25.8-11.8 25.8-26.3 0-14.5-11.6-26.4-25.8-26.4z"/><path fill-rule="evenodd" d="m580.4 1434.3c-16.7 0-30.2-13.8-30.2-30.8 0-17 13.5-30.8 30.2-30.8 16.7 0 30.3 13.8 30.3 30.8 0 17-13.6 30.8-30.3 30.8zm0-57.2c-14.2 0-25.8 11.8-25.8 26.4 0 14.5 11.6 26.3 25.8 26.3 14.3 0 25.8-11.8 25.8-26.3 0-14.6-11.5-26.4-25.8-26.4z"/><path fill-rule="evenodd" d="m559.3 1557.8c-16.7 0-30.3-13.8-30.3-30.8 0-17 13.6-30.8 30.3-30.8 16.7 0 30.2 13.8 30.2 30.8 0 17-13.5 30.8-30.2 30.8zm0-57.1c-14.3 0-25.8 11.8-25.8 26.3 0 14.5 11.5 26.4 25.8 26.4 14.2 0 25.8-11.9 25.8-26.4 0-14.5-11.6-26.3-25.8-26.3z"/><path  d="m986.4 1287.9h-300.3c-1.2 0-2.2-1-2.2-2.2 0-1.2 1-2.2 2.2-2.2h300.3c1.2 0 2.2 1 2.2 2.2 0 1.2-1 2.2-2.2 2.2z"/><path class="a" d="m967.6 1404.7h-31.2c-1.3 0-2.3-1-2.3-2.2 0-1.2 1-2.2 2.3-2.2h31.2c1.2 0 2.2 1 2.2 2.2 0 1.2-1 2.2-2.2 2.2z"/><path  d="m879.3 1404.7h-211.9c-1.3 0-2.3-1-2.3-2.2 0-1.2 1-2.2 2.3-2.2h211.9c1.2 0 2.2 1 2.2 2.2 0 1.2-1 2.2-2.2 2.2z"/><path  d="m943.2 1525.4h-300.3c-1.2 0-2.2-1-2.2-2.2 0-1.2 1-2.2 2.2-2.2h300.3c1.2 0 2.2 1 2.2 2.2 0 1.2-1 2.2-2.2 2.2z"/><path class="a" d="m625 746.2c0 0 44.9-0.6 68.4-10.8 23.5-10.2 23.1 7.5 16.5 13.7-5.4 5-37.8 23.1-66.9 25.2z"/><path fill-rule="evenodd" d="m643 776.5c-0.8 0-1.5-0.4-1.9-1l-17.9-28.1c-0.5-0.7-0.5-1.5-0.1-2.2 0.4-0.7 1.1-1.2 1.9-1.2 0.5 0 44.7-0.8 67.5-10.7 14.4-6.2 19.9-2.1 21.9 0.9 3.3 5 1 12.7-3 16.5-6.2 5.8-39.3 23.7-68.2 25.8q-0.1 0-0.2 0zm-14-28.2l15.1 23.7c28.5-2.6 59.8-20.4 64.2-24.6 2.7-2.5 4.4-7.7 2.4-10.7-2.1-3.2-8.1-2.9-16.4 0.7-19.8 8.6-53.7 10.5-65.3 10.9z"/><path class="a" d="m559.5 729.4l22.3-44 20.7 12c1.1 0.7 2.1 1.6 2.8 2.7l1.3 2c1.6 2.5 4.5 4 7.5 3.8 1.6-0.1 3.2 0.3 4.6 1.1l153.6 89.1q1.9 1.2 3.5 2.7l31.7 31.9-42.3-7.4q-3.5-0.6-6.7-2l-160.7-74.2c-1.4-0.7-2.6-1.7-3.4-2.9l-0.2-0.3c-1.7-2.4-4.4-3.8-7.3-3.7l-1.5 0.1c-1.3 0.1-2.6-0.2-3.8-0.7z"/><path fill-rule="evenodd" d="m807.5 832.9q-0.2 0-0.4 0l-42.3-7.4c-2.5-0.4-4.9-1.2-7.2-2.2l-160.7-74.2c-1.8-0.8-3.3-2.1-4.4-3.7l-0.2-0.3c-1.2-1.7-3.2-2.7-5.3-2.6h-1.4c-1.7 0.1-3.4-0.2-5-0.9l-22-10.2c-0.5-0.2-1-0.7-1.2-1.3-0.1-0.5-0.1-1.2 0.2-1.7l22.2-44c0.3-0.5 0.8-0.9 1.4-1.1 0.6-0.2 1.2-0.1 1.7 0.2l20.7 12c1.4 0.8 2.7 2 3.6 3.4l1.3 2c1.2 1.9 3.3 2.9 5.4 2.8 2.1-0.1 4.1 0.4 5.9 1.4l153.6 89.1q2.2 1.3 4 3.1l31.7 31.9c0.7 0.6 0.8 1.7 0.4 2.5-0.4 0.8-1.2 1.2-2 1.2zm-220.2-94.9c3.4 0 6.7 1.7 8.7 4.6l0.2 0.3c0.6 0.9 1.5 1.7 2.5 2.1l160.7 74.2q3 1.4 6.2 2l35.4 6.1-26.8-26.9q-1.3-1.4-3-2.3l-153.6-89.2c-1.1-0.6-2.2-0.8-3.4-0.8-3.8 0.3-7.4-1.6-9.5-4.8l-1.3-2c-0.5-0.8-1.2-1.5-2-2l-18.7-10.8-20.1 39.9 19.9 9.2c0.9 0.4 1.9 0.5 2.8 0.5l1.5-0.1q0.2 0 0.5 0z"/><path  d="m768 813.1q-0.5 0-0.9-0.2c-1.2-0.5-1.7-1.8-1.2-2.9l5.9-13.3c0.5-1.1 1.8-1.6 2.9-1.1 1.1 0.5 1.6 1.8 1.1 2.9l-5.8 13.3c-0.4 0.8-1.2 1.3-2 1.3z"/><path  d="m546.1 666l33.4 18c1.8 0.9 2.4 3.1 1.5 4.8l-19.6 37.6c-0.9 1.8-3.1 2.5-4.9 1.5l-33.3-18c-6.7-3.6-9.4-11.8-5.9-18.4l10.5-20.1c3.4-6.6 11.6-9 18.3-5.4z"/><path fill-rule="evenodd" d="m558.2 730.6c-0.9 0-1.9-0.3-2.7-0.7l-33.4-18c-7.7-4.2-10.8-13.8-6.8-21.5l10.5-20.1c1.9-3.6 5.1-6.3 9.1-7.5 4.1-1.3 8.4-0.8 12.3 1.2l33.4 18.1c2.8 1.4 3.8 4.9 2.4 7.7l-19.6 37.7c-0.8 1.4-2 2.4-3.5 2.8q-0.8 0.3-1.7 0.3zm-18.7-64.1q-1.7 0-3.3 0.5c-2.8 0.9-5.1 2.8-6.5 5.4l-10.5 20.1c-2.8 5.5-0.6 12.4 5 15.5l33.4 18q0.5 0.2 1 0.1c0.4-0.1 0.6-0.4 0.8-0.7l19.6-37.6c0.4-0.7 0.1-1.5-0.5-1.8l-33.5-18.1c-1.7-0.9-3.6-1.4-5.5-1.4z"/><path  d="m594.9 735.9q-0.5 0-1-0.2c-1.1-0.6-1.5-1.9-0.9-3l11.1-20.7c0.5-1.1 1.9-1.5 3-0.9 1 0.6 1.5 1.9 0.9 3l-11.1 20.7c-0.4 0.7-1.2 1.1-2 1.1z"/><path  d="m667 751.8q-0.6 0-1.1-0.3l-45.8-25.7c-1-0.6-1.4-2-0.8-3.1 0.6-1 1.9-1.4 3-0.8l45.8 25.7c1.1 0.6 1.5 1.9 0.8 3-0.4 0.7-1.1 1.2-1.9 1.2z"/><path  d="m757.7 804.7q-0.6 0-1.1-0.3l-17.9-10c-1.1-0.6-1.5-1.9-0.9-3 0.6-1.1 2-1.5 3.1-0.9l17.9 10c1 0.6 1.4 1.9 0.8 3-0.4 0.7-1.2 1.2-1.9 1.2z"/><path class="a" d="m554.9 714.9q-0.5 0-1.1-0.3l-25.5-14c-1.1-0.6-1.5-1.9-0.9-3 0.6-1.1 2-1.5 3-0.9l25.6 14c1.1 0.6 1.5 2 0.9 3-0.4 0.8-1.2 1.2-2 1.2z"/><path class="a" d="m544.1 763.8c0 0 39.7 5.6 66.5-15.1 22.8-17.6 68.9 32.8 72.9 39.2 5.6 9.1-6.7 23.3-21 15.3 0 0-3.8 22.4-34.6 26.2-30.8 3.8-44-16.4-52.3-19.4-8.2-3.1-31.9-3.2-31.9-3.2z"/><path fill-rule="evenodd" d="m620.3 832.1c-18.9 0-30.4-9-38.3-15.3-2.9-2.2-5.3-4.1-7.1-4.8-7.8-2.8-31-3-31.2-3-0.6 0-1.2-0.2-1.6-0.7-0.4-0.4-0.6-0.9-0.6-1.5l0.3-43c0-0.7 0.3-1.3 0.8-1.7 0.5-0.4 1.1-0.6 1.8-0.5 0.4 0.1 39.1 5.3 64.8-14.6 4.9-3.7 10.9-5 18-3.7 24.6 4.5 55 38.4 58.2 43.5 3 4.8 2 11.2-2.5 15.9-3.8 4-10.9 7-19 3.6-2.3 6.5-10.3 22.2-35.7 25.3q-4.2 0.5-7.9 0.5zm-74.4-27.5c6.2 0.1 23.4 0.7 30.5 3.3 2.5 0.9 5.1 2.9 8.3 5.4 8.4 6.6 21 16.6 42.9 13.9 28.7-3.5 32.5-23.6 32.7-24.4 0.1-0.7 0.6-1.3 1.2-1.6 0.7-0.3 1.4-0.3 2.1 0 6.9 4 12.9 1.8 16.1-1.6 2.6-2.6 4.1-6.9 1.9-10.5-2.6-4.3-32.2-37.3-55.2-41.4-5.9-1.1-10.6-0.2-14.4 2.8-23.7 18.3-56.4 16.7-65.7 15.8z"/><path class="a" d="m274.1 444.3c0 0-54.4 22.9-83.1 116.1-15.9 51.5-13 124.8 65.2 222.3 15.7 19.5 37.6 38.9 62.4 41.7l237.7 2.4-1-76.1c0 0-184.4-24-212.1-34.4-24.5-9.2-60-129.4-63.7-188.3z"/><path  d="m556.3 829q0 0 0 0l-237.7-2.3q-0.1 0-0.2 0c-27.1-3.1-49.7-24.9-63.9-42.6-8.4-10.5-16.6-21.1-24.2-31.6-0.7-1-0.5-2.4 0.5-3.1 1-0.7 2.4-0.5 3.1 0.5 7.6 10.4 15.7 21 24.1 31.5 13.6 17 35.3 37.9 60.8 40.8l235.3 2.3-1-71.9c-20.7-2.7-184.2-24.3-210.6-34.2-22.1-8.3-48.2-91.7-58.9-145.5-0.2-1.2 0.5-2.3 1.8-2.6 1.2-0.2 2.3 0.6 2.6 1.8 12.3 61.9 38.3 135.5 56 142.1 27.2 10.2 209.7 34 211.6 34.3 1.1 0.1 1.9 1 1.9 2.1l1.1 76.1c0 0.6-0.3 1.2-0.7 1.6-0.4 0.4-1 0.7-1.6 0.7z"/><path class="a" d="m758.4 141.9c2.8 7.2 8.2 26.6-0.8 39.6-8 11.6-24.7 12.1-34.2 1.6-5-5.5-7.4-14.4-11.1-27.1-1.9-6.2-4.6-10.5-7.6-14.4-2-2.5-5-4-8.2-4l-28.3-0.1c0 0 0.3-11 8.5-15.4 7.2-3.9 25.8-0.7 27.3-2.9 16.3-24.5 43.3-6.3 54.4 22.7z"/><path fill-rule="evenodd" d="m740.1 192.8c-6.9 0-13.6-2.9-18.4-8.2-5-5.5-7.5-14-10.9-25.7l-0.7-2.3c-1.8-6.2-4.6-10.4-7.2-13.6-1.5-2-3.9-3.1-6.4-3.2l-28.3-0.1c-0.6 0-1.1-0.2-1.5-0.7-0.5-0.4-0.7-1-0.7-1.6 0-0.5 0.4-12.3 9.6-17.3 4.7-2.5 12.8-2.4 19.4-2.3 2.8 0 6.2 0.1 7.4-0.2 7.5-11.1 16.4-12.6 22.5-11.9 13.7 1.5 28 15.7 35.6 35.4q0 0 0 0c1.6 4.3 9.3 26.5-1 41.6-4.1 5.9-10.5 9.6-17.7 10.1q-0.8 0-1.7 0zm-69.4-57.5l25.8 0.1c3.9 0 7.6 1.8 9.9 4.9 2.8 3.5 5.9 8.1 8 15.1l0.7 2.2c3.2 11.2 5.6 19.3 9.9 24 4.3 4.7 10.3 7.2 16.5 6.7 5.8-0.4 11-3.3 14.3-8.1 9.1-13.2 2-33.6 0.5-37.5-6.8-17.9-19.9-31.3-31.9-32.6-7.2-0.8-13.5 2.7-18.6 10.3-1.2 1.9-4 1.9-10.9 1.9-5.7-0.1-13.5-0.2-17.2 1.7-4.8 2.6-6.4 8.2-7 11.3z"/><path class="a" d="m295.7 1550.4l-17.3 83.2 45.4 12.8 25-80.9z"/><path fill-rule="evenodd" d="m323.8 1648.6q-0.3 0-0.6 0l-45.4-12.9c-1.1-0.3-1.8-1.4-1.6-2.6l17.4-83.1c0.1-0.6 0.4-1.2 1-1.5 0.5-0.3 1.1-0.4 1.7-0.2l53.1 15c0.6 0.2 1.1 0.6 1.4 1.1 0.3 0.5 0.3 1.1 0.2 1.7l-25.1 81c-0.3 0.9-1.2 1.5-2.1 1.5zm-42.8-16.6l41.3 11.7 23.7-76.7-48.6-13.8z"/><path class="a" d="m263.4 1703.7c0.5 8 10.3 14.4 18.2 15.6 27.5 4.1 92.2 2.4 109.7 3.6 22.8 1.6 65.6-0.1 67.3-14.7 2-17.7-17.1-43.6-62.8-57.7-23.7-7.4-48.7-43.7-59.8-44.3-11-0.7-30.6 28-30.6 28l-31.5-10.7c0 0-13.1 39.6-10.5 80.2z"/><path fill-rule="evenodd" d="m405.7 1725.5c-8.4 0-14.3-0.4-14.5-0.4-6-0.4-17.8-0.5-31.5-0.5-26.8-0.2-60.3-0.4-78.4-3.1-9.3-1.4-19.6-8.9-20.1-17.7-2.6-40.5 10.4-80.6 10.5-81 0.2-0.6 0.6-1 1.2-1.3 0.5-0.3 1.1-0.3 1.7-0.1l29.9 10.2c4.5-6.3 20.8-28.3 31.7-27.6 5.7 0.3 13.4 7.7 23.2 17 10.9 10.4 24.4 23.4 37 27.3 47.3 14.7 66.5 41.5 64.4 60.2-1.7 14.8-35.2 17-55.1 17zm-130.4-99.2c-2.6 8.8-11.9 42.9-9.7 77.2 0.4 6.6 9 12.5 16.3 13.6 17.9 2.7 51.1 2.9 77.9 3 13.7 0.1 25.5 0.2 31.7 0.6 25.4 1.7 63.6-1.1 64.9-12.7 2-17.5-18.4-42.1-61.3-55.4-13.6-4.2-27.6-17.6-38.8-28.4-8.4-8-16.3-15.6-20.4-15.8-7.2-0.4-21.4 16.4-28.7 27.1-0.6 0.8-1.6 1.1-2.5 0.8z"/><path  d="m417.6 1703.9c-6.1 0-12.7-0.4-19.7-0.7-10.3-0.6-21.1-1.1-31.6-0.6-24 1.1-44.5 0.1-57.5-0.9-24-1.8-25-3.3-25.3-3.9-0.4-0.7-0.5-1.5-0.1-2.3 0.6-1 1.9-1.4 3-0.9q0 0.1 0 0.1c3.9 1 37.3 5.4 79.7 3.4 10.7-0.5 21.6 0.1 32.1 0.6 15.8 0.9 30.8 1.7 39.5-2 1.1-0.5 2.4 0 2.9 1.1 0.5 1.2 0 2.5-1.2 2.9-5.6 2.5-13.1 3.2-21.8 3.2z"/><path  d="m358.9 1675.4c-0.6 0-1.2-0.2-1.6-0.7-0.9-0.8-0.9-2.2 0-3.1l16.6-17c0.8-0.9 2.2-0.9 3.1 0 0.9 0.8 0.9 2.2 0 3.1l-16.6 17c-0.4 0.4-1 0.7-1.5 0.7z"/><path class="a" d="m49.7 1546.5l-2.3 58 40.5 9.7 7.2-67.3z"/><path fill-rule="evenodd" d="m87.9 1616.5q-0.3 0-0.5-0.1l-40.5-9.8c-1-0.2-1.7-1.2-1.7-2.2l2.3-58c0.1-1.2 1-2.2 2.2-2.2q0 0 0 0l45.4 0.4c0.7 0.1 1.3 0.3 1.7 0.8 0.4 0.5 0.6 1.1 0.5 1.7l-7.2 67.4c-0.1 0.6-0.4 1.2-0.9 1.6-0.4 0.2-0.8 0.4-1.3 0.4zm-38.2-13.8l36.3 8.8 6.6-62.4-40.7-0.4z"/><path class="a" d="m94.1 1719.7c-16.2 2.3-42.7 3.3-74.1 0-14-1.5-19.5-21-17.1-31.1 6.9-28 18.9-73.2 39.2-97.9l7.5 15.1 7-14.7c1-1.7 2.7-2.9 4.7-3.1l15.2 0.1c3.2-0.4 6.1 1.7 6.8 4.9l2.4 11.6 13-15 10.1 110.6c1.3 9.4-5.3 18.2-14.7 19.5z"/><path fill-rule="evenodd" d="m59.5 1724c-11.2 0-24.5-0.5-39.7-2.1-5.4-0.6-10.2-3.6-13.7-8.6-5.6-8-6.9-18.7-5.3-25.2 8.2-33.7 20.2-75.3 39.6-98.8 0.5-0.6 1.2-0.9 2-0.8 0.7 0.1 1.4 0.6 1.7 1.2l5.4 11 5.1-10.6c1.4-2.4 3.7-4 6.4-4.3q0.1-0.1 0.3-0.1l15 0.2c4.3-0.5 8.3 2.4 9.2 6.6l1.5 7.2 10-11.5c0.6-0.7 1.5-1 2.4-0.7 0.8 0.3 1.4 1 1.5 1.9l10.1 110.6c1.4 10.5-6 20.4-16.6 21.9-5.8 0.8-17.8 2.1-34.9 2.1zm-17.8-129.1c-20 26.4-31.5 73.6-36.6 94.2-1.3 5.4-0.2 14.8 4.6 21.6 2.8 4.1 6.4 6.3 10.5 6.8 26.5 2.8 54 2.8 73.6 0 8.1-1.1 13.9-8.8 12.8-17l-9.6-105.5-9.6 11c-0.5 0.7-1.4 0.9-2.2 0.7-0.9-0.2-1.5-0.8-1.7-1.7l-2.4-11.6c-0.4-2-2.3-3.3-4.4-3.1q-0.1 0-0.3 0l-15-0.1c-1.2 0.2-2.2 0.9-2.8 2l-7 14.5c-0.4 0.8-1.2 1.3-2 1.3-0.8 0-1.6-0.5-2-1.2zm52.4 124.8z"/><path  d="m49 1705.9c-10.4 0-21.6-0.9-32.8-3.5-1.2-0.3-2-1.5-1.7-2.7 0.3-1.2 1.5-1.9 2.7-1.6 38.1 8.7 78.1-2.5 78.5-2.6 1.1-0.4 2.4 0.3 2.7 1.5 0.3 1.2-0.3 2.4-1.5 2.7-1.2 0.4-21.9 6.2-47.9 6.2z"/><path  d="m39.7 1663c-1.2 0-2.2-1-2.2-2.2-0.1-1.2 0.9-2.2 2.1-2.3l36.5-1.2c1.2 0 2.3 0.9 2.3 2.2 0 1.2-0.9 2.2-2.1 2.2l-36.5 1.3q-0.1 0-0.1 0z"/><path  d="m477.3 851.7c15.3 89.9 43.2 310.8-17 476-51.9 142.3-88.9 213.1-103.2 238.8-3.9 7-11.6 10.9-19.6 9.9l-37-4.7c-10.9-1.5-18.6-11.7-16.8-22.6 13.5-84.6 67.1-496.5 52.8-534.5l-229.6 539.8c-2.5 5.7-8.2 9.4-14.4 9.4l-38.8-0.5c-8.7-0.1-15.5-7.3-15.3-15.9 11.4-437 139.4-507.3 176.8-716.2 0.1-0.5 12.3 14.2 12.8 14.5 37.5 21.7 56.3 20 113.9 23.2 62.2 3.4 120.1-20.1 133.7-19.5 1.1 0 1.5 1.3 1.7 2.3z"/><path class="a" d="m408.7 433.1l10.6-54.4c0.7-3.7 3.7-6.4 7.4-6.8l21.4-2.5c4.5-0.5 8.2-4 8.9-8.5l4.8-30.4q0.1-0.1 0.1-0.1l10.2-5.5c2-1.1 2.8-3.6 1.7-5.6l-10.7-20.9c-2.1-4.1-4.9-27.1-9.5-26.8 0 0-76.8-26.8-99.4 5.1-5.9 8.4-6.6 19.6-2.6 29.1l5.2 12.2c5.4 12.6 6.6 26.8 2.5 39.9-1.5 4.7-3.5 9.2-6.2 13.5l-28.8 45c20.9 10.5 44 16.1 67.5 16.5z"/><path fill-rule="evenodd" d="m408.7 435.4q-0.1 0-0.1 0l-16.9-0.3c-23.6-0.3-47.3-6.1-68.4-16.7-0.6-0.3-1-0.8-1.2-1.4-0.1-0.7 0-1.3 0.3-1.8l28.9-45c2.5-4.1 4.4-8.4 5.9-12.9 3.8-12.2 2.9-25.9-2.4-38.5l-5.2-12.1c-4.5-10.5-3.4-22.5 2.8-31.3 22.8-32.1 95.4-8.2 101.6-6.1 4.2 0.4 6.2 7.8 8.9 19.7 0.8 3.6 1.6 7.2 2.2 8.4l10.7 20.9c1.6 3.1 0.4 6.9-2.7 8.6l-9.2 5-4.7 29.3c-0.9 5.5-5.3 9.8-10.9 10.4l-21.3 2.5c-2.8 0.3-5 2.3-5.6 5.1l-10.6 54.4c-0.2 1-1.1 1.8-2.1 1.8zm-81.2-19.9c20 9.6 42.1 14.8 64.3 15.2l15 0.2 10.3-52.6c0.9-4.7 4.7-8.1 9.4-8.6l21.3-2.5c3.6-0.4 6.5-3.1 7-6.7l4.8-30.3c0.2-0.7 0.7-1.4 1.3-1.7l10.1-5.5c0.9-0.5 1.3-1.8 0.8-2.7l-10.7-20.9c-0.7-1.6-1.4-4.6-2.5-9.4-1.1-4.8-3.3-14.8-5.1-16.2q-0.3-0.1-0.6-0.1c-0.7-0.3-75.5-25.9-96.8 4.3-5.4 7.5-6.3 17.8-2.4 26.9l5.2 12.2c5.7 13.6 6.6 28.3 2.5 41.5-1.5 4.9-3.7 9.6-6.4 13.9zm126.3-141.7q0 0 0 0 0 0 0 0z"/><path  d="m393.7 305.4c-3.9-9.8-10.1-13.5-8.9-19 0.7-3.4 3.6-5.5 5.2-6.7 8.3-5.9 19.1-2.3 40.8 1.8 26.9 5.1 30 5.9 35.1 3.8 12.9-5.1 20.2-21 20.8-34 0.2-3.7 0.5-23.2-16.1-33.2-11.9-7.3-27.9-6.7-40.8 1.3-1.1-3.8-3.5-9.1-8.6-11.7-12.2-6.3-30.3 7.7-36.7 12.6-5.8 4.5-16.3 13.9-23.8 30.5-2.4-1.4-11.4-6-21.2-2.9-14.6 4.7-18.1 22.5-18.5 24.2-3.6 19.7 12.6 36.8 24.8 49.8 6.7 7.1 10.3 9.9 14.2 12.5 2.3 1.6 5.4 1.7 7.8 0.3q0.1 0 0.2 0c3.2-1.8 4.3-6 2.3-9.1l-0.6-1c-2.3-3.8-3.9-8-4.4-12.4-0.4-3.5-0.1-7.2 2.1-9.1 3.7-3 9.9-1 10.8-0.7 4.5 1.4 7.4 4.8 9.1 8 1.9 3.4 8.2-0.6 6.4-5z"/><path fill-rule="evenodd" d="m184.2 229.3q-1.1 0-2.3-0.1c-9.6-1.3-16.6-10.1-15.5-19.6q0 0 0 0c0.5-4.6 2.8-8.7 6.5-11.6 3.7-2.9 8.3-4.2 13-3.6 9.7 1.3 16.6 10.1 15.6 19.6-0.6 4.6-2.8 8.7-6.5 11.6-3.1 2.4-6.8 3.7-10.8 3.7zm-13.4-19.2c-0.8 7.1 4.5 13.7 11.7 14.6 3.5 0.5 7-0.4 9.8-2.6 2.7-2.1 4.4-5.2 4.8-8.6 0.8-7.1-4.5-13.7-11.7-14.6-3.6-0.5-7 0.4-9.8 2.6-2.7 2.1-4.4 5.2-4.8 8.6z"/><path  d="m117.2 262q-0.6 0-1.2-0.3l-14.8-8.8c-1-0.6-1.4-2-0.8-3 0.7-1.1 2-1.4 3.1-0.8l14.8 8.8c1.1 0.6 1.4 2 0.8 3-0.4 0.7-1.2 1.1-1.9 1.1z"/><path  d="m151.7 282.4q-0.6 0-1.1-0.3l-14.9-8.7c-1-0.7-1.4-2-0.7-3.1 0.6-1 2-1.4 3-0.8l14.8 8.8c1.1 0.6 1.4 2 0.8 3.1-0.4 0.7-1.1 1-1.9 1z"/><path  d="m112.4 292.5q-0.6 0-1.1-0.3c-1.1-0.6-1.4-2-0.8-3l8.8-14.9c0.6-1 2-1.4 3-0.7 1.1 0.6 1.4 1.9 0.8 3l-8.8 14.8c-0.4 0.7-1.1 1.1-1.9 1.1z"/><path  d="m132.9 258q-0.6 0-1.2-0.3c-1-0.7-1.4-2-0.8-3.1l8.8-14.8c0.6-1 2-1.4 3.1-0.8 1 0.6 1.4 2 0.7 3.1l-8.7 14.8c-0.4 0.7-1.2 1.1-1.9 1.1z"/><path class="a" d="m1672.1 1827.8h-777c-46.6 0-81.5-42.9-72.1-88.6l117.8-573.3c10-48.2 52.4-82.8 101.6-82.8h666.5z"/><path fill-rule="evenodd" d="m1672.1 1830h-777c-22.9 0-44.3-10.2-58.8-27.9-14.5-17.8-20.1-40.9-15.5-63.3l117.9-573.3c10-49 53.7-84.6 103.7-84.6h666.5c0.6 0 1.2 0.2 1.6 0.7 0.4 0.4 0.6 1 0.6 1.6l-36.7 744.7c-0.1 1.2-1.1 2.1-2.3 2.1zm-629.7-744.7c-47.9 0-89.7 34.1-99.4 81.1l-117.9 573.3c-4.3 21.1 1 42.8 14.6 59.6 13.7 16.7 33.8 26.3 55.4 26.3h774.9l36.6-740.3z"/><path class="a" d="m1771.6 1827.8h-150.8c-46.6 0-81.5-42.9-72.1-88.6l129.8-631.4c3-14.4 15.6-24.7 30.3-24.7h38.7c16.1 0 29.5 12.3 30.8 28.4l53.1 651.4c2.9 34.9-24.7 64.9-59.8 64.9z"/><path fill-rule="evenodd" d="m1771.6 1830h-150.8c-22.9 0-44.3-10.2-58.8-27.9-14.4-17.8-20.1-40.9-15.5-63.3l129.9-631.5c3.1-15.3 16.7-26.4 32.4-26.4h38.7c17.2 0 31.6 13.3 33 30.4l53.1 651.4c1.5 17.3-4.5 34.5-16.2 47.2-11.8 12.8-28.4 20.1-45.8 20.1zm-62.8-744.7c-13.6 0-25.4 9.6-28.1 22.9l-129.8 631.5c-4.4 21.1 0.9 42.8 14.6 59.6 13.6 16.7 33.8 26.3 55.3 26.3h150.8c16.4 0 31.4-6.7 42.5-18.7 10.9-11.8 16.4-27.8 15.1-43.9l-53.1-651.3c-1.2-14.8-13.7-26.4-28.6-26.4z"/><path  d="m1723.6 1807.6h-102.8c-16.1 0-31.2-7.2-41.4-19.7-10.2-12.5-14.2-28.8-10.9-44.6l42.6-207.3c0.2-1.2 1.4-2 2.6-1.7 1.2 0.2 2 1.4 1.7 2.6l-42.6 207.3c-3 14.5 0.7 29.4 10 40.9 9.4 11.5 23.2 18 38 18h102.8c1.2 0 2.2 1 2.2 2.3 0 1.2-1 2.2-2.2 2.2z"/><path  d="m1771.6 1807.6c-1.2 0-2.2-1-2.2-2.2 0-1.3 1-2.3 2.2-2.3 10 0 19.3-4 26-11.4 6.8-7.3 10.1-16.9 9.3-26.8l-12.1-148.5c-0.1-1.2 0.8-2.3 2-2.4 1.2-0.1 2.3 0.8 2.4 2.1l12.1 148.4c0.9 11.2-2.8 22-10.4 30.2-7.6 8.3-18 12.9-29.3 12.9z"/><path  d="m1763.3 1205.3c-1.1 0-2.1-0.8-2.2-2l-2.5-30.9c-0.1-1.3 0.8-2.3 2-2.4 1.2-0.1 2.3 0.8 2.4 2l2.5 30.9c0.1 1.3-0.8 2.3-2 2.4q-0.1 0-0.2 0z"/><path  d="m1664.9 1287.7q-0.3 0-0.5-0.1c-1.2-0.2-2-1.4-1.7-2.6l35.6-173.2c1-4.9 5.4-8.5 10.5-8.5h38.7c5.6 0 10.3 4.3 10.7 9.8l1.7 20.3c0.1 1.2-0.9 2.3-2.1 2.4-1.2 0.1-2.3-0.8-2.4-2.1l-1.6-20.2c-0.3-3.2-3-5.8-6.3-5.8h-38.7c-3 0-5.6 2.1-6.1 5l-35.7 173.2c-0.2 1.1-1.1 1.8-2.1 1.8z"/><path  d="m1566.3 1386.3h-608.4c-1.3 0-2.3-1-2.3-2.2 0-1.3 1-2.3 2.3-2.3h608.4c17.1 0 31.7-11.6 35.7-28.2l53.6-226.5c0.3-1.2 1.5-1.9 2.7-1.7 1.2 0.3 1.9 1.5 1.6 2.7l-53.6 226.5c-4.4 18.7-20.9 31.7-40 31.7z"/><path class="a" d="m1331.5 1384.1l-17.1 68.7c-2.7 11.7-13.1 19.9-25.1 19.9h-120.5c-13.1 0-22.6-12.5-19.1-25.2l17.7-63.4z"/><path fill-rule="evenodd" d="m1289.3 1474.9h-120.5c-6.9 0-13.3-3.2-17.5-8.7-4.2-5.5-5.6-12.6-3.7-19.3l17.6-63.4c0.3-1 1.2-1.7 2.2-1.7h164.1c0.6 0 1.3 0.3 1.7 0.9 0.4 0.5 0.6 1.2 0.4 1.9l-17 68.8c-3 12.6-14.2 21.5-27.3 21.5zm-120.3-88.6l-17.1 61.8c-1.5 5.4-0.5 11 2.9 15.4 3.4 4.4 8.5 7 14 7h120.5c11 0 20.4-7.5 22.9-18.2l16.4-66z"/><path  d="m1510.7 1772.4h-646.3c-1.2 0-2.2-1-2.2-2.2 0-1.2 1-2.2 2.2-2.2h646.3c1.3 0 2.3 1 2.3 2.2 0 1.2-1 2.2-2.3 2.2z"/><path class="a" d="m1195.9 1057.1h-50.4c-13.7 0-24.7 11-24.7 24.7h99.8c0-13.7-11.1-24.7-24.7-24.7z"/><path fill-rule="evenodd" d="m1220.6 1084h-99.8c-1.2 0-2.2-1-2.2-2.2 0-14.9 12-26.9 26.9-26.9h50.4c14.8 0 26.9 12 26.9 26.9 0 1.2-1 2.2-2.2 2.2zm-97.5-4.5h95.2c-1.2-11.3-10.8-20.2-22.4-20.2h-50.4c-11.7 0-21.3 8.9-22.4 20.2z"/><path  d="m1600.3 1057.1h-50.5c-13.6 0-24.7 11-24.7 24.7h99.8c0-13.7-11-24.7-24.6-24.7z"/><path fill-rule="evenodd" d="m1624.9 1084h-99.8c-1.2 0-2.2-1-2.2-2.2 0-14.9 12.1-26.9 26.9-26.9h50.5c14.8 0 26.9 12 26.9 26.9 0 1.2-1 2.2-2.3 2.2zm-97.4-4.5h95.1c-1.1-11.3-10.7-20.2-22.3-20.2h-50.5c-11.6 0-21.2 8.9-22.3 20.2z"/><path class="a" d="m1587.1 1055.8l8.1-48.4c5.8-34.2-17.3-62-51.6-62h-302.5c-34.2 0-66.7 27.8-72.4 62l-8.2 48.4h23.2l6.3-37.7c4.5-26.6 29.7-48.2 56.4-48.2h283.7c26.7 0 44.6 21.6 40.2 48.2l-6.4 37.7z"/><path fill-rule="evenodd" d="m1587.1 1058h-23.2c-0.6 0-1.2-0.3-1.7-0.8-0.4-0.5-0.6-1.2-0.5-1.8l6.4-37.6c2-12.4-0.8-24-8.1-32.6-7.2-8.5-17.8-13.1-29.9-13.1h-283.7c-25.6 0-49.9 20.8-54.2 46.4l-6.3 37.6c-0.2 1.1-1.1 1.9-2.2 1.9h-23.2c-0.6 0-1.2-0.3-1.7-0.8-0.4-0.5-0.6-1.2-0.5-1.8l8.2-48.3c5.9-35.3 39.4-63.9 74.6-63.9h302.5c17.1 0 32.1 6.6 42.3 18.6 10.3 12.3 14.4 28.6 11.5 46l-8.1 48.3c-0.2 1.1-1.1 1.9-2.2 1.9zm-20.5-4.5h18.6l7.8-46.4c2.7-16.1-1-31.2-10.5-42.4-9.3-11-23.1-17.1-38.9-17.1h-302.5c-33.1 0-64.7 27-70.2 60.2l-7.7 45.7h18.6l6-35.7c4.7-27.7 30.9-50.2 58.6-50.2h283.7c13.4 0 25.2 5.3 33.3 14.7 8.1 9.7 11.4 22.5 9 36.2z"/><path class="a" d="m1528.6 925.4h-265.7c-10.7 0-20.9 8.7-22.7 19.4l-3.9 23.2c-1.8 10.7 5.4 19.4 16.1 19.4h265.8c10.7 0 20.8-8.7 22.6-19.4l3.9-23.2c1.8-10.7-5.4-19.4-16.1-19.4z"/><path fill-rule="evenodd" d="m1518.2 989.6h-265.8c-5.8 0-10.9-2.2-14.3-6.3-3.6-4.2-5-9.8-4-15.6l3.9-23.3c2-11.7 13.1-21.2 24.9-21.2h265.7c5.8 0 10.9 2.2 14.4 6.3 3.5 4.2 4.9 9.8 3.9 15.7l-3.9 23.2c-1.9 11.7-13.1 21.2-24.8 21.2zm-255.3-62c-9.7 0-18.9 7.9-20.5 17.6l-3.9 23.2c-0.8 4.6 0.3 8.8 3 12 2.6 3.1 6.5 4.8 10.9 4.8h265.8c9.6 0 18.8-7.9 20.4-17.5l4-23.3c0.7-4.6-0.3-8.8-3-12-2.6-3.1-6.5-4.8-11-4.8z"/><path  d="m1365.8 989.6h-113.4c-5.8 0-10.9-2.2-14.3-6.3-3.6-4.2-5-9.8-4-15.6l3.9-23.3c2-11.7 13.1-21.2 24.9-21.2h88.6c1.2 0 2.2 1 2.2 2.2 0 1.2-1 2.2-2.2 2.2h-88.6c-9.7 0-18.9 7.9-20.5 17.6l-3.9 23.2c-0.8 4.6 0.3 8.8 3 12 2.6 3.1 6.5 4.8 10.9 4.8h113.4c1.2 0 2.2 1 2.2 2.2 0 1.2-1 2.2-2.2 2.2z"/><path  d="m1619.4 1772.4c-0.8 0-1.5-0.4-1.9-1.1-0.6-1.1-0.3-2.4 0.8-3.1l103.1-58.7v-581.9c0-1.2 0.9-2.2 2.2-2.2 1.2 0 2.2 1 2.2 2.2v583.2c0 0.8-0.4 1.5-1.1 1.9l-104.2 59.4q-0.5 0.3-1.1 0.3z"/><path  d="m1615.4 1068.5c0 0 46.3 17.3 64.5 2.8 18.2-14.6-28.2-39.1-39.1-37.3-10.9 1.8-25.4 34.5-25.4 34.5z"/><path class="a" d="m1382.4 1439.4l43.6 76.4 23.6-32.8-38.2-74.6z"/><path fill-rule="evenodd" d="m1426 1518q-0.1 0-0.1 0c-0.8-0.1-1.5-0.5-1.8-1.1l-43.7-76.4c-0.5-0.9-0.3-1.9 0.3-2.7l29.1-30.9c0.5-0.5 1.2-0.8 2-0.7 0.7 0.1 1.3 0.6 1.6 1.2l38.2 74.6c0.4 0.7 0.3 1.6-0.2 2.3l-23.6 32.8c-0.4 0.5-1.1 0.9-1.8 0.9zm-40.9-78.3l41.1 72 20.8-28.9-36.1-70.5z"/><path  d="m1410.9 1504.1c11.5 23.7 40.6 81.3 68.7 108.9 6.8 6.7 18.4 3.6 20.8-5.7 8.8-33.2 14.7-102.5-18-157 0 0-15.6-1.8-44.7 3.6l6.5 27.3-3.6-2.6c-5.4-3.8-12.7-3.5-17.7 0.8l-8.4 7.2c-5 4.3-6.5 11.5-3.6 17.5z"/><path class="a" d="m1484.2 1605.3q-0.4 0-0.8-0.2c-1.2-0.4-1.7-1.7-1.3-2.8 24.8-65.7-8.7-143.1-9.1-143.9-0.4-1.1 0.1-2.4 1.2-2.9 1.1-0.5 2.4 0 2.9 1.2 0.4 0.7 34.6 79.8 9.2 147.2-0.4 0.8-1.2 1.4-2.1 1.4z"/><path class="a" d="m1427.8 1539.4c-0.7 0-1.4-0.3-1.9-1-0.6-1-0.3-2.4 0.7-3.1l21.8-14.1c1-0.7 2.4-0.4 3.1 0.6 0.7 1.1 0.4 2.4-0.7 3.1l-21.8 14.2q-0.6 0.3-1.2 0.3z"/><path class="a" d="m1438.7 1558.8c-0.6 0-1.3-0.3-1.7-0.9-0.8-0.9-0.6-2.3 0.4-3.1l20-15.3c0.9-0.8 2.3-0.6 3.1 0.4 0.7 0.9 0.5 2.3-0.4 3.1l-20 15.3c-0.4 0.4-0.9 0.5-1.4 0.5z"/><path class="a" d="m1244.2 1441.2c0 1.8-40 89.1-40 89.1l45.4 3.6 30.9-74.5z"/><path fill-rule="evenodd" d="m1249.6 1536.2q-0.1 0-0.1 0l-45.5-3.7c-0.7 0-1.4-0.4-1.7-1.1-0.4-0.6-0.4-1.4-0.1-2 15.4-33.7 38.6-84.9 39.8-88.6 0.1-0.6 0.5-1.2 1-1.5 0.7-0.4 1.5-0.5 2.2-0.1l36.3 18.2c1.1 0.5 1.5 1.7 1.1 2.8l-30.9 74.6c-0.4 0.8-1.2 1.4-2.1 1.4zm-42.1-7.9l40.7 3.3 29.5-71.2-32.4-16.2c-2.4 6.1-10.6 24.8-37.8 84.1z"/><path  d="m1246 1512.1c0 0-9.1-21.8-32.7-10.9 0 0-43.4 62.7-59.5 114.5-4.6 14.6 10.4 27.8 24.4 21.5 32.7-14.8 83.9-45.8 113.2-103.3 0 0-9-23.6-23.6-34.5z"/><path class="a" d="m1167.1 1623.6c-1.9 0-3-0.1-3.2-0.1-1.3-0.2-2.1-1.4-1.9-2.6 0.2-1.2 1.3-2 2.5-1.8 0.5 0 48.8 5.6 114.2-84.6 0.8-1 2.1-1.3 3.1-0.5 1 0.7 1.3 2.1 0.5 3.1-58.3 80.4-103 86.5-115.2 86.5z"/><path class="a" d="m1204.2 1574.4q-0.6 0-1.1-0.3l-21.9-12.8c-1-0.6-1.4-1.9-0.8-3 0.7-1.1 2-1.4 3.1-0.8l21.8 12.7c1.1 0.6 1.4 2 0.8 3.1-0.4 0.7-1.2 1.1-1.9 1.1z"/><path class="a" d="m1215.1 1558q-0.6 0-1.1-0.3l-23.6-12.7c-1.1-0.6-1.5-1.9-0.9-3 0.6-1.1 1.9-1.5 3-0.9l23.6 12.7c1.1 0.6 1.5 1.9 0.9 3-0.4 0.8-1.1 1.2-1.9 1.2z"/><path class="a" d="m1476.9 1001c0 0-118.5 21.2-203.9 110.7-21.6 22.7-29.2 55.2-19.9 85.1 18.9 61.2 60.2 173 129.3 257.1l52.7-45.5c0 0-12.7-105.5-47.3-170.9-34.5-65.5 167.3-207.4 167.3-207.4z"/><path fill-rule="evenodd" d="m1382.4 1456.1q-0.1 0-0.2 0c-0.6 0-1.2-0.3-1.6-0.8-69.6-84.8-111.1-198-129.6-257.9-9.5-30.6-1.7-64 20.4-87.2 84.9-89.1 203.9-111.2 205.1-111.4q0.6-0.1 1.2 0.1l78.2 29.1c0.7 0.3 1.3 1 1.4 1.8 0.1 0.8-0.3 1.6-0.9 2.1-2 1.4-199.9 141.5-166.6 204.5 34.3 65.1 47.4 170.7 47.5 171.8 0.1 0.7-0.2 1.4-0.8 1.9l-52.7 45.5c-0.4 0.3-0.9 0.5-1.4 0.5zm94.3-452.8c-9.1 1.8-121.3 25.2-202.1 110-21 22-28.4 53.7-19.4 82.8 18.3 59.2 59.2 170.6 127.4 254.6l50.1-43.2c-1.5-11.7-14.8-108.3-46.9-169-32.9-62.5 137.1-188.1 164.6-207.8z"/><path class="a" d="m1229.6 1457.6l61.8 18.1c0 0 112.8-238.2 145.5-272.8 32.7-34.6 96.4-91 163.6-111 67.3-20 67.3-70.9 67.3-70.9l-114.5-32.7c0 0-160 69.1-212.8 147.3-52.7 78.2-110.9 322-110.9 322z"/><path fill-rule="evenodd" d="m1291.4 1478q-0.3 0-0.6-0.1l-61.8-18.2c-1.1-0.4-1.8-1.5-1.5-2.7 0.6-2.4 58.8-245 111.2-322.6 52.5-77.9 212.1-147.5 213.7-148.2 0.5-0.2 1-0.2 1.5-0.1l114.5 32.8c1 0.2 1.6 1.1 1.6 2.1 0 0.5-0.8 52.8-68.8 73.1-75.1 22.3-143.5 90.1-162.7 110.3-32.1 33.9-143.9 269.9-145 272.3-0.4 0.8-1.2 1.3-2.1 1.3zm-59.1-22l58 17.1c11-23.3 113.5-238.5 145-271.7 19.3-20.5 88.4-88.9 164.6-111.6 58.2-17.3 64.8-58.4 65.6-67.2l-112.1-32c-11.7 5.2-161.1 72.1-211 146.2-49.4 73.2-104.3 295.4-110.1 319.2z"/><path class="a" d="m1760.5 833.6c-30.9-61.8-81.8-70.9-81.8-70.9l-87.3-7.3c-27.2-1.8-56.3 15-67 40.2l-80.2 187.2c0 0 16.3 43.7 89.1 50.9 72.7 7.3 122.7 2.8 146.3 31.9 15.6 19.1 15.1-108.8 6.2-210z"/><path fill-rule="evenodd" d="m1682.6 1069.7c-1.4 0-3-0.6-4.7-2.7-17.7-21.9-51.9-24.2-99.3-27.4-13.7-1-29.2-2-45.6-3.7-73.2-7.3-90.2-50.5-90.9-52.3-0.2-0.6-0.2-1.2 0-1.7l80.2-187.2c11-25.6 40.8-43.4 69.3-41.5l87.3 7.3c0.7 0.1 52.6 10 83.6 72.1 0.3 0.6 0.3 1.3 0.1 1.9-0.3 0.6-0.8 1.1-1.4 1.3l-73.1 21.4c6.3 72 11.5 206-3.9 212.2-0.5 0.2-1 0.3-1.6 0.3zm-236-86.9c2.7 5.8 21.9 42.2 86.9 48.7 16.3 1.6 31.8 2.7 45.4 3.6 48.5 3.4 83.5 5.7 102.5 29.1 0.8 1 1.2 1.1 1.2 1.1 0.2-0.1 6.9-3.5 7.2-70.9 0.1-40.8-2.2-92.6-6.3-138.6-0.1-1.1 0.6-2.1 1.6-2.4l72.2-21.1c-30.1-58.1-78.5-67.3-79-67.4l-87-7.3c-26.7-1.8-54.6 14.9-64.9 38.9z"/><path class="a" d="m1527.1 994.9l40-18.2 30.9 12.7c0 0 167.6-16.8 93.4-135.5-0.3-0.5 56.6-16.6 56.6-16.6 0 0 67.6 161.2-146.3 164.8 0 0-10.9 3.7-25.5-3.6-14.5-7.3-40 7.3-49.1-3.6z"/><path fill-rule="evenodd" d="m1594.4 1005.3c-4.8 0-11.5-1-19.2-4.8-6.1-3.1-14.9-1.8-23.4-0.5-10.7 1.5-20.7 3-26.4-3.7-0.4-0.6-0.6-1.3-0.4-1.9 0.1-0.7 0.6-1.3 1.2-1.6l40-18.2c0.6-0.2 1.2-0.2 1.8 0l30.4 12.5c7.2-0.8 83-10.7 104.2-53.8 10.4-21.3 6-47.6-13.1-78.2-0.3-0.6-0.4-1.3-0.2-2 0.6-1.4 0.7-1.7 58.1-17.9 1.1-0.3 2.2 0.2 2.6 1.3 0.3 0.6 26.1 63.6-5.5 112-23.3 35.8-71.3 54.6-142.5 55.8-0.9 0.3-3.6 1-7.6 1zm-29-11.2c4.3 0 8.3 0.6 11.8 2.4 13.5 6.7 23.7 3.5 23.8 3.5q0.3-0.1 0.6-0.1c69.9-1.2 116.7-19.3 139.2-53.8 27.4-41.9 9.7-95.6 5.8-106.1-18.5 5.2-44 12.6-51.9 15.1 18.8 31 22.8 57.9 11.9 80.1-23.2 47.4-104.9 56.1-108.3 56.4q-0.6 0.1-1.1-0.2l-30-12.3-35.9 16.3c4.6 2.4 12 1.3 19.8 0.2 4.8-0.8 9.7-1.5 14.3-1.5z"/><path  d="m1374.7 1009.3h157.7l-116.9-179.9c-3.7-5.6-10.1-9-16.9-9h-128c-8.1 0-13.1 8.7-8.7 15.4z"/><path class="a" d="m1343.2 883.5c5.2 7.8 16.2 14.2 24.6 14.2 8.5 0 11.2-6.4 6.1-14.2-5.1-7.9-16.1-14.3-24.6-14.3-8.5 0-11.2 6.4-6.1 14.3z"/><path fill-rule="evenodd" d="m1367.8 899.9c-9.2 0-20.9-6.7-26.4-15.2-3.1-4.8-3.8-9.5-1.9-12.9 1.6-3.1 5.1-4.8 9.8-4.8 9.3 0 20.9 6.7 26.5 15.2 3 4.8 3.7 9.5 1.9 12.9-1.7 3.1-5.2 4.8-9.9 4.8zm-18.5-28.5c-3 0-5.1 0.9-5.9 2.5-1.1 2-0.5 5 1.7 8.3 4.7 7.2 15.1 13.3 22.7 13.3 3 0 5.1-0.9 6-2.5 1-2 0.4-5-1.8-8.3-4.6-7.2-15.1-13.3-22.7-13.3z"/><path  d="m1385.8 1022.8h242.6c6.4 0 11.6-5.2 11.6-11.6v-3.1h-265.9v3.1c0 6.4 5.2 11.6 11.7 11.6z"/><path  d="m1695.1 337.1c66.7-21.1 153.1 74.7 135.7 153.5-4.8 21.8 0.5 54.6-23.3 66.7-42.3 21.2-68.8-4.5-79.7 12.6-9.4 14.8 24 36.2 20 67.3-6 46.1-88.8 68.4-98.2 70.9-7 1.9-105.8 27.2-152.7-25.4-11.3-12.7-26.1-37.2-18.2-52.8 7.6-14.8 30.8-11.6 36.4-27.3 4.9-13.5-10.7-21.1-9.1-36.3 3-29.5 63.8-31 70.9-61.9 5.7-24.7-29.7-39.2-23.6-63.7 4.8-19.7 30.3-20.2 70.9-45.4 48.6-30.2 45.6-50.2 70.9-58.2z"/><path class="a" d="m1620.5 750c-1.6-0.8-23.5-26.7-36.3-41.9 1-4.2 0.9-5.5 0.5-11.9 0 0 6.6-6.7 4-15.3-3.1-10-12.6-2-12.6-2 0 0-4.4-7.7-21 5.6-16.6 13.3-34.1-2.9-34.1-2.9 0 0 0 10 8.7 22.1 4.9 6.7 5.7 15.5 5.9 23.7l9.3-1.3c5.1 6 8.9 9 16 11.9 0 0 5.5-1 11.3-5.8l10.2 23.2-10.4 5.5c0 0-2.4 14.5 24.9 18.2 27.3 3.6 49.1-18.2 49.1-18.2 0 0-14.6-5.5-25.5-10.9z"/><path fill-rule="evenodd" d="m1603.2 781.7q-3.3 0-6.6-0.4c-11.6-1.6-19.6-5.2-23.9-10.9-3.7-5-3-9.7-2.9-9.9 0.1-0.7 0.5-1.3 1.1-1.6l8.6-4.5-8.2-18.7c-5.3 3.6-9.8 4.5-10 4.5q-0.7 0.1-1.3-0.1c-6.8-2.9-10.9-5.8-16-11.6l-8.1 1.1c-0.6 0.1-1.2-0.1-1.7-0.5-0.5-0.4-0.8-1-0.8-1.6-0.2-8.1-1-16.4-5.5-22.5-9-12.6-9.1-23-9.1-23.4 0-0.9 0.5-1.7 1.3-2 0.8-0.4 1.7-0.2 2.4 0.4 0.7 0.6 16.3 14.7 31.2 2.8 7.9-6.4 14.4-9.1 19.3-8.2 1.4 0.3 2.5 0.8 3.3 1.4 2-1.3 5.6-3.1 9-2.1 2.6 0.8 4.5 2.9 5.5 6.3 2.5 8.1-2 14.6-3.8 16.8v0.1c0.3 5 0.4 6.9-0.4 10.4 29.2 34.7 34.2 39.8 35.1 40.6 10.6 5.3 24.9 10.6 25.1 10.7 0.7 0.3 1.2 0.9 1.4 1.6 0.1 0.8-0.1 1.5-0.6 2.1-0.9 0.8-19.6 19.2-44.4 19.2zm-29-19.5c0 1.2 0.5 3.4 2.2 5.6 3.5 4.6 10.7 7.7 20.8 9.1 20.5 2.7 38.1-9.9 44.6-15.3-5-1.9-14.6-5.8-22.3-9.6-0.7-0.4-2.2-1.2-37-42.4-0.4-0.6-0.6-1.3-0.4-2 0.8-3.7 0.8-4.8 0.5-10.3l-0.1-1c0-0.6 0.2-1.3 0.6-1.7 0.3-0.2 5.7-5.9 3.5-13.1q-0.9-2.8-2.6-3.3c-2-0.6-5.3 1.4-6.5 2.4-0.5 0.4-1.2 0.6-1.8 0.5-0.7-0.1-1.2-0.5-1.6-1.1q0 0 0 0c0 0-0.6-0.8-2.1-1-2.1-0.3-6.8 0.2-15.5 7.2-12.6 10.1-25.8 4.6-32.5 0.4 0.9 3.8 3 9.5 7.5 15.8 4.7 6.4 5.9 14.5 6.3 22.5l6.8-1c0.8-0.1 1.5 0.2 2 0.7 4.9 5.8 8.3 8.5 14.5 11.1 1.4-0.4 5.5-1.7 9.7-5.2 0.5-0.4 1.2-0.6 1.9-0.4 0.7 0.1 1.2 0.6 1.5 1.2l10.2 23.2c0.5 1.1 0 2.4-1 2.9z"/><path class="a" d="m1572.2 732.2l3-2.7z"/><path  d="m1572.2 734.4c-0.6 0-1.2-0.2-1.7-0.7-0.8-0.9-0.7-2.3 0.2-3.1l3-2.7c0.9-0.9 2.3-0.8 3.1 0.1 0.8 0.9 0.8 2.4-0.1 3.2l-3 2.7c-0.5 0.4-1 0.5-1.5 0.5z"/><path class="a" d="m694.6 434.7l-97.6 226 86.3-28.5 47.6 77.6 58.6-241.4z"/><path fill-rule="evenodd" d="m730.9 712c-0.8 0-1.5-0.4-1.9-1.1l-46.7-76-84.6 27.9c-0.8 0.3-1.7 0-2.3-0.6-0.6-0.7-0.8-1.6-0.4-2.4l97.6-226c0.4-1.1 1.7-1.6 2.8-1.2l94.8 33.7c1.1 0.4 1.7 1.5 1.4 2.6l-58.5 241.4c-0.2 0.9-1 1.5-1.8 1.7q-0.2 0-0.4 0zm-47.6-82c0.8 0 1.5 0.4 1.9 1l44.8 73 56.8-234.2-91-32.3-94.8 219.5 81.6-26.9q0.4-0.1 0.7-0.1z"/><path class="a" d="m780.6 476.7l66.7 237 49-76.6 85.9 30.2-106.8-224.3z"/><path fill-rule="evenodd" d="m847.3 715.9q-0.1 0-0.3 0c-0.9-0.2-1.6-0.8-1.8-1.6l-66.8-236.9c-0.3-1.2 0.3-2.4 1.4-2.7l94.8-33.8c1.1-0.4 2.3 0.1 2.8 1.2l106.8 224.2c0.4 0.8 0.2 1.8-0.4 2.4-0.6 0.7-1.5 0.9-2.4 0.7l-84.2-29.6-48 75.1c-0.4 0.6-1.1 1-1.9 1zm-64-237.8l64.8 230.2 46.3-72.4c0.6-0.8 1.7-1.2 2.7-0.9l80.8 28.4-103.7-217.6z"/><path  d="m974.6 376.9l-26.6 32.4 12.2 40-37 19.6-4 41.8-41.7 4-19.6 37-40-12.3-32.4 26.6-32.3-26.6-40 12.3-19.6-37-41.7-4.1-4-41.7-37-19.6 12.2-40-26.6-32.4 26.6-32.3-12.2-40.1 37-19.6 4-41.7 41.7-4 19.6-37.1 40 12.3 32.3-26.6 32.4 26.6 40-12.3 19.6 37.1 41.7 4 4 41.7 37 19.6-12.3 40.1z"/><path class="a" d="m918.3 378.1c0 73.9-60 133.9-133.9 133.9-73.9 0-133.9-60-133.9-133.9 0-74 60-134 133.9-134 73.9 0 133.9 60 133.9 134z"/><path fill-rule="evenodd" d="m784.4 514.2c-75 0-136.1-61.1-136.1-136.1 0-75.1 61.1-136.2 136.1-136.2 75 0 136.1 61.1 136.1 136.2 0 75-61.1 136.1-136.1 136.1zm0-267.8c-72.6 0-131.6 59-131.6 131.7 0 72.6 59 131.7 131.6 131.7 72.6 0 131.6-59.1 131.6-131.7 0-72.7-59-131.7-131.6-131.7z"/><path  d="m777.8 445.8c-1.8 0-3.5-0.7-4.8-2l-51.4-53.5c-2.5-2.6-2.5-6.8 0.2-9.4 2.6-2.5 6.9-2.5 9.4 0.2l45.8 47.5 65.7-95.6c2.1-3.1 6.3-3.8 9.3-1.7 3 2 3.8 6.2 1.7 9.2l-70.4 102.4c-1.1 1.7-2.9 2.7-4.9 2.9q-0.3 0-0.6 0z"/><path  d="m1313.8 360.9l-24.4 3.8-15.8-17.2c-3.4-3.6-9.9-1.7-11.1 3.3l-5.3 23.5-22.7 10.3c-4.9 2.2-5.4 8.7-0.8 11l21.1 10.7 1.8 23.5c0.4 5.1 6.6 7.2 10.6 3.6l18.3-16.9 23.9 4.3c5.1 0.9 9.4-4.3 7.3-8.9l-9.8-21.1 13-20.9c2.8-4.5-0.8-9.8-6.1-9z"/><path  d="m1409.7 308.6l-24 4.8-16.2-16.8c-3.5-3.6-9.9-1.3-10.8 3.8l-4.5 23.9-22.1 11.3c-4.8 2.4-5.1 9-0.5 11.2l21.2 10 2.5 23.7c0.5 5.1 6.8 7 10.6 3.1l17.6-17.7 23.6 3.4c5.1 0.7 9.3-4.7 7-9.2l-10.3-21 12.1-21.6c2.6-4.7-1-9.9-6.2-8.9z"/><path  d="m1513.8 264.9l-23.8 3.7-15.1-17.8c-3.3-3.8-9.7-1.9-10.8 3.3l-5.5 24.1-22.2 10.4c-4.8 2.2-5.3 8.9-0.9 11.3l20.4 11.3 1.3 24.2c0.3 5.2 6.4 7.4 10.3 3.7l18-17.1 23.1 4.6c5 0.9 9.2-4.4 7.3-9.1l-9.3-21.8 12.9-21.4c2.8-4.6-0.6-10.1-5.7-9.4z"/><path  d="m1614.2 222.3l-23.6 4.7-15.9-17.2c-3.4-3.7-9.7-1.4-10.6 3.8l-4.5 24.3-21.7 11.3c-4.7 2.4-5 9.2-0.5 11.4l20.9 10.3 2.4 24.2c0.5 5.2 6.6 7.1 10.3 3.3l17.3-17.9 23.3 3.6c5 0.8 9.1-4.8 6.9-9.4l-10.2-21.4 12-21.9c2.6-4.7-1.1-10.1-6.1-9.1z"/></svg>