<svg width="16" height="16" viewBox="0 0 16 16" fill="none" xmlns="http://www.w3.org/2000/svg">
<g clip-path="url(#clip0_24_76)">
<path d="M8 0C12.4183 0 16 3.58175 16 8C16 12.4183 12.4183 16 8 16C3.58175 16 0 12.4183 0 8C0 3.58175 3.58175 0 8 0Z" fill="#3178C6"/>
<path d="M8.77894 10.0445V11.6089C9.02998 11.7393 9.32685 11.8371 9.66956 11.9023C10.0123 11.9674 10.3736 12 10.7533 12C11.1234 12 11.475 11.9641 11.8081 11.8924C12.1411 11.8208 12.4332 11.7026 12.6842 11.538C12.9352 11.3734 13.1339 11.1583 13.2804 10.8927C13.4268 10.6271 13.5 10.2987 13.5 9.90763C13.5 9.62408 13.4582 9.37556 13.3745 9.16206C13.292 8.95046 13.1691 8.75701 13.0124 8.59256C12.8547 8.42631 12.6657 8.27721 12.4452 8.14525C12.2248 8.01325 11.9762 7.88858 11.6994 7.77125C11.4967 7.6865 11.3149 7.60421 11.1539 7.52437C10.9931 7.44454 10.8563 7.36306 10.7436 7.27994C10.631 7.19681 10.5441 7.10881 10.483 7.01594C10.4219 6.92306 10.3913 6.81796 10.3912 6.70062C10.3912 6.59308 10.4186 6.49612 10.4733 6.40975C10.5281 6.32337 10.6053 6.24921 10.705 6.18725C10.8048 6.12533 10.9271 6.07727 11.0719 6.04306C11.2167 6.0089 11.3776 5.99179 11.5546 5.99175C11.6834 5.99175 11.8193 6.00154 11.9625 6.02112C12.1057 6.04062 12.2498 6.07075 12.3946 6.1115C12.539 6.1522 12.6802 6.20367 12.8169 6.2655C12.9497 6.32512 13.0766 6.39715 13.1959 6.48063V5.01888C12.961 4.92763 12.7043 4.86 12.4259 4.816C12.1476 4.772 11.8282 4.75 11.4677 4.75C11.1009 4.75 10.7533 4.78992 10.4251 4.86975C10.0968 4.94963 9.80798 5.07429 9.55856 5.24375C9.30915 5.41321 9.11204 5.62912 8.96725 5.8915C8.82246 6.15387 8.75004 6.46758 8.75 6.83262C8.75 7.29867 8.88275 7.69627 9.14825 8.02544C9.41375 8.3546 9.81683 8.63327 10.3575 8.86144C10.5571 8.94386 10.7551 9.03025 10.9513 9.12056C11.1346 9.20527 11.2931 9.29325 11.4267 9.3845C11.5602 9.47579 11.6656 9.57521 11.7429 9.68275C11.8201 9.79029 11.8588 9.9125 11.8588 10.0494C11.8594 10.1478 11.8345 10.2447 11.7863 10.3305C11.7381 10.4169 11.6649 10.4918 11.5667 10.5554C11.4685 10.6189 11.3462 10.6686 11.1998 10.7045C11.0534 10.7403 10.882 10.7583 10.6858 10.7583C10.351 10.7583 10.0196 10.6988 9.69131 10.5798C9.36306 10.4609 9.05894 10.2824 8.77894 10.0445ZM6.10694 6.15887H8.125V4.875H2.5V6.15881H4.50825V11.875H6.10687L6.10694 6.15887Z" fill="white"/>
</g>
<defs>
<clipPath id="clip0_24_76">
<rect width="16" height="16" fill="white"/>
</clipPath>
</defs>
</svg>
