<svg width="24" height="24" viewBox="0 0 24 24" fill="none" xmlns="http://www.w3.org/2000/svg">
<path d="M11.745 14.85L6.90503 12V7C6.90503 4.79 8.72903 3 10.981 3C12.378 3 13.611 3.69 14.346 4.741" stroke="black" stroke-width="1.5" stroke-linecap="round" stroke-linejoin="round"/>
<path d="M9.6001 19.18C9.97597 19.7417 10.4849 20.2019 11.0816 20.5194C11.6783 20.8369 12.3442 21.002 13.0201 21C15.2701 21 17.0961 19.21 17.0961 17V12L12.1601 9.09698" stroke="black" stroke-width="1.5" stroke-linecap="round" stroke-linejoin="round"/>
<path d="M9.45215 13.5V7.67L13.8641 5.17C15.8141 4.065 18.3071 4.72 19.4331 6.633C19.778 7.21619 19.9662 7.87862 19.9795 8.556C19.9928 9.23338 19.8308 9.9027 19.5091 10.499" stroke="black" stroke-width="1.5" stroke-linecap="round" stroke-linejoin="round"/>
<path d="M4.49015 13.5C4.16835 14.0962 4.00615 14.7655 4.01929 15.4429C4.03244 16.1203 4.22047 16.7827 4.56515 17.366C5.69115 19.279 8.18515 19.934 10.1351 18.83L14.5471 16.33L14.6431 10.734" stroke="black" stroke-width="1.5" stroke-linecap="round" stroke-linejoin="round"/>
<path d="M17.096 17.63C17.7776 17.6036 18.4418 17.4072 19.0282 17.0586C19.6145 16.71 20.1043 16.2202 20.453 15.634C21.579 13.721 20.911 11.274 18.961 10.17L14.548 7.66998L9.48901 10.425" stroke="black" stroke-width="1.5" stroke-linecap="round" stroke-linejoin="round"/>
<path d="M6.90504 6.37C6.22325 6.3962 5.55885 6.59256 4.97234 6.94118C4.38583 7.2898 3.89586 7.77961 3.54704 8.366C2.42104 10.28 3.08904 12.726 5.03904 13.83L9.45204 16.33L14.5 13.58" stroke="black" stroke-width="1.5" stroke-linecap="round" stroke-linejoin="round"/>
</svg>
