<svg width="16" height="16" viewBox="0 0 16 16" fill="none" xmlns="http://www.w3.org/2000/svg">
<path d="M8 10.0015V11.0015H10C10.2652 11.0015 10.5196 10.8962 10.7071 10.7086C10.8946 10.5211 11 10.2667 11 10.0015V9.00153C11 8.73631 10.8946 8.48196 10.7071 8.29442C10.5196 8.10688 10.2652 8.00153 10 8.00153H9V7.00153H11V6.00153H9C8.73478 6.00153 8.48043 6.10688 8.29289 6.29442C8.10536 6.48196 8 6.73631 8 7.00153V8.00153C8 8.26674 8.10536 8.5211 8.29289 8.70863C8.48043 8.89617 8.73478 9.00153 9 9.00153H10V10.0015H8Z" fill="#8BC34A"/>
<path d="M8 1.50153L2 5.00153V12.0015L4 13.0015H7V6.25153C7 6.18522 6.97366 6.12163 6.92678 6.07475C6.87989 6.02786 6.8163 6.00153 6.75 6.00153H6.25C6.1837 6.00153 6.12011 6.02786 6.07322 6.07475C6.02634 6.12163 6 6.18522 6 6.25153V12.0015H4L3 11.4845V5.57503L8 2.65853L13 5.57503V11.4265L8 14.343L7.1275 13.832L6.5 14.6265L8 15.5015L14 12.0015V5.00153L8 1.50153Z" fill="#8BC34A"/>
</svg>
